# Created by Kenney (www.kenney.nl)

mtllib cross.mtl

g cross

v -0.5 0.3125 0.2875
v -0.2875 0.3125 0.2875
v -0.5 0.5 0.35
v -0.35 0.5 0.35
v -0.1 0.25 -0.1
v -0.5 0.25 -0.09999999
v -0.2875 0.3125 -0.2875
v -0.5 0.3125 -0.2875
v -0.5 0.25 0.1
v -0.1 0.25 0.1
v -0.1 0.25 0.5
v -0.1 0.25 -0.5
v 0.1 0.25 0.5
v 0.1 0.25 0.1
v 0.1 0.25 -0.1
v 0.1 0.25 -0.5
v 0.5 0.25 -0.1
v 0.5 0.25 0.09999999
v -0.35 0.5 -0.35
v -0.5 0.5 -0.35
v 0.2875 0.3125 -0.5
v 0.35 0.5 -0.5
v 0.2875 0.3125 -0.2875
v 0.35 0.5 -0.35
v 0.5 0.3125 -0.2875
v 0.5 0.5 -0.35
v 0.2875 0.3125 0.2875
v 0.35 0.5 0.35
v 0.2875 0.3125 0.5
v 0.35 0.5 0.5
v -0.2875 0.3125 -0.5
v 0.5 0.3125 0.2875
v 0.5 0.5 0.35
v -0.35 0.5 -0.5
v -0.2875 0.3125 0.5
v -0.35 0.5 0.5
v 0.5 0.5 -0.5
v 0.5 0 -0.5
v 0.5 0 0.5
v 0.5 0.5 0.5
v -0.5 0.5 -0.5
v -0.5 0 -0.5
v -0.5 0 0.5
v -0.5 0.5 0.5

vn 0 0.7071068 -0.7071068
vn 0 0.803126 -0.5958093
vn 0 0.3162278 -0.9486833
vn 0 -0.3162278 0.9486833
vn 0 -0.803126 0.5958093
vn 0 -0.7071068 0.7071068
vn 0.04098481 0.9983188 0.04098481
vn 0 0.9870875 0.1601822
vn 0 0.803126 0.5958093
vn 0 0.7071068 0.7071068
vn 0 -0.803126 -0.5958093
vn 0 -0.9870875 -0.1601822
vn -0.04098481 -0.9983188 -0.04098481
vn 0 -0.7071068 -0.7071068
vn 0 0.9870875 -0.1601822
vn 0.04098481 0.9983188 -0.04098481
vn 0.1601822 0.9870875 0
vn -0.1601822 0.9870875 0
vn -0.04098481 0.9983188 -0.04098481
vn -0.04098481 0.9983188 0.04098481
vn -0.04098481 -0.9983188 0.04098481
vn 0 -0.9870875 0.1601822
vn -0.1601822 -0.9870875 0
vn 0.1601822 -0.9870875 0
vn 0.04098481 -0.9983188 0.04098481
vn 0.04098481 -0.9983188 -0.04098481
vn 0 0.3162278 0.9486833
vn 0 -0.3162278 -0.9486833
vn -0.7071068 0.7071068 0
vn -0.9486833 0.3162278 0
vn -0.5958093 0.803126 0
vn 0.5958093 -0.803126 0
vn 0.9486833 -0.3162278 0
vn 0.7071068 -0.7071068 0
vn 0.7071068 0.7071068 0
vn 0.5958093 0.803126 0
vn -0.7071068 -0.7071068 0
vn -0.5958093 -0.803126 0
vn 0.9486833 0.3162278 0
vn -0.9486833 -0.3162278 0
vn 1 0 0
vn -1 0 0
vn 0 1 0
vn 0 -1 0
vn 0 0 1
vn 0 0 -1

vt 19.68504 15.25114
vt 11.3189 15.25114
vt 19.68504 23.03234
vt 13.77953 23.03234
vt -3.937008 6.847452
vt -19.68504 6.847452
vt -11.3189 14.62865
vt -19.68504 14.62865
vt 19.68504 3.937008
vt 19.68504 -3.937008
vt 3.937008 3.937008
vt 3.937008 -3.937008
vt 3.937008 19.68504
vt 3.937008 -19.68504
vt -3.937008 19.68504
vt -3.937008 3.937008
vt -3.937008 -3.937008
vt -3.937008 -19.68504
vt -19.68504 -3.937008
vt -19.68504 3.937008
vt 3.937008 6.847452
vt 11.3189 14.62865
vt 19.68504 6.847452
vt 19.68504 14.62865
vt -11.3189 15.25114
vt -19.68504 15.25114
vt -13.77953 23.03234
vt -19.68504 23.03234
vt -11.3189 15.25114
vt -11.3189 14.62865
vt 11.3189 15.25114
vt 11.3189 14.62865
vt 19.68504 19.68504
vt 19.68504 -7.823471E-23
vt 13.77953 19.68504
vt 11.3189 12.30315
vt -19.68504 -7.823471E-23
vt 3.937008 9.84252
vt -3.937008 9.84252
vt -11.3189 12.30315
vt -13.77953 19.68504
vt -19.68504 19.68504
vt -19.68504 13.77953
vt -13.77953 13.77953
vt -19.68504 5.476424E-23
vt 19.68504 5.476424E-23
vt 19.68504 -1.111243E-15
vt -19.68504 -1.111243E-15
vt 3.937008 9.84252
vt -3.937008 9.84252
vt -11.3189 12.30315
vt 19.68504 -19.68504
vt -19.68504 -19.68504
vt 13.77953 -19.68504
vt 13.77953 -13.77953
vt 19.68504 -13.77953
vt -19.68504 -13.77953
vt -13.77953 -13.77953
vt -13.77953 -19.68504
vt 13.77953 13.77953
vt 19.68504 13.77953

usemtl yellow

f 3/3/3 2/2/2 1/1/1
f 2/2/2 3/3/3 4/4/3
f 1/1/6 2/2/5 3/3/4
f 4/4/4 3/3/4 2/2/5
f 7/7/9 6/6/8 5/5/7
f 6/6/8 7/7/9 8/8/10
f 5/5/13 6/6/12 7/7/11
f 8/8/14 7/7/11 6/6/12
f 10/11/16 6/10/8 9/9/15
f 6/10/8 10/11/16 5/12/7
f 11/13/17 5/12/7 10/11/16
f 11/13/17 12/14/17 5/12/7
f 13/15/18 12/14/17 11/13/17
f 14/16/19 12/14/17 13/15/18
f 15/17/20 12/14/17 14/16/19
f 12/14/17 15/17/20 16/18/18
f 14/16/19 17/19/8 15/17/20
f 17/19/8 14/16/19 18/20/15
f 9/9/22 6/10/12 10/11/21
f 5/12/13 10/11/21 6/10/12
f 10/11/21 5/12/13 11/13/23
f 5/12/13 12/14/23 11/13/23
f 11/13/23 12/14/23 13/15/24
f 13/15/24 12/14/23 14/16/25
f 14/16/25 12/14/23 15/17/26
f 16/18/24 15/17/26 12/14/23
f 15/17/26 17/19/12 14/16/25
f 18/20/22 14/16/25 17/19/12
f 9/23/15 2/22/2 10/21/16
f 2/22/2 9/23/15 1/24/1
f 10/21/21 2/22/5 9/23/22
f 1/24/6 9/23/22 2/22/5
f 19/27/27 8/26/10 7/25/9
f 8/26/10 19/27/27 20/28/27
f 7/25/11 8/26/14 19/27/28
f 20/28/28 19/27/28 8/26/14
f 23/29/31 22/28/30 21/26/29
f 22/28/30 23/29/31 24/27/30
f 21/26/34 22/28/33 23/29/32
f 24/27/33 23/29/32 22/28/33
f 26/3/27 23/2/9 25/1/10
f 23/2/9 26/3/27 24/4/27
f 25/1/14 23/2/11 26/3/28
f 24/4/28 26/3/28 23/2/11
f 16/6/18 23/30/31 21/8/29
f 23/30/31 16/6/18 15/5/20
f 21/8/34 23/30/32 16/6/24
f 15/5/26 16/6/24 23/30/32
f 29/1/29 28/4/30 27/31/31
f 28/4/30 29/1/29 30/3/30
f 27/31/32 28/4/33 29/1/34
f 30/3/33 29/1/34 28/4/33
f 31/24/35 5/21/7 12/23/17
f 5/21/7 31/24/35 7/32/36
f 12/23/23 5/21/13 31/24/37
f 7/32/38 31/24/37 5/21/13
f 28/27/3 32/26/1 27/25/2
f 32/26/1 28/27/3 33/28/3
f 27/25/5 32/26/6 28/27/4
f 33/28/4 28/27/4 32/26/6
f 25/24/10 15/21/20 17/23/8
f 15/21/20 25/24/10 23/22/9
f 17/23/12 15/21/26 25/24/14
f 23/22/11 25/24/14 15/21/26
f 19/4/39 31/1/35 34/3/39
f 31/1/35 19/4/39 7/31/36
f 34/3/40 31/1/37 19/4/40
f 7/31/38 19/4/40 31/1/37
f 4/27/39 35/26/35 2/29/36
f 35/26/35 4/27/39 36/28/39
f 2/29/38 35/26/37 4/27/40
f 36/28/40 4/27/40 35/26/37
f 18/6/15 27/7/2 32/8/1
f 27/7/2 18/6/15 14/5/19
f 32/8/6 27/7/5 18/6/22
f 14/5/25 18/6/22 27/7/5
f 2/30/36 11/6/17 10/5/16
f 11/6/17 2/30/36 35/8/35
f 10/5/21 11/6/23 2/30/38
f 35/8/37 2/30/38 11/6/23
f 14/21/19 29/24/29 27/32/31
f 29/24/29 14/21/19 13/23/18
f 27/32/32 29/24/34 14/21/25
f 13/23/24 14/21/25 29/24/34

usemtl green

f 26/35/41 38/34/41 37/33/41
f 38/34/41 26/35/41 25/36/41
f 38/34/41 25/36/41 39/37/41
f 39/37/41 25/36/41 17/38/41
f 39/37/41 17/38/41 18/39/41
f 39/37/41 18/39/41 32/40/41
f 39/37/41 32/40/41 33/41/41
f 39/37/41 33/41/41 40/42/41
f 37/33/42 38/34/42 26/35/42
f 25/36/42 26/35/42 38/34/42
f 39/37/42 25/36/42 38/34/42
f 17/38/42 25/36/42 39/37/42
f 18/39/42 17/38/42 39/37/42
f 32/40/42 18/39/42 39/37/42
f 33/41/42 32/40/42 39/37/42
f 40/42/42 33/41/42 39/37/42
f 33/43/43 30/41/43 40/42/43
f 30/41/43 33/43/43 28/44/43
f 40/42/44 30/41/44 33/43/44
f 28/44/44 33/43/44 30/41/44
f 41/42/42 8/40/42 20/41/42
f 42/45/42 8/40/42 41/42/42
f 8/40/42 42/45/42 43/46/42
f 8/40/42 43/46/42 6/39/42
f 6/39/42 43/46/42 9/38/42
f 9/38/42 43/46/42 1/36/42
f 1/36/42 43/46/42 3/35/42
f 3/35/42 43/46/42 44/33/42
f 20/41/41 8/40/41 41/42/41
f 41/42/41 8/40/41 42/45/41
f 43/46/41 42/45/41 8/40/41
f 6/39/41 43/46/41 8/40/41
f 9/38/41 43/46/41 6/39/41
f 1/36/41 43/46/41 9/38/41
f 3/35/41 43/46/41 1/36/41
f 44/33/41 43/46/41 3/35/41
f 29/36/45 40/33/45 30/35/45
f 29/36/45 39/47/45 40/33/45
f 39/47/45 29/36/45 43/48/45
f 43/48/45 29/36/45 13/49/45
f 11/50/45 43/48/45 13/49/45
f 35/51/45 43/48/45 11/50/45
f 43/48/45 35/51/45 44/42/45
f 44/42/45 35/51/45 36/41/45
f 30/35/46 40/33/46 29/36/46
f 40/33/46 39/47/46 29/36/46
f 43/48/46 29/36/46 39/47/46
f 13/49/46 29/36/46 43/48/46
f 13/49/46 43/48/46 11/50/46
f 11/50/46 43/48/46 35/51/46
f 44/42/46 35/51/46 43/48/46
f 36/41/46 35/51/46 44/42/46
f 43/42/44 38/52/44 39/33/44
f 38/52/44 43/42/44 42/53/44
f 39/33/43 38/52/43 43/42/43
f 42/53/43 43/42/43 38/52/43
f 41/52/43 19/55/43 34/54/43
f 19/55/43 41/52/43 20/56/43
f 34/54/44 19/55/44 41/52/44
f 20/56/44 41/52/44 19/55/44
f 31/36/46 41/33/46 34/35/46
f 31/36/46 42/47/46 41/33/46
f 42/47/46 31/36/46 38/48/46
f 38/48/46 31/36/46 12/49/46
f 16/50/46 38/48/46 12/49/46
f 21/51/46 38/48/46 16/50/46
f 38/48/46 21/51/46 37/42/46
f 37/42/46 21/51/46 22/41/46
f 34/35/45 41/33/45 31/36/45
f 41/33/45 42/47/45 31/36/45
f 38/48/45 31/36/45 42/47/45
f 12/49/45 31/36/45 38/48/45
f 12/49/45 38/48/45 16/50/45
f 16/50/45 38/48/45 21/51/45
f 37/42/45 21/51/45 38/48/45
f 22/41/45 21/51/45 37/42/45
f 37/53/43 24/58/43 26/57/43
f 24/58/43 37/53/43 22/59/43
f 26/57/44 24/58/44 37/53/44
f 22/59/44 37/53/44 24/58/44
f 3/61/43 36/35/43 4/60/43
f 36/35/43 3/61/43 44/33/43
f 4/60/44 36/35/44 3/61/44
f 44/33/44 3/61/44 36/35/44

