# Created by Kenney (www.kenney.nl)

mtllib straight_hole.mtl

g straight_hole

v 0 0 -0.25
v -0.09567086 0 -0.2309699
v 0 0.25 -0.25
v -0.09567086 0.25 -0.2309699
v -0.1767767 0 0.1767767
v -0.09567086 0 0.2309699
v -0.1767767 0.2755922 0.1767767
v -0.1 0.25 0.2280772
v -0.09567086 0.25 0.2309699
v 0.5 0.5 -0.5
v 0.5 0 -0.5
v 0.5 0.5 0.5
v 0.5 0 0.5
v -0.2309699 0 0.09567086
v -0.2309699 0.2936566 0.09567086
v 0.35 0.5 0.5
v 0.2875 0.3125 0.5
v -0.5 0 0.5
v 0.1 0.25 0.5
v -0.1 0.25 0.5
v -0.2875 0.3125 0.5
v -0.5 0.5 0.5
v -0.35 0.5 0.5
v 0 0 0.25
v 0.09567086 0 0.2309699
v 0 0.25 0.25
v 0.09567086 0.25 0.2309699
v -0.35 0.5 -0.5
v -0.5 0.5 -0.5
v -0.1767767 0 -0.1767767
v -0.1 0.25 -0.2280772
v -0.1767767 0.2755922 -0.1767767
v 0.09567086 0 -0.2309699
v 0.09567086 0.25 -0.2309699
v -0.25 0 2.887646E-15
v -0.25 0.3 5.775291E-15
v -0.5 0 -0.5
v -0.2875 0.3125 -0.5
v -0.1 0.25 -0.5
v 0.1 0.25 -0.5
v 0.2875 0.3125 -0.5
v 0.35 0.5 -0.5
v -0.2309699 0.2936566 -0.09567086
v -0.2309699 0 -0.09567086
v 0.25 0 2.887646E-15
v 0.25 0.3 4.331469E-15
v 0.2309699 0 0.09567086
v 0.2309699 0.2936566 0.09567086
v 0.1767767 0 0.1767767
v 0.1 0.25 0.2280772
v 0.1767767 0.2755922 0.1767767
v 0.1767767 0 -0.1767767
v 0.1767767 0.2755922 -0.1767767
v 0.1 0.25 -0.2280772
v 0.2309699 0 -0.09567086
v 0.2309699 0.2936566 -0.09567086

vn 0 0 1
vn 0.3826834 0 0.9238795
vn 0 0 -1
vn -0.3826834 0 -0.9238795
vn 0.7071068 0 -0.7071068
vn 0.3826834 0 -0.9238795
vn 0.7276725 0 -0.6859247
vn 0.5555702 0 -0.8314696
vn -0.7276725 0 0.6859247
vn -0.3826834 0 0.9238795
vn -0.7071068 0 0.7071068
vn -0.5555702 0 0.8314696
vn 1 0 0
vn -1 0 0
vn 0.9238795 0 -0.3826834
vn 0.930001 0 -0.3675571
vn -0.930001 0 0.3675571
vn -0.9238795 0 0.3826834
vn 0 1 0
vn 0 -1 0
vn 0.7071068 0 0.7071068
vn 0.5555702 0 0.8314696
vn 0.7276725 0 0.6859247
vn -0.7071068 0 -0.7071068
vn -0.5555702 0 -0.8314696
vn -0.7276725 0 -0.6859247
vn 0.930001 0 0.3675571
vn 0.9238795 0 0.3826834
vn -0.9238795 0 -0.3826834
vn -0.930001 0 -0.3675571
vn -0.2190823 0.9757063 0
vn -0.1601822 0.9870875 0
vn 0.1601822 0.9870875 0
vn 0.2190823 0.9757063 0
vn 0.1601822 -0.9870875 0
vn 0.2190823 -0.9757063 0
vn -0.1601822 -0.9870875 0
vn -0.2190823 -0.9757063 0
vn 0.7071068 0.7071068 0
vn 0.3162278 0.9486833 0
vn -0.7071068 -0.7071068 0
vn -0.3162278 -0.9486833 0
vn -0.7071068 0.7071068 0
vn -0.9486833 0.3162278 0
vn 0.7071068 -0.7071068 0
vn 0.9486833 -0.3162278 0
vn 0.9486833 0.3162278 0
vn -0.9486833 -0.3162278 0
vn -0.3162278 0.9486833 0
vn 0.3162278 -0.9486833 0

vt 1.92018 0
vt -1.92018 0
vt 1.92018 9.84252
vt -1.92018 9.84252
vt 1.92018 3.344314E-14
vt -1.92018 3.344314E-14
vt 1.92018 10.85009
vt -1.715196 9.84252
vt 19.68504 19.68504
vt 19.68504 0
vt -19.68504 19.68504
vt -19.68504 0
vt 1.92018 -5.414056E-14
vt -1.92018 -5.414056E-14
vt 1.92018 11.56129
vt -1.92018 10.85009
vt 13.77953 19.68504
vt 11.3189 12.30315
vt 3.937008 9.84252
vt -3.937008 9.84252
vt -11.3189 12.30315
vt -13.77953 19.68504
vt 1.92018 -3.962575E-18
vt -1.92018 -3.962575E-18
vt 13.77953 -19.68504
vt 19.68504 -19.68504
vt 1.92018 -1.704295E-14
vt -1.92018 -1.704295E-14
vt 1.715196 9.84252
vt 1.92018 -7.828564E-14
vt -1.92018 -7.828564E-14
vt 1.92018 11.81102
vt -1.92018 11.56129
vt 1.92018 -9.680357E-14
vt -1.92018 11.81102
vt -1.92018 -9.680357E-14
vt -19.68504 -19.68504
vt -13.77953 -19.68504
vt 1.92018 -9.34346E-14
vt -1.92018 -9.34346E-14
vt -1.92018 1.012746E-13
vt 1.92018 1.012746E-13
vt 1.92018 1.828952E-14
vt -1.92018 1.828952E-14
vt 1.92018 -2.389909E-14
vt -1.92018 -2.389909E-14
vt -1.92018 5.592614E-14
vt 1.92018 5.592614E-14
vt -1.92018 -2.736788E-15
vt 1.92018 -2.736788E-15
vt -1.92018 -3.626987E-15
vt 1.92018 -3.626987E-15
vt 6.959713 6.959713
vt 9.093303 3.766569
vt 3.766569 9.093303
vt 9.84252 1.136868E-13
vt 0 9.84252
vt 9.093303 -3.766569
vt 6.959713 -6.959713
vt 3.766569 -9.093303
vt -3.766569 9.093303
vt -6.959713 6.959713
vt -9.093303 3.766569
vt -9.84252 1.136868E-13
vt 0 -9.84252
vt -9.093303 -3.766569
vt -3.766569 -9.093303
vt -6.959713 -6.959713
vt -3.937008 -8.979419
vt -3.937008 -19.68504
vt 3.937008 -19.68504
vt -1.526607E-14 -9.84252
vt 3.937008 -8.979419
vt 19.68504 6.847452
vt 8.979419 6.847452
vt 19.68504 14.62865
vt 6.959713 10.03366
vt 3.766569 12.28266
vt -2.293348E-13 13.07241
vt -19.68504 14.62865
vt -3.766569 12.28266
vt -6.959713 10.03366
vt -8.979419 6.847452
vt -19.68504 6.847452
vt -19.68504 15.25114
vt -19.68504 23.03234
vt 19.68504 15.25114
vt 19.68504 23.03234
vt 1.623049E-13 13.07241
vt -3.937008 8.979419
vt -3.937008 19.68504
vt 3.937008 19.68504
vt -1.672344E-14 9.84252
vt 3.937008 8.979419

usemtl green

f 3/3/1 2/2/2 1/1/1
f 2/2/2 3/3/1 4/4/2
f 1/1/3 2/2/4 3/3/3
f 4/4/4 3/3/3 2/2/4
f 7/7/7 6/6/6 5/5/5
f 6/6/6 7/7/7 8/8/8
f 9/4/6 6/6/6 8/8/8
f 5/5/11 6/6/10 7/7/9
f 8/8/12 7/7/9 6/6/10
f 8/8/12 6/6/10 9/4/10
f 12/11/13 11/10/13 10/9/13
f 11/10/13 12/11/13 13/12/13
f 10/9/14 11/10/14 12/11/14
f 13/12/14 12/11/14 11/10/14
f 15/15/16 5/14/5 14/13/15
f 5/14/5 15/15/16 7/16/7
f 14/13/18 5/14/11 15/15/17
f 7/16/9 15/15/17 5/14/11
f 17/18/1 12/9/1 16/17/1
f 17/18/1 13/10/1 12/9/1
f 13/10/1 17/18/1 18/12/1
f 18/12/1 17/18/1 19/19/1
f 20/20/1 18/12/1 19/19/1
f 21/21/1 18/12/1 20/20/1
f 18/12/1 21/21/1 22/11/1
f 22/11/1 21/21/1 23/22/1
f 16/17/3 12/9/3 17/18/3
f 12/9/3 13/10/3 17/18/3
f 18/12/3 17/18/3 13/10/3
f 19/19/3 17/18/3 18/12/3
f 19/19/3 18/12/3 20/20/3
f 20/20/3 18/12/3 21/21/3
f 22/11/3 21/21/3 18/12/3
f 23/22/3 21/21/3 22/11/3
f 26/3/3 25/2/4 24/1/3
f 25/2/4 26/3/3 27/4/4
f 24/1/1 25/2/2 26/3/1
f 27/4/2 26/3/1 25/2/2
f 9/3/6 24/24/3 6/23/6
f 24/24/3 9/3/6 26/4/3
f 6/23/10 24/24/1 9/3/10
f 26/4/1 9/3/10 24/24/1
f 29/26/19 23/17/19 28/25/19
f 23/17/19 29/26/19 22/9/19
f 28/25/20 23/17/20 29/26/20
f 22/9/20 29/26/20 23/17/20
f 4/3/2 30/28/21 2/27/2
f 30/28/21 4/3/2 31/29/22
f 32/16/23 30/28/21 31/29/22
f 2/27/4 30/28/24 4/3/4
f 31/29/25 4/3/4 30/28/24
f 31/29/25 30/28/24 32/16/26
f 34/3/10 1/24/1 33/23/10
f 1/24/1 34/3/10 3/4/1
f 33/23/6 1/24/3 34/3/6
f 3/4/3 34/3/6 1/24/3
f 36/32/13 14/31/15 35/30/13
f 14/31/15 36/32/13 15/33/16
f 35/30/14 14/31/18 36/32/14
f 15/33/17 36/32/14 14/31/18
f 18/10/14 29/11/14 37/12/14
f 29/11/14 18/10/14 22/9/14
f 37/12/13 29/11/13 18/10/13
f 22/9/13 18/10/13 29/11/13
f 38/18/3 29/9/3 28/17/3
f 38/18/3 37/10/3 29/9/3
f 37/10/3 38/18/3 11/12/3
f 11/12/3 38/18/3 39/19/3
f 40/20/3 11/12/3 39/19/3
f 41/21/3 11/12/3 40/20/3
f 11/12/3 41/21/3 10/11/3
f 10/11/3 41/21/3 42/22/3
f 28/17/1 29/9/1 38/18/1
f 29/9/1 37/10/1 38/18/1
f 11/12/1 38/18/1 37/10/1
f 39/19/1 38/18/1 11/12/1
f 39/19/1 11/12/1 40/20/1
f 40/20/1 11/12/1 41/21/1
f 10/11/1 41/21/1 11/12/1
f 42/22/1 41/21/1 10/11/1
f 36/35/13 44/34/28 43/15/27
f 44/34/28 36/35/13 35/36/13
f 43/15/30 44/34/29 36/35/14
f 35/36/14 36/35/14 44/34/29
f 42/38/19 12/11/19 10/37/19
f 12/11/19 42/38/19 16/22/19
f 10/37/20 12/11/20 42/38/20
f 16/22/20 42/38/20 12/11/20
f 43/33/27 30/39/21 32/7/23
f 30/39/21 43/33/27 44/40/28
f 32/7/26 30/39/24 43/33/30
f 44/40/29 43/33/30 30/39/24
f 47/42/29 46/35/14 45/41/14
f 46/35/14 47/42/29 48/15/30
f 45/41/13 46/35/13 47/42/28
f 48/15/27 47/42/28 46/35/13
f 27/3/4 49/44/24 25/43/4
f 49/44/24 27/3/4 50/29/25
f 49/44/24 50/29/25 51/16/26
f 25/43/2 49/44/21 27/3/2
f 50/29/22 27/3/2 49/44/21
f 51/16/23 50/29/22 49/44/21
f 53/7/9 33/46/10 52/45/11
f 33/46/10 53/7/9 54/8/12
f 33/46/10 54/8/12 34/4/10
f 52/45/5 33/46/6 53/7/7
f 54/8/8 53/7/7 33/46/6
f 34/4/6 54/8/8 33/46/6
f 49/48/24 48/33/30 47/47/29
f 48/33/30 49/48/24 51/7/26
f 47/47/28 48/33/27 49/48/21
f 51/7/23 49/48/21 48/33/27
f 55/50/18 53/16/9 52/49/11
f 53/16/9 55/50/18 56/15/17
f 52/49/5 53/16/7 55/50/15
f 56/15/16 55/50/15 53/16/7
f 45/52/14 56/33/17 55/51/18
f 56/33/17 45/52/14 46/32/14
f 55/51/15 56/33/16 45/52/13
f 46/32/13 45/52/13 56/33/16
f 47/54/20 13/9/20 49/53/20
f 49/53/20 13/9/20 25/55/20
f 13/9/20 47/54/20 11/26/20
f 25/55/20 13/9/20 18/11/20
f 11/26/20 47/54/20 45/56/20
f 25/55/20 18/11/20 24/57/20
f 55/58/20 11/26/20 45/56/20
f 52/59/20 11/26/20 55/58/20
f 33/60/20 11/26/20 52/59/20
f 24/57/20 18/11/20 6/61/20
f 11/26/20 33/60/20 37/37/20
f 6/61/20 18/11/20 5/62/20
f 5/62/20 18/11/20 14/63/20
f 14/63/20 18/11/20 35/64/20
f 37/37/20 35/64/20 18/11/20
f 37/37/20 33/60/20 1/65/20
f 37/37/20 44/66/20 35/64/20
f 37/37/20 1/65/20 2/67/20
f 37/37/20 30/68/20 44/66/20
f 37/37/20 2/67/20 30/68/20
f 49/53/19 13/9/19 47/54/19
f 25/55/19 13/9/19 49/53/19
f 11/26/19 47/54/19 13/9/19
f 18/11/19 13/9/19 25/55/19
f 45/56/19 47/54/19 11/26/19
f 24/57/19 18/11/19 25/55/19
f 45/56/19 11/26/19 55/58/19
f 55/58/19 11/26/19 52/59/19
f 52/59/19 11/26/19 33/60/19
f 6/61/19 18/11/19 24/57/19
f 37/37/19 33/60/19 11/26/19
f 5/62/19 18/11/19 6/61/19
f 14/63/19 18/11/19 5/62/19
f 35/64/19 18/11/19 14/63/19
f 18/11/19 35/64/19 37/37/19
f 1/65/19 33/60/19 37/37/19
f 35/64/19 44/66/19 37/37/19
f 2/67/19 1/65/19 37/37/19
f 44/66/19 30/68/19 37/37/19
f 30/68/19 2/67/19 37/37/19

usemtl yellow

f 40/70/32 34/67/19 54/69/31
f 34/67/19 40/70/32 39/71/33
f 34/67/19 39/71/33 3/72/19
f 3/72/19 39/71/33 4/60/19
f 4/60/19 39/71/33 31/73/34
f 54/69/36 34/67/20 40/70/35
f 39/71/37 40/70/35 34/67/20
f 3/72/20 39/71/37 34/67/20
f 4/60/20 39/71/37 3/72/20
f 31/73/38 39/71/37 4/60/20
f 38/76/39 31/75/34 39/74/33
f 31/75/34 38/76/39 32/77/40
f 32/77/40 38/76/39 43/78/40
f 43/78/40 38/76/39 36/79/40
f 21/80/39 36/79/40 38/76/39
f 21/80/39 15/81/40 36/79/40
f 21/80/39 7/82/40 15/81/40
f 21/80/39 8/83/34 7/82/40
f 8/83/34 21/80/39 20/84/33
f 39/74/37 31/75/38 38/76/41
f 32/77/42 38/76/41 31/75/38
f 43/78/42 38/76/41 32/77/42
f 36/79/42 38/76/41 43/78/42
f 38/76/41 36/79/42 21/80/41
f 36/79/42 15/81/42 21/80/41
f 15/81/42 7/82/42 21/80/41
f 7/82/42 8/83/38 21/80/41
f 20/84/37 21/80/41 8/83/38
f 17/87/43 42/86/44 41/85/43
f 42/86/44 17/87/43 16/88/44
f 41/85/45 42/86/46 17/87/45
f 16/88/46 17/87/45 42/86/46
f 23/86/47 38/87/39 28/88/47
f 38/87/39 23/86/47 21/85/39
f 28/88/48 38/87/41 23/86/48
f 21/85/41 23/86/48 38/87/41
f 53/82/49 40/84/32 54/83/31
f 56/81/49 40/84/32 53/82/49
f 56/81/49 41/80/43 40/84/32
f 46/89/49 41/80/43 56/81/49
f 41/80/43 46/89/49 17/76/43
f 48/78/49 17/76/43 46/89/49
f 17/76/43 48/78/49 19/74/32
f 19/74/32 48/78/49 51/77/49
f 19/74/32 51/77/49 50/75/31
f 54/83/36 40/84/35 53/82/50
f 53/82/50 40/84/35 56/81/50
f 40/84/35 41/80/45 56/81/50
f 56/81/50 41/80/45 46/89/50
f 17/76/45 46/89/50 41/80/45
f 46/89/50 17/76/45 48/78/50
f 19/74/35 48/78/50 17/76/45
f 51/77/50 48/78/50 19/74/35
f 50/75/36 51/77/50 19/74/35
f 27/61/19 19/91/32 50/90/31
f 19/91/32 27/61/19 20/92/33
f 20/92/33 27/61/19 26/93/19
f 20/92/33 26/93/19 9/55/19
f 20/92/33 9/55/19 8/94/34
f 50/90/36 19/91/35 27/61/20
f 20/92/37 27/61/20 19/91/35
f 26/93/20 27/61/20 20/92/37
f 9/55/20 26/93/20 20/92/37
f 8/94/38 9/55/20 20/92/37

