# Created by Kenney (www.kenney.nl)

mtllib straight.mtl

g straight

v -0.35 0.5 -0.5
v -0.35 0.5 0.5
v -0.5 0.5 -0.5
v -0.5 0.5 0.5
v 0.5 0.5 -0.5
v 0.5 0 -0.5
v 0.5 0.5 0.5
v 0.5 0 0.5
v 0.35 0.5 0.5
v 0.2875 0.3125 0.5
v -0.5 0 0.5
v 0.1 0.25 0.5
v -0.1 0.25 0.5
v -0.2875 0.3125 0.5
v -0.5 0 -0.5
v -0.2875 0.3125 -0.5
v -0.1 0.25 -0.5
v 0.1 0.25 -0.5
v 0.2875 0.3125 -0.5
v 0.35 0.5 -0.5

vn 0 1 0
vn 0 -1 0
vn 1 0 0
vn -1 0 0
vn 0 0 1
vn 0 0 -1
vn -0.1601822 0.9870875 0
vn 0.1601822 0.9870875 0
vn -0.1601822 -0.9870875 0
vn 0.1601822 -0.9870875 0
vn 0.7071068 0.7071068 0
vn -0.7071068 -0.7071068 0
vn 0.9486833 0.3162278 0
vn -0.9486833 -0.3162278 0
vn -0.7071068 0.7071068 0
vn -0.9486833 0.3162278 0
vn 0.7071068 -0.7071068 0
vn 0.9486833 -0.3162278 0

vt 13.77953 -19.68504
vt 13.77953 19.68504
vt 19.68504 -19.68504
vt 19.68504 19.68504
vt 19.68504 0
vt -19.68504 19.68504
vt -19.68504 0
vt 11.3189 12.30315
vt 3.937008 9.84252
vt -3.937008 9.84252
vt -11.3189 12.30315
vt -13.77953 19.68504
vt -19.68504 -19.68504
vt -13.77953 -19.68504
vt -3.937008 -19.68504
vt -3.937008 19.68504
vt 3.937008 -19.68504
vt 3.937008 19.68504
vt 19.68504 6.847452
vt -19.68504 6.847452
vt 19.68504 14.62865
vt -19.68504 14.62865
vt 19.68504 23.03234
vt 19.68504 15.25114
vt -19.68504 23.03234
vt -19.68504 15.25114

usemtl green

f 3/3/1 2/2/1 1/1/1
f 2/2/1 3/3/1 4/4/1
f 1/1/2 2/2/2 3/3/2
f 4/4/2 3/3/2 2/2/2
f 7/6/3 6/5/3 5/4/3
f 6/5/3 7/6/3 8/7/3
f 5/4/4 6/5/4 7/6/4
f 8/7/4 7/6/4 6/5/4
f 10/8/5 7/4/5 9/2/5
f 10/8/5 8/5/5 7/4/5
f 8/5/5 10/8/5 11/7/5
f 11/7/5 10/8/5 12/9/5
f 13/10/5 11/7/5 12/9/5
f 14/11/5 11/7/5 13/10/5
f 11/7/5 14/11/5 4/6/5
f 4/6/5 14/11/5 2/12/5
f 9/2/6 7/4/6 10/8/6
f 7/4/6 8/5/6 10/8/6
f 11/7/6 10/8/6 8/5/6
f 12/9/6 10/8/6 11/7/6
f 12/9/6 11/7/6 13/10/6
f 13/10/6 11/7/6 14/11/6
f 4/6/6 14/11/6 11/7/6
f 2/12/6 14/11/6 4/6/6
f 11/5/4 3/6/4 15/7/4
f 3/6/4 11/5/4 4/4/4
f 15/7/3 3/6/3 11/5/3
f 4/4/3 11/5/3 3/6/3
f 11/6/2 6/3/2 8/4/2
f 6/3/2 11/6/2 15/13/2
f 8/4/1 6/3/1 11/6/1
f 15/13/1 11/6/1 6/3/1
f 16/8/6 3/4/6 1/2/6
f 16/8/6 15/5/6 3/4/6
f 15/5/6 16/8/6 6/7/6
f 6/7/6 16/8/6 17/9/6
f 18/10/6 6/7/6 17/9/6
f 19/11/6 6/7/6 18/10/6
f 6/7/6 19/11/6 5/6/6
f 5/6/6 19/11/6 20/12/6
f 1/2/5 3/4/5 16/8/5
f 3/4/5 15/5/5 16/8/5
f 6/7/5 16/8/5 15/5/5
f 17/9/5 16/8/5 6/7/5
f 17/9/5 6/7/5 18/10/5
f 18/10/5 6/7/5 19/11/5
f 5/6/5 19/11/5 6/7/5
f 20/12/5 19/11/5 5/6/5
f 20/14/1 7/6/1 5/13/1
f 7/6/1 20/14/1 9/12/1
f 5/13/2 7/6/2 20/14/2
f 9/12/2 20/14/2 7/6/2

usemtl yellow

f 17/17/8 12/16/7 18/15/7
f 12/16/7 17/17/8 13/18/8
f 18/15/10 12/16/10 17/17/9
f 13/18/9 17/17/9 12/16/10
f 16/21/11 13/20/8 17/19/8
f 13/20/8 16/21/11 14/22/11
f 17/19/9 13/20/9 16/21/12
f 14/22/12 16/21/12 13/20/9
f 2/25/13 16/24/11 1/23/13
f 16/24/11 2/25/13 14/26/11
f 1/23/14 16/24/12 2/25/14
f 14/26/12 2/25/14 16/24/12
f 10/24/15 20/25/16 19/26/15
f 20/25/16 10/24/15 9/23/16
f 19/26/17 20/25/18 10/24/17
f 9/23/18 10/24/17 20/25/18
f 18/20/7 10/21/15 19/22/15
f 10/21/15 18/20/7 12/19/7
f 19/22/17 10/21/17 18/20/10
f 12/19/10 18/20/10 10/21/17

