# Created by Kenney (www.kenney.nl)

mtllib straight_wide_hole.mtl

g straight_wide_hole

v -0.7 0.5 -0.5
v -0.7 0.5 0.5
v -0.85 0.5 -0.5
v -0.85 0.5 0.5
v -0.85 0 -0.5
v -0.85 0 0.5
v 0.7 0.5 0.5
v 0.85 0.5 0.5
v 0.575 0.3125 0.5
v 0.85 0 0.5
v 0.2 0.25 0.5
v -0.2 0.25 0.5
v -0.575 0.3125 0.5
v 0.85 0.5 -0.5
v 0.85 0 -0.5
v -0.575 0.3125 -0.5
v -0.2 0.25 -0.5
v 0.2 0.25 -0.5
v 0.575 0.3125 -0.5
v 0.7 0.5 -0.5
v 0.09567086 0 -0.2309699
v -3.609557E-16 0 -0.25
v 0.09567086 0.25 -0.2309699
v -3.609557E-16 0.25 -0.25
v -0.1767767 0.25 -0.1767767
v -0.1767767 0 -0.1767767
v -0.2 0.25 -0.1420206
v -0.2309699 0 -0.09567086
v -0.2309699 0.2551616 -0.09567086
v 0.09567086 0 0.2309699
v 0.1767767 0 0.1767767
v 0.09567086 0.25 0.2309699
v 0.1767767 0.25 0.1767767
v -0.25 0 -4.331469E-15
v -0.2309699 0 0.09567086
v -0.25 0.2583333 -1.443823E-15
v -0.2309699 0.2551616 0.09567086
v -0.09567086 0 -0.2309699
v -0.09567086 0.25 -0.2309699
v 0.1767767 0 -0.1767767
v 0.1767767 0.25 -0.1767767
v 0.2309699 0 -0.09567086
v 0.2 0.25 -0.1420206
v 0.2309699 0.2551616 -0.09567086
v -0.1767767 0 0.1767767
v -0.2 0.25 0.1420206
v -0.1767767 0.25 0.1767767
v 3.609557E-16 0 0.25
v 3.609557E-16 0.25 0.25
v 0.2309699 0 0.09567086
v 0.2309699 0.2551616 0.09567086
v 0.2 0.25 0.1420206
v -0.09567086 0 0.2309699
v -0.09567086 0.25 0.2309699
v 0.25 0 -4.331469E-15
v 0.25 0.2583333 -4.331469E-15

vn 0 1 0
vn 0 -1 0
vn -1 0 0
vn 1 0 0
vn 0 0 1
vn 0 0 -1
vn -0.3826834 0 0.9238795
vn 0.3826834 0 -0.9238795
vn 0.7071068 0 0.7071068
vn 0.8314696 0 0.5555702
vn 0.9238795 0 0.3826834
vn 0.9269329 0 0.3752271
vn -0.8314696 0 -0.5555702
vn -0.7071068 0 -0.7071068
vn -0.9238795 0 -0.3826834
vn -0.9269329 0 -0.3752271
vn -0.3826834 0 -0.9238795
vn 0.3826834 0 0.9238795
vn 0.9238795 0 -0.3826834
vn 0.9269329 0 -0.3752271
vn -0.9238795 0 0.3826834
vn -0.9269329 0 0.3752271
vn -0.7071068 0 0.7071068
vn 0.7071068 0 -0.7071068
vn -0.8314696 0 0.5555702
vn 0.8314696 0 -0.5555702
vn -0.5429711 0.8397514 0
vn -0.8320503 0.5547002 0
vn 0.5429711 -0.8397514 0
vn 0.8320503 -0.5547002 0
vn -0.1337899 0.9910097 0
vn -0.08248053 0.9965927 0
vn 0.08248053 0.9965927 0
vn 0.1337899 0.9910097 0
vn 0.08248053 -0.9965927 0
vn 0.1337899 -0.9910097 0
vn -0.08248053 -0.9965927 0
vn -0.1337899 -0.9910097 0
vn 0.8320503 0.5547002 0
vn 0.5429711 0.8397514 0
vn -0.8320503 -0.5547002 0
vn -0.5429711 -0.8397514 0
vn -0.164399 0.986394 0
vn 0.164399 -0.986394 0
vn 0.164399 0.986394 0
vn -0.164399 -0.986394 0

vt 27.55906 -19.68504
vt 27.55906 19.68504
vt 33.46457 -19.68504
vt 33.46457 19.68504
vt -19.68504 0
vt -19.68504 19.68504
vt 19.68504 0
vt 19.68504 19.68504
vt 22.63779 12.30315
vt 33.46457 0
vt -33.46457 0
vt 7.874016 9.84252
vt -7.874016 9.84252
vt -22.63779 12.30315
vt -33.46457 19.68504
vt -27.55906 19.68504
vt -33.46457 -19.68504
vt -27.55906 -19.68504
vt 1.92018 0
vt -1.92018 0
vt 1.92018 9.84252
vt -1.92018 9.84252
vt 1.92018 -2.317334E-14
vt 0.2744778 9.84252
vt -1.92018 -2.317334E-14
vt -1.92018 10.04573
vt 1.92018 -1.213854E-14
vt -1.92018 -1.213854E-14
vt 1.92018 10.1706
vt 1.92018 -3.962575E-18
vt -1.92018 -3.962575E-18
vt 1.92018 -3.337944E-19
vt -1.92018 -3.337944E-19
vt -1.92018 -1.314653E-15
vt 1.92018 -1.314653E-15
vt -0.2744778 9.84252
vt 1.92018 10.04573
vt 1.92018 3.524747E-14
vt -1.92018 3.524747E-14
vt 1.92018 -1.482946E-14
vt -1.92018 -1.482946E-14
vt -1.92018 10.1706
vt -1.92018 1.488955E-14
vt 1.92018 1.488955E-14
vt -1.92018 5.447912E-14
vt 1.92018 5.447912E-14
vt -1.92018 -1.975232E-14
vt 1.92018 -1.975232E-14
vt 9.093303 3.766569
vt 6.959713 6.959713
vt 9.84252 -1.705303E-13
vt 9.093303 -3.766569
vt 6.959713 -6.959713
vt 3.766569 -9.093303
vt 3.766569 9.093303
vt -1.421085E-14 -9.84252
vt 1.421085E-14 9.84252
vt -3.766569 -9.093303
vt -3.766569 9.093303
vt -6.959713 -6.959713
vt -9.093303 -3.766569
vt -9.84252 -1.705303E-13
vt -6.959713 6.959713
vt -9.093303 3.766569
vt -19.68504 22.79403
vt -19.68504 31.66596
vt 19.68504 22.79403
vt 19.68504 31.66596
vt -7.874016 5.591361
vt -7.874016 19.68504
vt 7.874016 19.68504
vt -1.075773E-14 9.84252
vt 7.874016 5.591361
vt -19.68504 24.35241
vt 19.68504 24.35241
vt -19.68504 9.384981
vt -1.657568E-13 11.38064
vt 19.68504 9.384981
vt -3.766569 10.62109
vt -5.591361 9.384981
vt 3.766569 10.62109
vt 5.591361 9.384981
vt 5.113234E-14 11.38064
vt -7.874016 -5.591361
vt -7.874016 -19.68504
vt 7.874016 -19.68504
vt 6.657702E-15 -9.84252
vt 7.874016 -5.591361

usemtl green

f 3/3/1 2/2/1 1/1/1
f 2/2/1 3/3/1 4/4/1
f 1/1/2 2/2/2 3/3/2
f 4/4/2 3/3/2 2/2/2
f 6/7/3 3/6/3 5/5/3
f 3/6/3 6/7/3 4/8/3
f 5/5/4 3/6/4 6/7/4
f 4/8/4 6/7/4 3/6/4
f 9/9/5 8/4/5 7/2/5
f 9/9/5 10/10/5 8/4/5
f 10/10/5 9/9/5 6/11/5
f 6/11/5 9/9/5 11/12/5
f 12/13/5 6/11/5 11/12/5
f 13/14/5 6/11/5 12/13/5
f 6/11/5 13/14/5 4/15/5
f 4/15/5 13/14/5 2/16/5
f 7/2/6 8/4/6 9/9/6
f 8/4/6 10/10/6 9/9/6
f 6/11/6 9/9/6 10/10/6
f 11/12/6 9/9/6 6/11/6
f 11/12/6 6/11/6 12/13/6
f 12/13/6 6/11/6 13/14/6
f 4/15/6 13/14/6 6/11/6
f 2/16/6 13/14/6 4/15/6
f 8/6/4 15/7/4 14/8/4
f 15/7/4 8/6/4 10/5/4
f 14/8/3 15/7/3 8/6/3
f 10/5/3 8/6/3 15/7/3
f 16/9/6 3/4/6 1/2/6
f 16/9/6 5/10/6 3/4/6
f 5/10/6 16/9/6 15/11/6
f 15/11/6 16/9/6 17/12/6
f 18/13/6 15/11/6 17/12/6
f 19/14/6 15/11/6 18/13/6
f 15/11/6 19/14/6 14/15/6
f 14/15/6 19/14/6 20/16/6
f 1/2/5 3/4/5 16/9/5
f 3/4/5 5/10/5 16/9/5
f 15/11/5 16/9/5 5/10/5
f 17/12/5 16/9/5 15/11/5
f 17/12/5 15/11/5 18/13/5
f 18/13/5 15/11/5 19/14/5
f 14/15/5 19/14/5 15/11/5
f 20/16/5 19/14/5 14/15/5
f 20/18/1 8/15/1 14/17/1
f 8/15/1 20/18/1 7/16/1
f 14/17/2 8/15/2 20/18/2
f 7/16/2 20/18/2 8/15/2
f 23/21/7 22/20/5 21/19/7
f 22/20/5 23/21/7 24/22/5
f 21/19/8 22/20/6 23/21/8
f 24/22/6 23/21/8 22/20/6
f 27/24/10 26/23/9 25/21/9
f 26/23/9 27/24/10 28/25/11
f 28/25/11 27/24/10 29/26/12
f 25/21/14 26/23/14 27/24/13
f 28/25/15 27/24/13 26/23/14
f 29/26/16 27/24/13 28/25/15
f 32/21/17 31/20/14 30/19/17
f 31/20/14 32/21/17 33/22/14
f 30/19/18 31/20/9 32/21/18
f 33/22/9 32/21/18 31/20/9
f 36/29/4 35/28/19 34/27/4
f 35/28/19 36/29/4 37/26/20
f 34/27/3 35/28/21 36/29/3
f 37/26/22 36/29/3 35/28/21
f 24/21/5 38/31/18 22/30/5
f 38/31/18 24/21/5 39/22/18
f 22/30/6 38/31/17 24/21/6
f 39/22/17 24/21/6 38/31/17
f 41/21/23 21/33/7 40/32/23
f 21/33/7 41/21/23 23/22/7
f 40/32/24 21/33/8 41/21/24
f 23/22/8 41/21/24 21/33/8
f 42/35/21 41/22/23 40/34/23
f 41/22/23 42/35/21 43/36/25
f 43/36/25 42/35/21 44/37/22
f 40/34/24 41/22/24 42/35/19
f 43/36/26 42/35/19 41/22/24
f 44/37/20 42/35/19 43/36/26
f 37/37/20 45/39/24 35/38/19
f 45/39/24 37/37/20 46/36/26
f 45/39/24 46/36/26 47/22/24
f 35/38/21 45/39/23 37/37/22
f 46/36/25 37/37/22 45/39/23
f 47/22/23 46/36/25 45/39/23
f 49/21/6 30/31/17 48/30/6
f 30/31/17 49/21/6 32/22/17
f 48/30/5 30/31/18 49/21/5
f 32/22/18 49/21/5 30/31/18
f 29/37/12 34/41/4 28/40/11
f 34/41/4 29/37/12 36/42/4
f 28/40/15 34/41/3 29/37/16
f 36/42/3 29/37/16 34/41/3
f 31/44/14 51/26/16 50/43/15
f 51/26/16 31/44/14 52/24/13
f 52/24/13 31/44/14 33/21/14
f 50/43/11 51/26/12 31/44/9
f 52/24/10 31/44/9 51/26/12
f 33/21/9 31/44/9 52/24/10
f 47/21/24 53/20/8 45/19/24
f 53/20/8 47/21/24 54/22/8
f 45/19/23 53/20/7 47/21/23
f 54/22/7 47/21/23 53/20/7
f 39/21/18 26/20/9 38/19/18
f 26/20/9 39/21/18 25/22/9
f 38/19/17 26/20/14 39/21/17
f 25/22/14 39/21/17 26/20/14
f 54/21/8 48/20/6 53/19/8
f 48/20/6 54/21/8 49/22/6
f 53/19/7 48/20/5 54/21/7
f 49/22/5 54/21/7 48/20/5
f 55/46/3 44/26/22 42/45/21
f 44/26/22 55/46/3 56/29/3
f 42/45/19 44/26/20 55/46/4
f 56/29/4 55/46/4 44/26/20
f 50/48/15 56/42/3 55/47/3
f 56/42/3 50/48/15 51/37/16
f 55/47/4 56/42/4 50/48/11
f 51/37/12 50/48/11 56/42/4
f 15/3/2 31/50/2 50/49/2
f 15/3/2 50/49/2 55/51/2
f 42/52/2 15/3/2 55/51/2
f 40/53/2 15/3/2 42/52/2
f 21/54/2 15/3/2 40/53/2
f 10/4/2 31/50/2 15/3/2
f 31/50/2 10/4/2 30/55/2
f 15/3/2 21/54/2 5/17/2
f 30/55/2 10/4/2 6/15/2
f 5/17/2 21/54/2 22/56/2
f 30/55/2 6/15/2 48/57/2
f 5/17/2 22/56/2 38/58/2
f 48/57/2 6/15/2 53/59/2
f 5/17/2 38/58/2 26/60/2
f 5/17/2 26/60/2 28/61/2
f 5/17/2 28/61/2 34/62/2
f 5/17/2 34/62/2 6/15/2
f 53/59/2 6/15/2 45/63/2
f 35/64/2 6/15/2 34/62/2
f 45/63/2 6/15/2 35/64/2
f 50/49/1 31/50/1 15/3/1
f 55/51/1 50/49/1 15/3/1
f 55/51/1 15/3/1 42/52/1
f 42/52/1 15/3/1 40/53/1
f 40/53/1 15/3/1 21/54/1
f 15/3/1 31/50/1 10/4/1
f 30/55/1 10/4/1 31/50/1
f 5/17/1 21/54/1 15/3/1
f 6/15/1 10/4/1 30/55/1
f 22/56/1 21/54/1 5/17/1
f 48/57/1 6/15/1 30/55/1
f 38/58/1 22/56/1 5/17/1
f 53/59/1 6/15/1 48/57/1
f 26/60/1 38/58/1 5/17/1
f 28/61/1 26/60/1 5/17/1
f 34/62/1 28/61/1 5/17/1
f 6/15/1 34/62/1 5/17/1
f 45/63/1 6/15/1 53/59/1
f 34/62/1 6/15/1 35/64/1
f 35/64/1 6/15/1 45/63/1

usemtl yellow

f 9/67/27 20/66/28 19/65/27
f 20/66/28 9/67/27 7/68/28
f 19/65/29 20/66/30 9/67/29
f 7/68/30 9/67/29 20/66/30
f 33/63/1 11/70/32 52/69/31
f 11/70/32 33/63/1 12/71/33
f 12/71/33 33/63/1 32/59/1
f 12/71/33 32/59/1 49/72/1
f 12/71/33 49/72/1 54/55/1
f 12/71/33 54/55/1 47/50/1
f 12/71/33 47/50/1 46/73/34
f 52/69/36 11/70/35 33/63/2
f 12/71/37 33/63/2 11/70/35
f 32/59/2 33/63/2 12/71/37
f 49/72/2 32/59/2 12/71/37
f 54/55/2 49/72/2 12/71/37
f 47/50/2 54/55/2 12/71/37
f 46/73/38 47/50/2 12/71/37
f 2/66/39 16/67/40 1/68/39
f 16/67/40 2/66/39 13/65/40
f 1/68/41 16/67/42 2/66/41
f 13/65/42 2/66/41 16/67/42
f 18/76/32 9/75/27 19/74/27
f 9/75/27 18/76/32 56/77/43
f 56/77/43 11/78/32 9/75/27
f 56/77/43 18/76/32 44/79/43
f 44/79/43 18/76/32 43/80/31
f 11/78/32 56/77/43 51/81/43
f 11/78/32 51/81/43 52/82/31
f 19/74/29 9/75/29 18/76/35
f 56/77/44 18/76/35 9/75/29
f 9/75/29 11/78/35 56/77/44
f 44/79/44 18/76/35 56/77/44
f 43/80/36 18/76/35 44/79/44
f 51/81/44 56/77/44 11/78/35
f 52/82/36 51/81/44 11/78/35
f 17/78/33 29/81/45 27/82/34
f 29/81/45 17/78/33 16/75/40
f 29/81/45 16/75/40 36/83/45
f 13/74/40 36/83/45 16/75/40
f 13/74/40 37/79/45 36/83/45
f 12/76/33 37/79/45 13/74/40
f 37/79/45 12/76/33 46/80/34
f 27/82/38 29/81/46 17/78/37
f 16/75/42 17/78/37 29/81/46
f 36/83/46 16/75/42 29/81/46
f 16/75/42 36/83/46 13/74/42
f 36/83/46 37/79/46 13/74/42
f 13/74/42 37/79/46 12/76/37
f 46/80/38 12/76/37 37/79/46
f 18/85/32 41/60/1 43/84/31
f 41/60/1 18/85/32 17/86/33
f 41/60/1 17/86/33 23/58/1
f 23/58/1 17/86/33 24/87/1
f 24/87/1 17/86/33 39/54/1
f 39/54/1 17/86/33 25/53/1
f 25/53/1 17/86/33 27/88/34
f 43/84/36 41/60/2 18/85/35
f 17/86/37 18/85/35 41/60/2
f 23/58/2 17/86/37 41/60/2
f 24/87/2 17/86/37 23/58/2
f 39/54/2 17/86/37 24/87/2
f 25/53/2 17/86/37 39/54/2
f 27/88/38 17/86/37 25/53/2

