# Created by Kenney (www.kenney.nl)

mtllib straight_wide.mtl

g straight_wide

v -0.7 0.5 -0.5
v -0.85 0.5 -0.5
v -0.575 0.3125 -0.5
v -0.85 0 -0.5
v 0.85 0 -0.5
v -0.2 0.25 -0.5
v 0.2 0.25 -0.5
v 0.575 0.3125 -0.5
v 0.85 0.5 -0.5
v 0.7 0.5 -0.5
v 0.7 0.5 0.5
v 0.85 0.5 0.5
v 0.575 0.3125 0.5
v 0.85 0 0.5
v -0.85 0 0.5
v 0.2 0.25 0.5
v -0.2 0.25 0.5
v -0.575 0.3125 0.5
v -0.85 0.5 0.5
v -0.7 0.5 0.5

vn 0 0 -1
vn 0 0 1
vn 0 -1 0
vn 0 1 0
vn 1 0 0
vn -1 0 0
vn -0.5429711 0.8397514 0
vn -0.8320503 0.5547002 0
vn 0.5429711 -0.8397514 0
vn 0.8320503 -0.5547002 0
vn -0.08248053 0.9965927 0
vn 0.08248053 -0.9965927 0
vn 0.08248053 0.9965927 0
vn -0.08248053 -0.9965927 0
vn 0.5429711 0.8397514 0
vn -0.5429711 -0.8397514 0
vn 0.8320503 0.5547002 0
vn -0.8320503 -0.5547002 0

vt 27.55906 19.68504
vt 33.46457 19.68504
vt 22.63779 12.30315
vt 33.46457 0
vt -33.46457 0
vt 7.874016 9.84252
vt -7.874016 9.84252
vt -22.63779 12.30315
vt -33.46457 19.68504
vt -27.55906 19.68504
vt 33.46457 -19.68504
vt -33.46457 -19.68504
vt 19.68504 19.68504
vt 19.68504 0
vt -19.68504 19.68504
vt -19.68504 0
vt -27.55906 -19.68504
vt 27.55906 -19.68504
vt -19.68504 22.79403
vt -19.68504 31.66596
vt 19.68504 22.79403
vt 19.68504 31.66596
vt -19.68504 24.35241
vt 19.68504 24.35241
vt -19.68504 9.384981
vt 19.68504 9.384981
vt -7.874016 -19.68504
vt -7.874016 19.68504
vt 7.874016 -19.68504
vt 7.874016 19.68504

usemtl green

f 3/3/1 2/2/1 1/1/1
f 3/3/1 4/4/1 2/2/1
f 4/4/1 3/3/1 5/5/1
f 5/5/1 3/3/1 6/6/1
f 7/7/1 5/5/1 6/6/1
f 8/8/1 5/5/1 7/7/1
f 5/5/1 8/8/1 9/9/1
f 9/9/1 8/8/1 10/10/1
f 1/1/2 2/2/2 3/3/2
f 2/2/2 4/4/2 3/3/2
f 5/5/2 3/3/2 4/4/2
f 6/6/2 3/3/2 5/5/2
f 6/6/2 5/5/2 7/7/2
f 7/7/2 5/5/2 8/8/2
f 9/9/2 8/8/2 5/5/2
f 10/10/2 8/8/2 9/9/2
f 13/3/2 12/2/2 11/1/2
f 13/3/2 14/4/2 12/2/2
f 14/4/2 13/3/2 15/5/2
f 15/5/2 13/3/2 16/6/2
f 17/7/2 15/5/2 16/6/2
f 18/8/2 15/5/2 17/7/2
f 15/5/2 18/8/2 19/9/2
f 19/9/2 18/8/2 20/10/2
f 11/1/1 12/2/1 13/3/1
f 12/2/1 14/4/1 13/3/1
f 15/5/1 13/3/1 14/4/1
f 16/6/1 13/3/1 15/5/1
f 16/6/1 15/5/1 17/7/1
f 17/7/1 15/5/1 18/8/1
f 19/9/1 18/8/1 15/5/1
f 20/10/1 18/8/1 19/9/1
f 15/9/3 5/11/3 14/2/3
f 5/11/3 15/9/3 4/12/3
f 14/2/4 5/11/4 15/9/4
f 4/12/4 15/9/4 5/11/4
f 12/15/5 5/14/5 9/13/5
f 5/14/5 12/15/5 14/16/5
f 9/13/6 5/14/6 12/15/6
f 14/16/6 12/15/6 5/14/6
f 10/17/4 12/9/4 9/12/4
f 12/9/4 10/17/4 11/10/4
f 9/12/3 12/9/3 10/17/3
f 11/10/3 10/17/3 12/9/3
f 2/11/4 20/1/4 1/18/4
f 20/1/4 2/11/4 19/2/4
f 1/18/3 20/1/3 2/11/3
f 19/2/3 2/11/3 20/1/3
f 15/14/6 2/15/6 4/16/6
f 2/15/6 15/14/6 19/13/6
f 4/16/5 2/15/5 15/14/5
f 19/13/5 15/14/5 2/15/5

usemtl yellow

f 13/21/7 10/20/8 8/19/7
f 10/20/8 13/21/7 11/22/8
f 8/19/9 10/20/10 13/21/9
f 11/22/10 13/21/9 10/20/10
f 7/25/11 13/24/7 8/23/7
f 13/24/7 7/25/11 16/26/11
f 8/23/9 13/24/9 7/25/12
f 16/26/12 7/25/12 13/24/9
f 6/29/13 16/28/11 7/27/11
f 16/28/11 6/29/13 17/30/13
f 7/27/12 16/28/12 6/29/14
f 17/30/14 6/29/14 16/28/12
f 3/24/15 17/25/13 6/26/13
f 17/25/13 3/24/15 18/23/15
f 6/26/14 17/25/14 3/24/16
f 18/23/16 3/24/16 17/25/14
f 20/20/17 3/21/15 1/22/17
f 3/21/15 20/20/17 18/19/15
f 1/22/18 3/21/16 20/20/18
f 18/19/16 20/20/18 3/21/16

