# Created by Kenney (www.kenney.nl)

mtllib split_right.mtl

g split_right

v -1 3.205931E-31 -1
v -0.06814834 1.602965E-31 0.6140144
v -0.1998008 1.602965E-31 0.3859856
v 0.8637033 0.5 0.2280288
v 0.8637033 1.602965E-31 0.2280288
v 1 0.5 0.736695
v 1 1.602965E-31 0.736695
v 1 0.5 -0.15
v 1 0.5 1.313879E-13
v 0.4662951 0.5 -0.15
v 0.7320508 0.5 1.169496E-13
v 0.4803684 0.5 -0.1359267
v 0.7239256 0.5 0.2859267
v 0.85 0.5 0.7564428
v 0.85 0.5 1
v 1 0.5 1
v 1 0 1
v -8.22979E-14 0 1
v 0.7320508 0 1.169496E-13
v -7.941025E-14 1.602965E-31 0.8683475
v 1 0 1.313879E-13
v 1 0 -1
v -0.3859856 3.205931E-31 0.1998008
v -0.6140144 3.205931E-31 0.06814834
v -0.8683475 3.205931E-31 -2.454499E-14
v -1 3.205931E-31 -1.299441E-14
v -0.1998008 0.5 0.3859856
v -0.3859856 0.5 0.1998008
v -0.06814834 0.5 0.6140144
v 0.7875 0.3125 1
v 0.6 0.25 1
v 0.4 0.25 1
v 0.2125 0.3125 1
v -8.22979E-14 0.5 1
v 0.15 0.5 1
v 1 0.5 -1
v 1 0.5 -0.85
v 1 0.3125 -0.7875
v 1 0.25 -0.6
v 1 0.25 -0.4
v 1 0.3125 -0.2125
v -1 0.5 -1
v -7.941025E-14 0.5 0.8683475
v -1 0.5 -0.85
v -1 0.3125 -0.7875
v -1 0.25 -0.6
v -1 0.25 -0.4
v -1 0.3125 -0.2125
v -1 0.5 -0.15
v -1 0.5 -1.299441E-14
v -0.8683475 0.5 -2.454499E-14
v -0.8485997 0.5 -0.15
v -0.6140144 0.5 0.06814834
v -0.5561166 0.5 -0.07162941
v -0.2938834 0.5 0.07977097
v -0.07977097 0.5 0.2938834
v 0.07162941 0.5 0.5561166
v 0.15 0.5 0.8485997
v 0.02324413 0.2721608 -0.3335177
v -0.01757695 0.25 -0.2803186
v -0.2248711 0.25 -0.4
v 0.430356 0.3125 -0.09755076
v 0.6656848 0.3125 0.3100508
v -0.1403798 0.25 -0.1202788
v -0.2555075 0.3125 0.02975852
v -0.4596201 0.25 -0.3045923
v -0.5319925 0.3125 -0.1298701
v -0.02975852 0.3125 0.2555075
v 0.7875 0.3125 0.7646711
v 0.1202788 0.25 0.1403798
v 0.4 0.25 0.8156865
v 0.2125 0.3125 0.8403714
v -0.8156865 0.25 -0.4
v -0.8403714 0.3125 -0.2125
v 0.2803186 0.25 0.01757695
v 0.3154067 0.3125 -0.2125
v 0.3045923 0.25 0.4596201
v 0.1298701 0.3125 0.5319925
v 0.2284271 0.25 -0.6
v 0.4909627 0.25 0.382423
v 0.6 0.25 0.789356

vn 0 1 0
vn 0.9238795 0 -0.3826834
vn 0.9914449 0 -0.1305262
vn -0.9914449 0 0.1305262
vn -0.9238795 0 0.3826834
vn 0 -1 0
vn -0.7933533 0 0.6087614
vn -0.6087614 0 0.7933533
vn 0.7933533 0 -0.6087614
vn 0.6087614 0 -0.7933533
vn 1 0 0
vn -1 0 0
vn 0 0 1
vn 0 0 -1
vn 0.8660254 0 -0.5
vn -0.8660254 0 0.5
vn -0.1305262 0 0.9914449
vn 0.1305262 0 -0.9914449
vn -0.3826834 0 0.9238795
vn 0.3826834 0 -0.9238795
vn -0.1984461 0.9494509 0.243233
vn -0.1045648 0.9851377 0.1362715
vn -0.006928394 0.9999743 -0.001856458
vn 0.006928394 -0.9999743 0.001856458
vn 0.1045648 -0.9851377 -0.1362715
vn 0.1984461 -0.9494509 -0.243233
vn 0 0.7071068 0.7071068
vn 0 0.3162278 0.9486833
vn 0 -0.3162278 -0.9486833
vn 0 -0.7071068 -0.7071068
vn -0.7519897 0.3186804 0.577022
vn -0.8757104 0.3186804 0.3627311
vn -0.5736365 0.6907925 0.4401667
vn -0.6680139 0.6907926 0.2767004
vn 0.5736365 -0.6907925 -0.4401667
vn 0.8757104 -0.3186804 -0.3627311
vn 0.7519897 -0.3186804 -0.577022
vn 0.6680139 -0.6907926 -0.2767004
vn 0.08885183 0.9892913 -0.115794
vn 0.4173518 0.7280018 -0.5439035
vn 0.0558546 0.9892913 -0.1348449
vn 0.2623583 0.7280018 -0.6333889
vn -0.0558546 -0.9892913 0.1348449
vn -0.4173518 -0.7280018 0.5439035
vn -0.08885183 -0.9892913 0.115794
vn -0.2623583 -0.7280018 0.6333889
vn 0.5439035 0.7280018 -0.4173518
vn 0.577022 0.3186804 -0.7519897
vn 0.7519897 0.3186804 -0.577022
vn -0.577022 -0.3186804 0.7519897
vn -0.5439035 -0.7280018 0.4173518
vn -0.7519897 -0.3186804 0.577022
vn -0.9397532 0.3186805 0.1237208
vn -0.9486833 0.3162278 0
vn -0.7168672 0.6907926 0.09437736
vn -0.7071068 0.7071068 0
vn 0.7168672 -0.6907926 -0.09437736
vn 0.9486833 -0.3162278 0
vn 0.9397532 -0.3186805 -0.1237208
vn 0.7071068 -0.7071068 0
vn 0.115794 0.9892913 -0.08885183
vn -0.115794 -0.9892913 0.08885183
vn 0.1447064 0.9892913 -0.01905096
vn 0.1601822 0.9870875 0
vn 0.6797101 0.7280018 -0.08948553
vn 0.7071068 0.7071068 0
vn -0.6797101 -0.7280018 0.08948553
vn -0.1601822 -0.9870875 0
vn -0.1447064 -0.9892913 0.01905096
vn -0.7071068 -0.7071068 0
vn 0.01905096 0.9892913 -0.1447064
vn 0.08948553 0.7280018 -0.6797101
vn -0.01905096 -0.9892913 0.1447064
vn -0.08948553 -0.7280018 0.6797101
vn 0 0.7071068 -0.7071068
vn 0 0.3162278 -0.9486833
vn 0.1237209 0.3186804 -0.9397532
vn 0 -0.3162278 0.9486833
vn 0 -0.7071068 0.7071068
vn -0.1237209 -0.3186804 0.9397532
vn -0.1362715 0.9851377 0.1045648
vn -0.3648326 0.856618 0.3648326
vn 0.3648326 -0.856618 -0.3648326
vn 0.1362715 -0.9851377 -0.1045648
vn -0.6708204 0.3162277 0.6708204
vn 0.6708204 -0.3162277 -0.6708204
vn 0.1348449 0.9892913 -0.0558546
vn 0.633389 0.7280018 -0.2623583
vn -0.633389 -0.7280018 0.2623583
vn -0.1348449 -0.9892913 0.0558546
vn 0.8757104 0.3186804 -0.3627311
vn 0.9397532 0.3186805 -0.1237208
vn -0.8757104 -0.3186804 0.3627311
vn -0.9397532 -0.3186805 0.1237208
vn 0 0.9870875 -0.1601822
vn 0 0.9486833 -0.3162278
vn 0 0.856618 -0.5159512
vn 0 -0.9870875 0.1601822
vn 0 -0.9486833 0.3162278
vn 0 -0.856618 0.5159512
vn 0.3627311 0.3186804 -0.8757104
vn -0.3627311 -0.3186804 0.8757104
vn 0 0.9870875 0.1601822
vn 0 -0.9870875 -0.1601822
vn -0.1586915 0.9851377 0.06573217
vn 0.1586915 -0.9851377 -0.06573217
vn -0.170297 0.9851377 0.02242002
vn -0.1601822 0.9870875 0
vn 0.170297 -0.9851377 -0.02242002
vn 0.1601822 -0.9870875 0
vn 0.9486833 0.3162278 0
vn -0.9486833 -0.3162278 0

vt -39.37008 -39.37008
vt -2.683006 24.1738
vt -7.866175 15.19628
vt -17.47251 19.68504
vt -17.47251 6.310887E-30
vt -38.20519 19.68504
vt -38.20519 6.310887E-30
vt -39.37008 -5.905512
vt -39.37008 5.172751E-12
vt -18.35807 -5.905512
vt -28.8209 4.604317E-12
vt -18.91214 -5.351443
vt -28.50101 11.25696
vt -33.46457 29.78122
vt -34.00407 8.977512
vt -33.46457 39.37008
vt -39.37008 39.37008
vt -39.37008 29.00374
vt 39.37008 29.00374
vt 34.00407 8.977512
vt 39.37008 39.37008
vt -3.240075E-12 39.37008
vt 28.8209 4.604317E-12
vt -3.126388E-12 34.18691
vt 39.37008 5.172751E-12
vt 39.37008 -39.37008
vt -15.19628 7.866175
vt -24.1738 2.683006
vt -34.18691 -9.663381E-13
vt -39.37008 -5.115908E-13
vt 5.183169 6.310887E-30
vt -5.183169 1.262177E-29
vt 5.183169 19.68504
vt -5.183169 19.68504
vt -29.00374 19.68504
vt -29.00374 6.310887E-30
vt -39.37008 19.68504
vt -39.37008 0
vt 9.22728 6.310887E-30
vt 9.22728 19.68504
vt 19.59362 6.310887E-30
vt 19.59362 19.68504
vt 39.37008 0
vt 28.8209 0
vt 39.37008 19.68504
vt 28.8209 19.68504
vt 33.46457 19.68504
vt 31.00394 12.30315
vt 39.37008 -2.912351E-14
vt -4.153494E-14 -2.912351E-14
vt 23.62205 9.84252
vt 15.74803 9.84252
vt 8.366141 12.30315
vt -4.153494E-14 19.68504
vt 5.905512 19.68504
vt -3.126051E-12 0
vt -3.126051E-12 19.68504
vt -14.41045 19.68504
vt -14.41045 0
vt -24.77679 19.68504
vt -24.77679 6.310887E-30
vt -39.37008 5.27138E-28
vt 39.37008 5.397597E-28
vt 34.18691 6.310887E-30
vt 34.18691 19.68504
vt -33.46457 19.68504
vt -31.00394 12.30315
vt -39.37008 1.985321E-28
vt -7.902813E-13 1.985321E-28
vt -23.62205 9.84252
vt -15.74803 9.84252
vt -8.366141 12.30315
vt -5.905512 19.68504
vt -7.902813E-13 19.68504
vt -34.18691 1.262177E-29
vt -39.37008 1.262177E-29
vt -34.18691 19.68504
vt 22.65568 6.310887E-30
vt 22.65568 19.68504
vt 33.02202 6.310887E-30
vt 33.02202 19.68504
vt -39.37008 -33.46457
vt 39.37008 -33.46457
vt 39.37008 -5.115908E-13
vt 39.37008 -5.905512
vt 34.18691 -9.663381E-13
vt 33.40944 -5.905512
vt 24.1738 2.683006
vt 21.89435 -2.820055
vt 15.19628 7.866175
vt 11.57021 3.140589
vt 7.866175 15.19628
vt 3.140589 11.57021
vt 2.683006 24.1738
vt 3.126388E-12 34.18691
vt -2.820055 21.89435
vt 3.240075E-12 39.37008
vt -5.905512 39.37008
vt -5.905512 33.40944
vt -9.22728 1.262177E-29
vt -19.59362 1.262177E-29
vt -9.22728 19.68504
vt -19.59362 19.68504
vt -22.65568 1.262177E-29
vt -33.02202 1.262177E-29
vt -22.65568 19.68504
vt -33.02202 19.68504
vt -5.772789 14.61036
vt -6.117378 11.85137
vt -15.54111 11.85137
vt 39.37008 21.4761
vt -39.37008 21.4761
vt 39.37008 29.25729
vt -39.37008 29.25729
vt 4.821586 24.70031
vt 23.99931 24.70031
vt 5.145534 16.91912
vt 23.67536 16.91912
vt 7.154012 1.843536
vt 8.125856 9.624731
vt 21.66689 1.843536
vt 20.69504 9.624731
vt 6.284593 14.18311
vt -6.284593 14.18311
vt 5.960645 21.9643
vt -5.960645 21.9643
vt 29.78122 29.25729
vt 30.10516 21.4761
vt -7.256437 3.643351
vt -6.284593 11.42455
vt 7.256437 3.643351
vt 6.284593 11.42455
vt -32.11364 -11.82742
vt -39.37008 -11.82742
vt -33.08549 -4.046221
vt -39.37008 -4.046221
vt 20.58241 -3.433255
vt 21.55426 4.34794
vt 35.09529 -3.433255
vt 34.12344 4.34794
vt 39.37008 9.026186
vt 33.08549 9.026186
vt 39.37008 16.80738
vt 33.40944 16.80738
vt 9.264915 17.83275
vt 8.293071 10.05155
vt 2.864805 17.83275
vt -8.63766 12.81055
vt -8.293071 10.05155
vt 2.864805 16.31918
vt 8.805291 24.10037
vt 9.264915 16.31918
vt 9.588863 24.10037
vt -21.66689 1.843536
vt -20.69504 9.624731
vt -7.154012 1.843536
vt -8.125856 9.624731
vt -21.55426 11.82424
vt -34.12344 11.82424
vt -21.8782 19.60543
vt -33.7995 19.60543
vt 8.853194 -11.82742
vt -0.9151233 -9.068421
vt -12.41759 -4.046221
vt 34.12344 11.82424
vt 21.55426 11.82424
vt 33.7995 19.60543
vt 21.8782 19.60543
vt -12.41759 9.026186
vt -39.37008 9.026186
vt -18.35807 16.80738
vt -39.37008 16.80738
vt 39.37008 33.30352
vt 39.37008 25.52232
vt -39.37008 33.30352
vt 8.993194 25.52232
vt -39.37008 25.52232
vt 23.67536 19.63256
vt 22.70352 11.85137
vt 5.145534 19.63256
vt 6.117378 11.85137
vt -35.09529 -3.433255
vt -34.12344 4.34794
vt -20.58241 -3.433255
vt -21.55426 4.34794
vt 18.24999 26.45924
vt 37.42771 26.45924
vt 18.57393 18.67805
vt 37.10376 18.67805
vt 20.69504 13.58317
vt 8.125856 13.58317
vt 20.37109 21.36436
vt 8.449804 21.36436
vt -8.125856 13.58317
vt -20.69504 13.58317
vt -8.449804 21.36436
vt -20.37109 21.36436
vt 30.10516 33.30352
vt 31.07701 25.52232
vt 37.10376 24.90935
vt 36.13192 17.12816
vt 18.57393 24.90935
vt 19.54578 17.12816
vt -39.37008 -23.62205
vt -39.37008 -15.74803
vt -8.993194 -23.62205
vt 8.853194 -15.74803
vt 39.37008 -23.62205
vt 18.09528 -11.99182
vt 32.11364 -15.74803
vt 39.37008 -15.74803
vt 5.526765 -4.735386
vt 0.6920058 -11.03617
vt -4.735386 5.526765
vt -11.03617 0.6920058
vt -11.99182 18.09528
vt -15.74803 32.11364
vt -19.32924 15.05603
vt -15.74803 39.37008
vt -23.62205 39.37008
vt -23.62205 31.07701
vt -33.08549 9.026186
vt -33.40944 16.80738
vt 32.11364 -11.82742
vt 33.08549 -4.046221
vt 39.37008 -11.82742
vt 39.37008 -4.046221

usemtl green

f 3/3/1 2/2/1 1/1/1
f 6/6/3 5/5/2 4/4/2
f 5/5/2 6/6/3 7/7/3
f 4/4/5 5/5/5 6/6/4
f 7/7/4 6/6/4 5/5/5
f 10/10/1 9/9/1 8/8/1
f 9/9/1 10/10/1 11/11/1
f 11/11/1 10/10/1 12/12/1
f 11/11/1 12/12/1 13/13/1
f 14/14/1 11/11/1 13/13/1
f 11/11/1 14/14/1 4/15/1
f 15/16/1 4/15/1 14/14/1
f 16/17/1 4/15/1 15/16/1
f 4/15/1 16/17/1 6/18/1
f 8/8/6 9/9/6 10/10/6
f 11/11/6 10/10/6 9/9/6
f 12/12/6 10/10/6 11/11/6
f 13/13/6 12/12/6 11/11/6
f 13/13/6 11/11/6 14/14/6
f 4/15/6 14/14/6 11/11/6
f 14/14/6 4/15/6 15/16/6
f 15/16/6 4/15/6 16/17/6
f 6/18/6 16/17/6 4/15/6
f 17/21/6 5/20/6 7/19/6
f 5/20/6 17/21/6 18/22/6
f 5/20/6 18/22/6 19/23/6
f 19/23/6 18/22/6 20/24/6
f 2/2/6 19/23/6 20/24/6
f 1/1/6 19/23/6 2/2/6
f 1/1/6 2/2/6 3/3/6
f 1/1/6 21/25/6 19/23/6
f 21/25/6 1/1/6 22/26/6
f 1/1/6 3/3/6 23/27/6
f 1/1/6 23/27/6 24/28/6
f 1/1/6 24/28/6 25/29/6
f 1/1/6 25/29/6 26/30/6
f 7/19/1 5/20/1 17/21/1
f 18/22/1 17/21/1 5/20/1
f 19/23/1 18/22/1 5/20/1
f 20/24/1 18/22/1 19/23/1
f 20/24/1 19/23/1 2/2/1
f 2/2/1 19/23/1 1/1/1
f 19/23/1 21/25/1 1/1/1
f 22/26/1 1/1/1 21/25/1
f 23/27/1 3/3/1 1/1/1
f 24/28/1 23/27/1 1/1/1
f 25/29/1 24/28/1 1/1/1
f 26/30/1 25/29/1 1/1/1
f 27/33/7 23/32/8 3/31/7
f 23/32/8 27/33/7 28/34/8
f 3/31/9 23/32/10 27/33/9
f 28/34/10 27/33/9 23/32/10
f 16/37/11 7/36/3 6/35/3
f 7/36/3 16/37/11 17/38/11
f 6/35/4 7/36/4 16/37/12
f 17/38/12 16/37/12 7/36/4
f 2/41/5 27/40/7 3/39/7
f 27/40/7 2/41/5 29/42/5
f 3/39/9 27/40/9 2/41/2
f 29/42/2 2/41/2 27/40/9
f 9/45/13 19/44/13 21/43/13
f 19/44/13 9/45/13 11/46/13
f 21/43/14 19/44/14 9/45/14
f 11/46/14 9/45/14 19/44/14
f 30/48/13 16/45/13 15/47/13
f 30/48/13 17/49/13 16/45/13
f 17/49/13 30/48/13 18/50/13
f 18/50/13 30/48/13 31/51/13
f 32/52/13 18/50/13 31/51/13
f 33/53/13 18/50/13 32/52/13
f 18/50/13 33/53/13 34/54/13
f 34/54/13 33/53/13 35/55/13
f 15/47/14 16/45/14 30/48/14
f 16/45/14 17/49/14 30/48/14
f 18/50/14 30/48/14 17/49/14
f 31/51/14 30/48/14 18/50/14
f 31/51/14 18/50/14 32/52/14
f 32/52/14 18/50/14 33/53/14
f 34/54/14 33/53/14 18/50/14
f 35/55/14 33/53/14 34/54/14
f 37/47/11 22/43/11 36/45/11
f 22/43/11 37/47/11 38/48/11
f 22/43/11 38/48/11 21/56/11
f 21/56/11 38/48/11 39/51/11
f 21/56/11 39/51/11 40/52/11
f 21/56/11 40/52/11 41/53/11
f 21/56/11 41/53/11 8/55/11
f 21/56/11 8/55/11 9/57/11
f 36/45/12 22/43/12 37/47/12
f 38/48/12 37/47/12 22/43/12
f 21/56/12 38/48/12 22/43/12
f 39/51/12 38/48/12 21/56/12
f 40/52/12 39/51/12 21/56/12
f 41/53/12 40/52/12 21/56/12
f 8/55/12 41/53/12 21/56/12
f 9/57/12 8/55/12 21/56/12
f 4/60/2 19/59/15 11/58/15
f 19/59/15 4/60/2 5/61/2
f 11/58/16 19/59/16 4/60/5
f 5/61/5 4/60/5 19/59/16
f 1/63/14 36/37/14 22/62/14
f 36/37/14 1/63/14 42/45/14
f 22/62/13 36/37/13 1/63/13
f 42/45/13 1/63/13 36/37/13
f 18/43/12 43/65/4 20/64/4
f 43/65/4 18/43/12 34/45/12
f 20/64/3 43/65/3 18/43/11
f 34/45/11 18/43/11 43/65/3
f 42/37/12 45/67/12 44/66/12
f 1/68/12 45/67/12 42/37/12
f 45/67/12 1/68/12 26/69/12
f 45/67/12 26/69/12 46/70/12
f 46/70/12 26/69/12 47/71/12
f 47/71/12 26/69/12 48/72/12
f 48/72/12 26/69/12 49/73/12
f 49/73/12 26/69/12 50/74/12
f 44/66/11 45/67/11 42/37/11
f 42/37/11 45/67/11 1/68/11
f 26/69/11 1/68/11 45/67/11
f 46/70/11 26/69/11 45/67/11
f 47/71/11 26/69/11 46/70/11
f 48/72/11 26/69/11 47/71/11
f 49/73/11 26/69/11 48/72/11
f 50/74/11 26/69/11 49/73/11
f 51/77/17 26/76/13 25/75/17
f 26/76/13 51/77/17 50/37/13
f 25/75/18 26/76/14 51/77/18
f 50/37/14 51/77/18 26/76/14
f 20/80/4 29/79/5 2/78/5
f 29/79/5 20/80/4 43/81/4
f 2/78/2 29/79/2 20/80/3
f 43/81/3 20/80/3 29/79/2
f 42/26/1 37/82/1 36/1/1
f 37/82/1 42/26/1 44/83/1
f 36/1/6 37/82/6 42/26/6
f 44/83/6 42/26/6 37/82/6
f 51/86/1 49/85/1 50/84/1
f 51/86/1 52/87/1 49/85/1
f 53/88/1 52/87/1 51/86/1
f 53/88/1 54/89/1 52/87/1
f 28/90/1 54/89/1 53/88/1
f 28/90/1 55/91/1 54/89/1
f 27/92/1 55/91/1 28/90/1
f 27/92/1 56/93/1 55/91/1
f 29/94/1 56/93/1 27/92/1
f 43/95/1 56/93/1 29/94/1
f 56/93/1 43/95/1 57/96/1
f 34/97/1 57/96/1 43/95/1
f 35/98/1 57/96/1 34/97/1
f 57/96/1 35/98/1 58/99/1
f 50/84/6 49/85/6 51/86/6
f 49/85/6 52/87/6 51/86/6
f 51/86/6 52/87/6 53/88/6
f 52/87/6 54/89/6 53/88/6
f 53/88/6 54/89/6 28/90/6
f 54/89/6 55/91/6 28/90/6
f 28/90/6 55/91/6 27/92/6
f 55/91/6 56/93/6 27/92/6
f 27/92/6 56/93/6 29/94/6
f 29/94/6 56/93/6 43/95/6
f 57/96/6 43/95/6 56/93/6
f 43/95/6 57/96/6 34/97/6
f 34/97/6 57/96/6 35/98/6
f 58/99/6 35/98/6 57/96/6
f 28/102/8 24/101/19 23/100/8
f 24/101/19 28/102/8 53/103/19
f 23/100/10 24/101/20 28/102/10
f 53/103/20 28/102/10 24/101/20
f 53/106/19 25/105/17 24/104/19
f 25/105/17 53/106/19 51/107/17
f 24/104/20 25/105/18 53/106/20
f 51/107/18 53/106/20 25/105/18

usemtl yellow

f 61/110/23 60/109/22 59/108/21
f 59/108/26 60/109/25 61/110/24
f 37/113/28 45/112/27 38/111/27
f 45/112/27 37/113/28 44/114/28
f 38/111/30 45/112/30 37/113/29
f 44/114/29 37/113/29 45/112/30
f 62/117/33 13/116/32 12/115/31
f 13/116/32 62/117/33 63/118/34
f 12/115/37 13/116/36 62/117/35
f 63/118/38 62/117/35 13/116/36
f 66/121/41 65/120/40 64/119/39
f 65/120/40 66/121/41 67/122/42
f 64/119/45 65/120/44 66/121/43
f 67/122/46 66/121/43 65/120/44
f 55/125/48 68/124/47 65/123/40
f 68/124/47 55/125/48 56/126/49
f 65/123/44 68/124/51 55/125/50
f 56/126/52 55/125/50 68/124/51
f 69/128/55 15/113/54 14/127/53
f 15/113/54 69/128/55 30/111/56
f 14/127/59 15/113/58 69/128/57
f 30/111/60 69/128/57 15/113/58
f 64/131/39 68/130/47 70/129/61
f 68/130/47 64/131/39 65/132/40
f 70/129/62 68/130/51 64/131/45
f 65/132/44 64/131/45 68/130/51
f 72/135/65 32/134/64 71/133/63
f 32/134/64 72/135/65 33/136/66
f 71/133/69 32/134/68 72/135/67
f 33/136/70 72/135/67 32/134/68
f 73/139/71 67/138/42 66/137/41
f 67/138/42 73/139/71 74/140/72
f 66/137/43 67/138/46 73/139/73
f 74/140/74 73/139/73 67/138/46
f 49/143/76 74/142/72 48/141/75
f 74/142/72 49/143/76 52/144/77
f 48/141/79 74/142/74 49/143/78
f 52/144/80 49/143/78 74/142/74
f 76/147/82 75/146/81 62/145/33
f 75/146/81 76/147/82 59/148/21
f 75/146/81 59/148/21 60/149/22
f 62/145/35 75/146/84 76/147/83
f 59/148/26 76/147/83 75/146/84
f 60/149/25 59/148/26 75/146/84
f 62/152/33 10/151/85 76/150/82
f 10/151/85 62/152/33 12/153/31
f 76/150/83 10/151/86 62/152/35
f 12/153/37 62/152/35 10/151/86
f 70/156/61 78/155/88 77/154/87
f 78/155/88 70/156/61 68/157/47
f 77/154/90 78/155/89 70/156/62
f 68/157/51 70/156/62 78/155/89
f 57/160/91 72/159/65 78/158/88
f 72/159/65 57/160/91 58/161/92
f 78/158/89 72/159/67 57/160/93
f 58/161/94 57/160/93 72/159/67
f 61/162/23 41/136/75 40/134/95
f 41/136/75 61/162/23 59/163/96
f 41/136/75 59/163/96 76/164/97
f 40/134/98 41/136/79 61/162/24
f 59/163/99 61/162/24 41/136/79
f 76/164/100 59/163/99 41/136/79
f 52/167/77 67/166/42 74/165/72
f 67/166/42 52/167/77 54/168/101
f 74/165/74 67/166/46 52/167/80
f 54/168/102 52/167/80 67/166/46
f 10/171/76 41/170/75 76/169/97
f 41/170/75 10/171/76 8/172/76
f 76/169/100 41/170/79 10/171/78
f 8/172/78 10/171/78 41/170/79
f 45/175/27 39/174/103 38/173/27
f 39/174/103 45/175/27 79/176/103
f 79/176/103 45/175/27 46/177/103
f 38/173/30 39/174/104 45/175/30
f 79/176/104 45/175/30 39/174/104
f 46/177/104 45/175/30 79/176/104
f 62/180/33 80/179/105 63/178/34
f 80/179/105 62/180/33 75/181/81
f 63/178/38 80/179/106 62/180/35
f 75/181/84 62/180/35 80/179/106
f 77/184/87 72/183/65 71/182/63
f 72/183/65 77/184/87 78/185/88
f 71/182/69 72/183/67 77/184/90
f 78/185/89 77/184/90 72/183/67
f 63/188/34 14/187/53 13/186/32
f 14/187/53 63/188/34 69/189/55
f 13/186/36 14/187/59 63/188/38
f 69/189/57 63/188/38 14/187/59
f 54/192/101 65/191/40 67/190/42
f 65/191/40 54/192/101 55/193/48
f 67/190/46 65/191/44 54/192/102
f 55/193/50 54/192/102 65/191/44
f 56/196/49 78/195/88 68/194/47
f 78/195/88 56/196/49 57/197/91
f 68/194/51 78/195/89 56/196/52
f 57/197/93 56/196/52 78/195/89
f 81/199/107 30/173/56 69/198/55
f 30/173/56 81/199/107 31/174/108
f 69/198/57 30/173/60 81/199/109
f 31/174/110 81/199/109 30/173/60
f 63/202/34 81/201/107 69/200/55
f 81/201/107 63/202/34 80/203/105
f 69/200/57 81/201/109 63/202/38
f 80/203/106 63/202/38 81/201/109
f 79/206/103 40/205/95 39/204/103
f 40/205/95 79/206/103 61/207/23
f 61/207/23 79/206/103 46/208/103
f 61/207/23 46/208/103 66/209/41
f 66/209/41 46/208/103 73/210/71
f 73/210/71 46/208/103 47/211/95
f 64/212/39 61/207/23 66/209/41
f 64/212/39 60/213/22 61/207/23
f 70/214/61 60/213/22 64/212/39
f 70/214/61 75/215/81 60/213/22
f 77/216/87 75/215/81 70/214/61
f 71/217/63 75/215/81 77/216/87
f 75/215/81 71/217/63 80/218/105
f 32/219/64 80/218/105 71/217/63
f 31/220/108 80/218/105 32/219/64
f 80/218/105 31/220/108 81/221/107
f 39/204/104 40/205/98 79/206/104
f 61/207/24 79/206/104 40/205/98
f 46/208/104 79/206/104 61/207/24
f 66/209/43 46/208/104 61/207/24
f 73/210/73 46/208/104 66/209/43
f 47/211/98 46/208/104 73/210/73
f 66/209/43 61/207/24 64/212/45
f 61/207/24 60/213/25 64/212/45
f 64/212/45 60/213/25 70/214/62
f 60/213/25 75/215/84 70/214/62
f 70/214/62 75/215/84 77/216/90
f 77/216/90 75/215/84 71/217/69
f 80/218/106 71/217/69 75/215/84
f 71/217/69 80/218/106 32/219/68
f 32/219/68 80/218/106 31/220/110
f 81/221/109 31/220/110 80/218/106
f 58/223/92 33/170/66 72/222/65
f 33/170/66 58/223/92 35/172/111
f 72/222/67 33/170/70 58/223/94
f 35/172/112 58/223/94 33/170/70
f 47/226/95 74/225/72 73/224/71
f 74/225/72 47/226/95 48/227/75
f 73/224/73 74/225/74 47/226/98
f 48/227/79 47/226/98 74/225/74

