# Created by Kenney (www.kenney.nl)

mtllib tunnel.mtl

g tunnel

v -0.35 2.012328E-14 0.5
v -0.35 2.012328E-14 -0.5
v -0.5 0 0.5
v -0.5 0 -0.5
v 0.5 1.339146E-13 0.5
v 0.5 1.339146E-13 -0.5
v 0.35 1.137913E-13 0.5
v 0.35 1.137913E-13 -0.5
v 0.35 0.2 0.5
v 0.5 0.2243417 0.5
v 0.2875 0.3875 0.5
v 0.4060854 0.5060854 0.5
v 0.1 0.45 0.5
v -0.4060854 0.5060854 0.5
v -0.1 0.45 0.5
v -0.2875 0.3875 0.5
v -0.1243416 0.6 0.5
v 0.1243416 0.6 0.5
v -0.5 0.2243417 0.5
v -0.35 0.2 0.5
v -0.1243416 0.6 -0.5
v -0.4060854 0.5060854 -0.5
v 0.1243416 0.6 -0.5
v -0.5 0.2243417 -0.5
v 0.4060854 0.5060854 -0.5
v 0.5 0.2243417 -0.5
v -0.35 0.2 -0.5
v -0.2875 0.3875 -0.5
v -0.1 0.45 -0.5
v 0.1 0.45 -0.5
v 0.2875 0.3875 -0.5
v 0.35 0.2 -0.5

vn 0 -1 0
vn 0 1 0
vn 0 0 1
vn 0 0 -1
vn -0.1601822 0.9870875 0
vn -0.7071068 0.7071068 0
vn 0.7071068 -0.7071068 0
vn 0.1601822 -0.9870875 0
vn 0.1601822 0.9870875 0
vn -0.1601822 -0.9870875 0
vn -0.9870875 0.1601822 0
vn 0.9870875 -0.1601822 0
vn 0.7071068 0.7071068 0
vn -0.7071068 -0.7071068 0
vn 0.9870875 0.1601822 0
vn -0.9870875 -0.1601822 0
vn 1 0 0
vn -1 0 0

vt -13.77953 19.68504
vt -13.77953 -19.68504
vt -19.68504 19.68504
vt -19.68504 -19.68504
vt 19.68504 19.68504
vt 19.68504 -19.68504
vt 13.77953 19.68504
vt 13.77953 -19.68504
vt 13.77953 4.479972E-12
vt 13.77953 7.874016
vt 19.68504 5.272227E-12
vt 19.68504 8.832349
vt 11.3189 15.25591
vt 15.98761 19.92462
vt 3.937008 17.71654
vt -15.98761 19.92462
vt -3.937008 17.71654
vt -11.3189 15.25591
vt -4.89534 23.62205
vt 4.89534 23.62205
vt -19.68504 8.832349
vt -13.77953 7.874016
vt -13.77953 7.922552E-13
vt -19.68504 0
vt -19.68504 2.825819
vt 19.68504 2.825819
vt -19.68504 -8.866464
vt 19.68504 -8.866464
vt -4.89534 -19.68504
vt -4.89534 19.68504
vt 4.89534 -19.68504
vt 4.89534 19.68504
vt -19.68504 2.154145
vt -19.68504 13.84643
vt 19.68504 2.154145
vt 19.68504 13.84643
vt 19.68504 -4.921407E-13
vt -19.68504 -4.921407E-13
vt -19.68504 5.637678E-12
vt 19.68504 5.637678E-12
vt 19.68504 0
vt 13.77953 7.922552E-13
vt -19.68504 5.272227E-12
vt -13.77953 4.479972E-12
vt 19.68504 7.874016
vt 19.68504 2.637618E-12
vt -19.68504 7.874016
vt -19.68504 2.637618E-12
vt -19.68504 2.634609E-12
vt 19.68504 2.634609E-12
vt 19.68504 -5.913708
vt -19.68504 -5.913708
vt 19.68504 1.867487
vt -19.68504 1.867487
vt -19.68504 3.112478
vt -19.68504 10.89367
vt 19.68504 3.112478
vt 19.68504 10.89367
vt 3.937008 19.68504
vt 3.937008 -19.68504
vt -3.937008 19.68504
vt -3.937008 -19.68504

usemtl green

f 3/3/1 2/2/1 1/1/1
f 2/2/1 3/3/1 4/4/1
f 1/1/2 2/2/2 3/3/2
f 4/4/2 3/3/2 2/2/2
f 7/7/1 6/6/1 5/5/1
f 6/6/1 7/7/1 8/8/1
f 5/5/2 6/6/2 7/7/2
f 8/8/2 7/7/2 6/6/2
f 5/11/3 9/10/3 7/9/3
f 9/10/3 5/11/3 10/12/3
f 9/10/3 10/12/3 11/13/3
f 11/13/3 10/12/3 12/14/3
f 11/13/3 12/14/3 13/15/3
f 13/15/3 12/14/3 14/16/3
f 14/16/3 15/17/3 13/15/3
f 14/16/3 16/18/3 15/17/3
f 14/16/3 12/14/3 17/19/3
f 17/19/3 12/14/3 18/20/3
f 19/21/3 16/18/3 14/16/3
f 19/21/3 20/22/3 16/18/3
f 19/21/3 1/23/3 20/22/3
f 1/23/3 19/21/3 3/24/3
f 7/9/4 9/10/4 5/11/4
f 10/12/4 5/11/4 9/10/4
f 11/13/4 10/12/4 9/10/4
f 12/14/4 10/12/4 11/13/4
f 13/15/4 12/14/4 11/13/4
f 14/16/4 12/14/4 13/15/4
f 13/15/4 15/17/4 14/16/4
f 15/17/4 16/18/4 14/16/4
f 17/19/4 12/14/4 14/16/4
f 18/20/4 12/14/4 17/19/4
f 14/16/4 16/18/4 19/21/4
f 16/18/4 20/22/4 19/21/4
f 20/22/4 1/23/4 19/21/4
f 3/24/4 19/21/4 1/23/4
f 22/27/6 17/26/5 21/25/5
f 17/26/5 22/27/6 14/28/6
f 21/25/8 17/26/8 22/27/7
f 14/28/7 22/27/7 17/26/8
f 21/31/5 18/30/9 23/29/9
f 18/30/9 21/31/5 17/32/5
f 23/29/10 18/30/10 21/31/8
f 17/32/8 21/31/8 18/30/10
f 19/35/11 22/34/6 24/33/11
f 22/34/6 19/35/11 14/36/6
f 24/33/12 22/34/7 19/35/12
f 14/36/7 19/35/12 22/34/7
f 23/26/9 12/27/13 25/28/13
f 12/27/13 23/26/9 18/25/9
f 25/28/14 12/27/14 23/26/10
f 18/25/10 23/26/10 12/27/14
f 12/34/13 26/35/15 25/36/13
f 26/35/15 12/34/13 10/33/15
f 25/36/14 26/35/16 12/34/14
f 10/33/16 12/34/14 26/35/16
f 10/21/15 6/37/17 26/12/15
f 6/37/17 10/21/15 5/38/17
f 26/12/16 6/37/18 10/21/16
f 5/38/18 10/21/16 6/37/18
f 3/40/18 24/21/11 4/39/18
f 24/21/11 3/40/18 19/12/11
f 4/39/17 24/21/12 3/40/17
f 19/12/12 3/40/17 24/21/12
f 24/12/4 2/42/4 4/41/4
f 2/42/4 24/12/4 27/10/4
f 27/10/4 24/12/4 28/13/4
f 28/13/4 24/12/4 22/14/4
f 28/13/4 22/14/4 29/15/4
f 29/15/4 22/14/4 30/17/4
f 25/16/4 30/17/4 22/14/4
f 25/16/4 22/14/4 21/20/4
f 25/16/4 21/20/4 23/19/4
f 25/16/4 31/18/4 30/17/4
f 26/21/4 31/18/4 25/16/4
f 26/21/4 32/22/4 31/18/4
f 6/43/4 32/22/4 26/21/4
f 32/22/4 6/43/4 8/44/4
f 4/41/3 2/42/3 24/12/3
f 27/10/3 24/12/3 2/42/3
f 28/13/3 24/12/3 27/10/3
f 22/14/3 24/12/3 28/13/3
f 29/15/3 22/14/3 28/13/3
f 30/17/3 22/14/3 29/15/3
f 22/14/3 30/17/3 25/16/3
f 21/20/3 22/14/3 25/16/3
f 23/19/3 21/20/3 25/16/3
f 30/17/3 31/18/3 25/16/3
f 25/16/3 31/18/3 26/21/3
f 31/18/3 32/22/3 26/21/3
f 26/21/3 32/22/3 6/43/3
f 8/44/3 6/43/3 32/22/3

usemtl yellow

f 20/47/12 2/46/17 27/45/12
f 2/46/17 20/47/12 1/48/17
f 27/45/11 2/46/18 20/47/11
f 1/48/18 20/47/11 2/46/18
f 7/50/18 32/47/16 8/49/18
f 32/47/16 7/50/18 9/45/16
f 8/49/17 32/47/15 7/50/17
f 9/45/15 7/50/17 32/47/15
f 13/53/10 31/52/14 11/51/14
f 31/52/14 13/53/10 30/54/10
f 11/51/13 31/52/13 13/53/9
f 30/54/9 13/53/9 31/52/13
f 9/57/16 31/56/14 32/55/16
f 31/56/14 9/57/16 11/58/14
f 32/55/15 31/56/13 9/57/15
f 11/58/13 9/57/15 31/56/13
f 16/56/7 27/57/12 28/58/7
f 27/57/12 16/56/7 20/55/12
f 28/58/6 27/57/11 16/56/6
f 20/55/11 16/56/6 27/57/11
f 16/52/7 29/53/8 15/54/8
f 29/53/8 16/52/7 28/51/7
f 15/54/5 29/53/5 16/52/6
f 28/51/6 16/52/6 29/53/5
f 15/61/8 30/60/10 13/59/10
f 30/60/10 15/61/8 29/62/8
f 13/59/9 30/60/9 15/61/5
f 29/62/5 15/61/5 30/60/9

