# Created by Kenney (www.kenney.nl)

mtllib slant_long_A.mtl

g slant_long_A

v 0.5 0.25 1
v 0.5 0 -1
v -0.5 0.25 1
v -0.5 0 -1
v 0.5 0.5 -1
v 0.5 0.75 1
v 0.35 0.5 -1
v 0.35 0.75 1
v 0.2875 0.5625 1
v 0.1 0.5 1
v -0.1 0.5 1
v -0.2875 0.5625 1
v -0.5 0.75 1
v -0.35 0.75 1
v -0.35 0.5 -1
v -0.5 0.5 -1
v -0.2875 0.3125 -1
v -0.1 0.25 -1
v 0.1 0.25 -1
v 0.2875 0.3125 -1

vn 0 -0.9922779 0.1240347
vn 0 0.9922779 -0.1240347
vn 0 0 1
vn 0 0 -1
vn 1 0 0
vn -1 0 0
vn -0.1570264 0.9799681 -0.122496
vn -0.1609992 0.9793331 -0.1224166
vn 0.1570264 0.9799681 -0.122496
vn 0.1609992 0.9793331 -0.1224166
vn -0.1570264 -0.9799681 0.122496
vn 0.1609992 -0.9793331 0.1224166
vn 0.1570264 -0.9799681 0.122496
vn -0.1609992 -0.9793331 0.1224166
vn -0.6870494 0.7209998 -0.09012497
vn -0.7225413 0.6859893 -0.08574867
vn 0.7225413 -0.6859893 0.08574867
vn 0.6870494 -0.7209998 0.09012497
vn 0.6870494 0.7209998 -0.09012497
vn 0.7225413 0.6859893 -0.08574867
vn -0.6870494 -0.7209998 0.09012497
vn -0.7225413 -0.6859893 0.08574867
vn 0.947943 0.315981 -0.03949763
vn -0.947943 -0.315981 0.03949763
vn -0.947943 0.315981 -0.03949763
vn 0.947943 -0.315981 0.03949763

vt 19.68504 40.28687
vt 19.68504 -39.06606
vt -19.68504 40.28687
vt -19.68504 -39.06606
vt -19.68504 -36.62443
vt -19.68504 42.7285
vt -13.77953 -36.62443
vt -13.77953 42.7285
vt 13.77953 29.52756
vt 19.68504 29.52756
vt 11.3189 22.14567
vt 19.68504 9.84252
vt -19.68504 9.84252
vt 3.937008 19.68504
vt -3.937008 19.68504
vt -11.3189 22.14567
vt -19.68504 29.52756
vt -13.77953 29.52756
vt 13.77953 19.68504
vt 19.68504 19.68504
vt 11.3189 12.30315
vt 19.68504 0
vt -19.68504 0
vt 3.937008 9.84252
vt -3.937008 9.84252
vt -11.3189 12.30315
vt -19.68504 19.68504
vt -13.77953 19.68504
vt 13.77953 -36.62443
vt 13.77953 42.7285
vt 19.68504 -36.62443
vt 19.68504 42.7285
vt 39.37008 19.68504
vt 39.37008 0
vt -39.37008 29.52756
vt -39.37008 9.84252
vt -39.37008 0
vt -39.37008 19.68504
vt 39.37008 9.84252
vt 39.37008 29.52756
vt -3.937008 -37.84525
vt -3.937008 41.50769
vt 3.937008 -37.84525
vt 3.937008 41.50769
vt -40.83768 1.087521
vt 32.88902 30.43476
vt -38.24573 -6.249288
vt 35.48098 23.09795
vt 38.24573 -6.249288
vt -35.48098 23.09795
vt 40.83768 1.087521
vt -32.88902 30.43476
vt 39.9096 22.50889
vt 39.80716 14.72837
vt -38.7623 32.88292
vt -38.86473 25.1024
vt -39.80716 14.72837
vt -39.9096 22.50889
vt 38.86473 25.1024
vt 38.7623 32.88292

usemtl green

f 3/3/1 2/2/1 1/1/1
f 2/2/1 3/3/1 4/4/1
f 1/1/2 2/2/2 3/3/2
f 4/4/2 3/3/2 2/2/2
f 7/7/2 6/6/2 5/5/2
f 6/6/2 7/7/2 8/8/2
f 5/5/1 6/6/1 7/7/1
f 8/8/1 7/7/1 6/6/1
f 9/11/3 6/10/3 8/9/3
f 9/11/3 1/12/3 6/10/3
f 1/12/3 9/11/3 3/13/3
f 3/13/3 9/11/3 10/14/3
f 11/15/3 3/13/3 10/14/3
f 12/16/3 3/13/3 11/15/3
f 3/13/3 12/16/3 13/17/3
f 13/17/3 12/16/3 14/18/3
f 8/9/4 6/10/4 9/11/4
f 6/10/4 1/12/4 9/11/4
f 3/13/4 9/11/4 1/12/4
f 10/14/4 9/11/4 3/13/4
f 10/14/4 3/13/4 11/15/4
f 11/15/4 3/13/4 12/16/4
f 13/17/4 12/16/4 3/13/4
f 14/18/4 12/16/4 13/17/4
f 17/21/4 16/20/4 15/19/4
f 17/21/4 4/22/4 16/20/4
f 4/22/4 17/21/4 2/23/4
f 2/23/4 17/21/4 18/24/4
f 19/25/4 2/23/4 18/24/4
f 20/26/4 2/23/4 19/25/4
f 2/23/4 20/26/4 5/27/4
f 5/27/4 20/26/4 7/28/4
f 15/19/3 16/20/3 17/21/3
f 16/20/3 4/22/3 17/21/3
f 2/23/3 17/21/3 4/22/3
f 18/24/3 17/21/3 2/23/3
f 18/24/3 2/23/3 19/25/3
f 19/25/3 2/23/3 20/26/3
f 5/27/3 20/26/3 2/23/3
f 7/28/3 20/26/3 5/27/3
f 16/31/2 14/30/2 15/29/2
f 14/30/2 16/31/2 13/32/2
f 15/29/1 14/30/1 16/31/1
f 13/32/1 16/31/1 14/30/1
f 6/35/5 2/34/5 5/33/5
f 2/34/5 6/35/5 1/36/5
f 5/33/6 2/34/6 6/35/6
f 1/36/6 6/35/6 2/34/6
f 3/39/6 16/38/6 4/37/6
f 16/38/6 3/39/6 13/40/6
f 4/37/5 16/38/5 3/39/5
f 13/40/5 3/39/5 16/38/5

usemtl yellow

f 18/43/9 10/42/8 19/41/7
f 10/42/8 18/43/9 11/44/10
f 19/41/13 10/42/12 18/43/11
f 11/44/14 18/43/11 10/42/12
f 19/47/7 9/46/16 20/45/15
f 9/46/16 19/47/7 10/48/8
f 20/45/18 9/46/17 19/47/13
f 10/48/12 19/47/13 9/46/17
f 17/51/19 11/50/10 18/49/9
f 11/50/10 17/51/19 12/52/20
f 18/49/11 11/50/14 17/51/21
f 12/52/22 17/51/21 11/50/14
f 14/55/23 17/54/19 15/53/23
f 17/54/19 14/55/23 12/56/20
f 15/53/24 17/54/21 14/55/24
f 12/56/22 14/55/24 17/54/21
f 9/59/16 7/58/25 20/57/15
f 7/58/25 9/59/16 8/60/25
f 20/57/18 7/58/26 9/59/17
f 8/60/26 9/59/17 7/58/26

