# Created by Kenney (www.kenney.nl)

mtllib slant_long_B.mtl

g slant_long_B

v 0.5 0.5 -1
v 0.5 0 -1
v 0.5 1 1
v 0.5 0.5 1
v -0.5 0.5 1
v -0.5 0 -1
v -0.5 0.5 -1
v -0.5 1 1
v 0.35 1 1
v 0.2875 0.8125 1
v 0.1 0.75 1
v -0.1 0.75 1
v -0.2875 0.8125 1
v -0.35 1 1
v -0.35 0.5 -1
v -0.2875 0.3125 -1
v -0.1 0.25 -1
v 0.1 0.25 -1
v 0.2875 0.3125 -1
v 0.35 0.5 -1

vn 1 0 0
vn -1 0 0
vn 0 -0.9701425 0.2425356
vn 0 0.9701425 -0.2425356
vn 0 0 1
vn 0 0 -1
vn 0.1518442 0.9588931 -0.2397233
vn 0.1594608 0.9577289 -0.2394322
vn 0.662863 0.7263851 -0.1815963
vn 0.7332633 0.6596433 -0.1649108
vn -0.662863 -0.7263851 0.1815963
vn -0.1594608 -0.9577289 0.2394322
vn -0.1518442 -0.9588931 0.2397233
vn -0.7332633 -0.6596433 0.1649108
vn 0.9457324 0.3152441 -0.07881103
vn -0.9457324 -0.3152441 0.07881103
vn -0.662863 0.7263851 -0.1815963
vn -0.9457324 0.3152441 -0.07881103
vn -0.7332633 0.6596433 -0.1649108
vn 0.7332633 -0.6596433 0.1649108
vn 0.9457324 -0.3152441 0.07881103
vn 0.662863 -0.7263851 0.1815963
vn -0.1518442 0.9588931 -0.2397233
vn -0.1594608 0.9577289 -0.2394322
vn 0.1594608 -0.9577289 0.2394322
vn 0.1518442 -0.9588931 0.2397233

vt 39.37008 19.68504
vt 39.37008 0
vt -39.37008 39.37008
vt -39.37008 19.68504
vt 19.68504 42.96891
vt 19.68504 -38.19459
vt -19.68504 42.96891
vt -19.68504 -38.19459
vt -39.37008 0
vt 39.37008 39.37008
vt 13.77953 39.37008
vt 19.68504 39.37008
vt 11.3189 31.98819
vt 19.68504 19.68504
vt -19.68504 19.68504
vt 3.937008 29.52756
vt -3.937008 29.52756
vt -11.3189 31.98819
vt -19.68504 39.37008
vt -13.77953 39.37008
vt 13.77953 19.68504
vt 11.3189 12.30315
vt 19.68504 0
vt -19.68504 0
vt 3.937008 9.84252
vt -3.937008 9.84252
vt -11.3189 12.30315
vt -13.77953 19.68504
vt -19.68504 -33.42027
vt -19.68504 47.74323
vt -13.77953 -33.42027
vt -13.77953 47.74323
vt 13.77953 -33.42027
vt 13.77953 47.74323
vt 19.68504 -33.42027
vt 19.68504 47.74323
vt 33.85827 -15.11205
vt -29.13386 36.06905
vt 38.2874 -8.714416
vt -24.70473 42.46669
vt 40.37841 21.97953
vt 40.17407 14.20102
vt -38.08976 42.72223
vt -38.2941 34.94371
vt -40.17407 14.20102
vt -40.37841 21.97953
vt 38.2941 34.94371
vt 38.08976 42.72223
vt -3.937008 -35.80743
vt -3.937008 45.35607
vt 3.937008 -35.80743
vt 3.937008 45.35607
vt -38.2874 -8.714416
vt 24.70473 42.46669
vt -33.85827 -15.11205
vt 29.13386 36.06905

usemtl green

f 3/3/1 2/2/1 1/1/1
f 2/2/1 3/3/1 4/4/1
f 1/1/2 2/2/2 3/3/2
f 4/4/2 3/3/2 2/2/2
f 5/7/3 2/6/3 4/5/3
f 2/6/3 5/7/3 6/8/3
f 4/5/4 2/6/4 5/7/4
f 6/8/4 5/7/4 2/6/4
f 5/1/2 7/4/2 6/9/2
f 7/4/2 5/1/2 8/10/2
f 6/9/1 7/4/1 5/1/1
f 8/10/1 5/1/1 7/4/1
f 10/13/5 3/12/5 9/11/5
f 10/13/5 4/14/5 3/12/5
f 4/14/5 10/13/5 5/15/5
f 5/15/5 10/13/5 11/16/5
f 12/17/5 5/15/5 11/16/5
f 13/18/5 5/15/5 12/17/5
f 5/15/5 13/18/5 8/19/5
f 8/19/5 13/18/5 14/20/5
f 9/11/6 3/12/6 10/13/6
f 3/12/6 4/14/6 10/13/6
f 5/15/6 10/13/6 4/14/6
f 11/16/6 10/13/6 5/15/6
f 11/16/6 5/15/6 12/17/6
f 12/17/6 5/15/6 13/18/6
f 8/19/6 13/18/6 5/15/6
f 14/20/6 13/18/6 8/19/6
f 16/22/6 7/14/6 15/21/6
f 16/22/6 6/23/6 7/14/6
f 6/23/6 16/22/6 2/24/6
f 2/24/6 16/22/6 17/25/6
f 18/26/6 2/24/6 17/25/6
f 19/27/6 2/24/6 18/26/6
f 2/24/6 19/27/6 1/15/6
f 1/15/6 19/27/6 20/28/6
f 15/21/5 7/14/5 16/22/5
f 7/14/5 6/23/5 16/22/5
f 2/24/5 16/22/5 6/23/5
f 17/25/5 16/22/5 2/24/5
f 17/25/5 2/24/5 18/26/5
f 18/26/5 2/24/5 19/27/5
f 1/15/5 19/27/5 2/24/5
f 20/28/5 19/27/5 1/15/5
f 20/31/4 3/30/4 1/29/4
f 3/30/4 20/31/4 9/32/4
f 1/29/3 3/30/3 20/31/3
f 9/32/3 20/31/3 3/30/3
f 7/35/4 14/34/4 15/33/4
f 14/34/4 7/35/4 8/36/4
f 15/33/3 14/34/3 7/35/3
f 8/36/3 7/35/3 14/34/3

usemtl yellow

f 16/39/9 12/38/8 17/37/7
f 12/38/8 16/39/9 13/40/10
f 17/37/13 12/38/12 16/39/11
f 13/40/14 16/39/11 12/38/12
f 14/43/15 16/42/9 15/41/15
f 16/42/9 14/43/15 13/44/10
f 15/41/16 16/42/11 14/43/16
f 13/44/14 14/43/16 16/42/11
f 10/47/19 20/46/18 19/45/17
f 20/46/18 10/47/19 9/48/18
f 19/45/22 20/46/21 10/47/20
f 9/48/21 10/47/20 20/46/21
f 17/51/7 11/50/24 18/49/23
f 11/50/24 17/51/7 12/52/8
f 18/49/26 11/50/25 17/51/13
f 12/52/12 17/51/13 11/50/25
f 18/55/23 10/54/19 19/53/17
f 10/54/19 18/55/23 11/56/24
f 19/53/22 10/54/20 18/55/26
f 11/56/25 18/55/26 10/54/20

