# Created by Kenney (www.kenney.nl)

mtllib slant_long_C.mtl

g slant_long_C

v 0.5 1 1
v 0.5 0 -1
v -0.5 1 1
v -0.5 0 -1
v 0.35 1.5 1
v 0.5 1.5 1
v 0.2875 1.3125 1
v 0.1 1.25 1
v -0.1 1.25 1
v -0.2875 1.3125 1
v -0.5 1.5 1
v -0.35 1.5 1
v 0.5 0.5 -1
v 0.35 0.5 -1
v -0.35 0.5 -1
v -0.5 0.5 -1
v -0.2875 0.3125 -1
v -0.1 0.25 -1
v 0.1 0.25 -1
v 0.2875 0.3125 -1

vn 0 -0.8944272 0.4472136
vn 0 0.8944272 -0.4472136
vn 0 0 1
vn 0 0 -1
vn -1 0 0
vn 1 0 0
vn 0.9370427 0.3123475 -0.1561738
vn 0.6057476 0.7116572 -0.3558286
vn 0.7418048 0.599817 -0.2999085
vn -0.9370427 -0.3123475 0.1561738
vn -0.6057476 -0.7116572 0.3558286
vn -0.7418048 -0.599817 0.2999085
vn -0.1375371 0.8859271 -0.4429635
vn -0.1506056 0.8842252 -0.4421126
vn 0.1375371 0.8859271 -0.4429635
vn 0.1506056 0.8842252 -0.4421126
vn -0.1375371 -0.8859271 0.4429635
vn 0.1506056 -0.8842252 0.4421126
vn 0.1375371 -0.8859271 0.4429635
vn -0.1506056 -0.8842252 0.4421126
vn -0.6057476 0.7116572 -0.3558286
vn -0.9370427 0.3123475 -0.1561738
vn -0.7418048 0.599817 -0.2999085
vn 0.7418048 -0.599817 0.2999085
vn 0.9370427 -0.3123475 0.1561738
vn 0.6057476 -0.7116572 0.3558286

vt 19.68504 52.8205
vt 19.68504 -35.21367
vt -19.68504 52.8205
vt -19.68504 -35.21367
vt 13.77953 59.05512
vt 19.68504 59.05512
vt 11.3189 51.67323
vt 19.68504 39.37008
vt -19.68504 39.37008
vt 3.937008 49.2126
vt -3.937008 49.2126
vt -11.3189 51.67323
vt -19.68504 59.05512
vt -13.77953 59.05512
vt -19.68504 -26.41025
vt -19.68504 61.62392
vt -13.77953 -26.41025
vt -13.77953 61.62392
vt 13.77953 19.68504
vt 19.68504 19.68504
vt 11.3189 12.30315
vt 19.68504 0
vt -19.68504 0
vt 3.937008 9.84252
vt -3.937008 9.84252
vt -11.3189 12.30315
vt -19.68504 19.68504
vt -13.77953 19.68504
vt -39.37008 0
vt -39.37008 19.68504
vt 39.37008 39.37008
vt 39.37008 59.05512
vt 39.37008 19.68504
vt 39.37008 0
vt -39.37008 59.05512
vt -39.37008 39.37008
vt 13.77953 -26.41025
vt 13.77953 61.62392
vt 19.68504 -26.41025
vt 19.68504 61.62392
vt 41.09975 20.92396
vt 40.69522 13.15329
vt -36.56907 62.36755
vt -36.97359 54.59687
vt -3.937008 -30.81196
vt -3.937008 57.22221
vt 3.937008 -30.81196
vt 3.937008 57.22221
vt 25.11438 -21.13663
vt -18.5628 55.29843
vt 31.25648 -16.35944
vt -12.4207 60.07562
vt -40.69522 13.15329
vt -41.09975 20.92396
vt 36.97359 54.59687
vt 36.56907 62.36755
vt -31.25648 -16.35944
vt 12.4207 60.07562
vt -25.11438 -21.13663
vt 18.5628 55.29843

usemtl green

f 3/3/1 2/2/1 1/1/1
f 2/2/1 3/3/1 4/4/1
f 1/1/2 2/2/2 3/3/2
f 4/4/2 3/3/2 2/2/2
f 7/7/3 6/6/3 5/5/3
f 7/7/3 1/8/3 6/6/3
f 1/8/3 7/7/3 3/9/3
f 3/9/3 7/7/3 8/10/3
f 9/11/3 3/9/3 8/10/3
f 10/12/3 3/9/3 9/11/3
f 3/9/3 10/12/3 11/13/3
f 11/13/3 10/12/3 12/14/3
f 5/5/4 6/6/4 7/7/4
f 6/6/4 1/8/4 7/7/4
f 3/9/4 7/7/4 1/8/4
f 8/10/4 7/7/4 3/9/4
f 8/10/4 3/9/4 9/11/4
f 9/11/4 3/9/4 10/12/4
f 11/13/4 10/12/4 3/9/4
f 12/14/4 10/12/4 11/13/4
f 14/17/2 6/16/2 13/15/2
f 6/16/2 14/17/2 5/18/2
f 13/15/1 6/16/1 14/17/1
f 5/18/1 14/17/1 6/16/1
f 17/21/4 16/20/4 15/19/4
f 17/21/4 4/22/4 16/20/4
f 4/22/4 17/21/4 2/23/4
f 2/23/4 17/21/4 18/24/4
f 19/25/4 2/23/4 18/24/4
f 20/26/4 2/23/4 19/25/4
f 2/23/4 20/26/4 13/27/4
f 13/27/4 20/26/4 14/28/4
f 15/19/3 16/20/3 17/21/3
f 16/20/3 4/22/3 17/21/3
f 2/23/3 17/21/3 4/22/3
f 18/24/3 17/21/3 2/23/3
f 18/24/3 2/23/3 19/25/3
f 19/25/3 2/23/3 20/26/3
f 13/27/3 20/26/3 2/23/3
f 14/28/3 20/26/3 13/27/3
f 3/31/5 16/30/5 4/29/5
f 16/30/5 3/31/5 11/32/5
f 4/29/6 16/30/6 3/31/6
f 11/32/6 3/31/6 16/30/6
f 6/35/6 2/34/6 13/33/6
f 2/34/6 6/35/6 1/36/6
f 13/33/5 2/34/5 6/35/5
f 1/36/5 6/35/5 2/34/5
f 16/39/2 12/38/2 15/37/2
f 12/38/2 16/39/2 11/40/2
f 15/37/1 12/38/1 16/39/1
f 11/40/1 16/39/1 12/38/1

usemtl yellow

f 12/43/7 17/42/8 15/41/7
f 17/42/8 12/43/7 10/44/9
f 15/41/10 17/42/11 12/43/10
f 10/44/12 12/43/10 17/42/11
f 18/47/15 8/46/14 19/45/13
f 8/46/14 18/47/15 9/48/16
f 19/45/19 8/46/18 18/47/17
f 9/48/20 18/47/17 8/46/18
f 17/51/8 9/50/16 18/49/15
f 9/50/16 17/51/8 10/52/9
f 18/49/17 9/50/20 17/51/11
f 10/52/12 17/51/11 9/50/20
f 7/55/23 14/54/22 20/53/21
f 14/54/22 7/55/23 5/56/22
f 20/53/26 14/54/25 7/55/24
f 5/56/25 7/55/24 14/54/25
f 19/59/13 7/58/23 20/57/21
f 7/58/23 19/59/13 8/60/14
f 20/57/26 7/58/24 19/59/19
f 8/60/18 19/59/19 7/58/24

