# Created by Kenney (www.kenney.nl)

mtllib rampEnd_C.mtl

g rampEnd_C

v 0.35 1 0.5
v 0.5 1 0.5
v 0.2875 0.8125 0.5
v 0.5 0.5 0.5
v -0.5 0.5 0.5
v 0.1 0.75 0.5
v -0.1 0.75 0.5
v -0.2875 0.8125 0.5
v -0.5 1 0.5
v -0.35 1 0.5
v 0.5 0.284 -0.184
v 0.5 0.148 -0.348
v -0.5 0.284 -0.184
v -0.5 0.148 -0.348
v -0.35 0.5 -0.5
v -0.5 0.5 -0.5
v -0.2875 0.3125 -0.5
v -0.5 0 -0.5
v 0.5 0 -0.5
v -0.1 0.25 -0.5
v 0.1 0.25 -0.5
v 0.2875 0.3125 -0.5
v 0.5 0.5 -0.5
v 0.35 0.5 -0.5
v 0.5 0.648 -0.348
v 0.35 0.648 -0.348
v 0.5 0.396 0.004
v -0.5 0.396 0.004
v 0.5 0.784 -0.184
v 0.5 0.896 0.004
v 0.5 0.9719999 0.228
v 0.5 0.472 0.228
v -0.35 0.648 -0.348
v -0.35 0.784 -0.184
v -0.5 0.648 -0.348
v -0.5 0.784 -0.184
v 0.35 0.784 -0.184
v 0.35 0.896 0.004
v -0.35 0.896 0.004
v -0.35 0.9719999 0.228
v -0.5 0.896 0.004
v -0.5 0.9719999 0.228
v -0.5 0.472 0.228
v 0.35 0.9719999 0.228
v -0.1 0.398 -0.348
v -0.1 0.534 -0.184
v -0.2875 0.4605 -0.348
v -0.2875 0.5965 -0.184
v 0.1 0.534 -0.184
v 0.1 0.646 0.004
v -0.1 0.646 0.004
v 0.2875 0.4605 -0.348
v 0.1 0.398 -0.348
v -0.2875 0.7085 0.004
v 0.2875 0.5965 -0.184
v 0.2875 0.7085 0.004
v -0.2875 0.7845 0.228
v -0.1 0.722 0.228
v 0.1 0.722 0.228
v 0.2875 0.7845 0.228

vn 0 0 1
vn 0 0 -1
vn 0 -0.8168834 0.576803
vn 0 -0.7437055 0.6685074
vn 0 0.8168834 -0.576803
vn 0 0.7437055 -0.6685074
vn 0 0.7164712 -0.6976167
vn 0 -0.7164712 0.6976167
vn 0 -0.9080501 0.4188617
vn 0 0.9080501 -0.4188617
vn 1 0 0
vn -1 0 0
vn 0 0.9770107 -0.2131901
vn 0 -0.9770107 0.2131901
vn 0 0.9947433 -0.1024001
vn 0 -0.9947433 0.1024001
vn 0.1210018 0.7364502 -0.6655823
vn 0.1325687 0.8070593 -0.5753962
vn 0.6448728 0.5674946 -0.5119462
vn 0.6714745 0.6041134 -0.4291493
vn -0.6448728 -0.5674946 0.5119462
vn -0.1325687 -0.8070593 0.5753962
vn -0.1210018 -0.7364502 0.6655823
vn -0.6714745 -0.6041134 0.4291493
vn -0.1325687 0.8070593 -0.5753962
vn -0.1472749 0.8962705 -0.4183411
vn 0.1472749 0.8962705 -0.4183411
vn 0.1472749 -0.8962705 0.4183411
vn 0.1325687 -0.8070593 0.5753962
vn -0.1472749 -0.8962705 0.4183411
vn -0.4911439 0.6241026 -0.6076788
vn -0.6448728 0.5674946 -0.5119462
vn -0.1080324 0.7122779 -0.6935338
vn -0.1210018 0.7364502 -0.6655823
vn 0.1080324 -0.7122779 0.6935338
vn 0.6448728 -0.5674946 0.5119462
vn 0.4911439 -0.6241026 0.6076788
vn 0.1210018 -0.7364502 0.6655823
vn 0.9282804 0.3094268 -0.2062777
vn 0.9399827 0.3133276 -0.1351238
vn 0.7002212 0.6475765 -0.3005578
vn -0.9399827 -0.3133276 0.1351238
vn -0.9282804 -0.3094268 0.2062777
vn -0.7002212 -0.6475765 0.3005578
vn 0.9066772 0.3022257 -0.2942724
vn 0.4911439 0.6241026 -0.6076788
vn 0.9147861 0.3049287 -0.2649241
vn -0.9147861 -0.3049287 0.2649241
vn -0.4911439 -0.6241026 0.6076788
vn -0.9066772 -0.3022257 0.2942724
vn -0.6714745 0.6041134 -0.4291493
vn 0.6714745 -0.6041134 0.4291493
vn 0.1080324 0.7122779 -0.6935338
vn -0.1080324 -0.7122779 0.6935338
vn -0.7002212 0.6475765 -0.3005578
vn 0.7002212 -0.6475765 0.3005578
vn -0.9282804 0.3094268 -0.2062777
vn -0.9399827 0.3133276 -0.1351238
vn 0.9282804 -0.3094268 0.2062777
vn 0.9399827 -0.3133276 0.1351238
vn -0.9147861 0.3049287 -0.2649241
vn 0.9147861 -0.3049287 0.2649241
vn 0.9467078 0.3155693 -0.06449965
vn 0.7181703 0.6797222 -0.1490274
vn -0.9467078 -0.3155693 0.06449965
vn -0.7181703 -0.6797222 0.1490274
vn -0.9066772 0.3022257 -0.2942724
vn 0.9066772 -0.3022257 0.2942724
vn 0.1583669 0.9641622 -0.2128642
vn 0.1610298 0.9817615 -0.1010637
vn 0.7201624 0.6901583 -0.0710457
vn -0.1610298 -0.9817615 0.1010637
vn -0.1583669 -0.9641622 0.2128642
vn -0.7201624 -0.6901583 0.0710457
vn -0.1583669 0.9641622 -0.2128642
vn -0.1610298 0.9817615 -0.1010637
vn 0.1610298 -0.9817615 0.1010637
vn 0.1583669 -0.9641622 0.2128642
vn -0.7181703 0.6797222 -0.1490274
vn -0.9467078 0.3155693 -0.06449965
vn -0.7201624 0.6901583 -0.0710457
vn -0.948181 0.3160603 -0.03253562
vn 0.7201624 -0.6901583 0.0710457
vn 0.9467078 -0.3155693 0.06449965
vn 0.7181703 -0.6797222 0.1490274
vn 0.948181 -0.3160603 0.03253562
vn 0.948181 0.3160603 -0.03253562
vn -0.948181 -0.3160603 0.03253562

vt 13.77953 39.37008
vt 19.68504 39.37008
vt 11.3189 31.98819
vt 19.68504 19.68504
vt -19.68504 19.68504
vt 3.937008 29.52756
vt -3.937008 29.52756
vt -11.3189 31.98819
vt -19.68504 39.37008
vt -13.77953 39.37008
vt 19.68504 1.561099
vt 19.68504 -6.826853
vt -19.68504 1.561099
vt -19.68504 -6.826853
vt 13.77953 19.68504
vt 11.3189 12.30315
vt 19.68504 6.571062E-14
vt -19.68504 6.571062E-14
vt 3.937008 9.84252
vt -3.937008 9.84252
vt -11.3189 12.30315
vt -13.77953 19.68504
vt -19.68504 -0.3711517
vt -19.68504 7.981246
vt -13.77953 -0.3711517
vt -13.77953 7.981246
vt 19.68504 8.114616
vt 19.68504 -0.5008667
vt -19.68504 8.114616
vt -19.68504 -0.5008667
vt 19.68504 0
vt 13.70079 25.51181
vt 13.70079 5.826772
vt 7.244094 30.86614
vt 7.244094 11.1811
vt -0.1574803 35.27559
vt -0.1574803 15.59055
vt -8.976377 38.26772
vt -8.976377 18.58268
vt 19.68504 -5.751366
vt 19.68504 -14.10376
vt -19.68504 -5.751366
vt -19.68504 -14.10376
vt 13.77953 5.738814
vt 13.77953 14.12677
vt 19.68504 5.738814
vt 19.68504 14.12677
vt -19.68504 5.738814
vt -19.68504 14.12677
vt -13.77953 5.738814
vt -13.77953 14.12677
vt -19.68504 9.574039
vt -19.68504 18.18952
vt -13.77953 9.574039
vt -13.77953 18.18952
vt 13.77953 11.48305
vt 13.77953 20.79572
vt 19.68504 11.48305
vt 19.68504 20.79572
vt -19.68504 0
vt -13.70079 5.826772
vt -13.70079 25.51181
vt -7.244094 11.1811
vt -7.244094 30.86614
vt 0.1574803 15.59055
vt 0.1574803 35.27559
vt 8.976377 18.58268
vt 8.976377 38.26772
vt 13.77953 9.574039
vt 13.77953 18.18952
vt 19.68504 9.574039
vt 19.68504 18.18952
vt 13.77953 -0.3711517
vt 13.77953 7.981246
vt 19.68504 -0.3711517
vt 19.68504 7.981246
vt -19.68504 12.84781
vt -19.68504 23.61306
vt -13.77953 12.84781
vt -13.77953 23.61306
vt -19.68504 11.48305
vt -19.68504 20.79572
vt -13.77953 11.48305
vt -13.77953 20.79572
vt 19.68504 14.47099
vt 19.68504 5.158318
vt -19.68504 14.47099
vt -19.68504 5.158318
vt 13.77953 12.84781
vt 13.77953 23.61306
vt 19.68504 12.84781
vt 19.68504 23.61306
vt 19.68504 21.59731
vt 19.68504 10.83206
vt -19.68504 21.59731
vt -19.68504 10.83206
vt 8.762771 2.058311
vt 6.354692 10.09317
vt 15.61204 5.7508
vt 13.20396 13.78566
vt -3.937008 4.536586
vt -3.937008 13.15207
vt 3.937008 4.536586
vt 3.937008 13.15207
vt -17.08451 -1.59998
vt -15.14628 6.524415
vt -10.10054 -5.03089
vt -8.162312 3.093505
vt 9.789302 33.09954
vt 9.310025 25.33312
vt 2.529487 37.73869
vt 2.05021 29.97227
vt -3.937008 -0.5440195
vt -3.937008 7.843933
vt 3.937008 -0.5440195
vt 3.937008 7.843933
vt 22.97742 20.88901
vt 22.2178 13.14498
vt 17.28546 27.00163
vt 16.52584 19.2576
vt -15.61204 5.7508
vt -13.20396 13.78566
vt -8.762771 2.058311
vt -6.354692 10.09317
vt 10.10054 -5.03089
vt 8.162312 3.093505
vt 17.08451 -1.59998
vt 15.14628 6.524415
vt 16.87685 27.23501
vt 16.22127 19.48148
vt 10.65354 32.8589
vt 9.997956 25.10538
vt -13.41501 12.58414
vt -9.800916 20.40493
vt -6.972957 8.219851
vt -3.358865 16.04065
vt 6.972957 8.219851
vt 3.358865 16.04065
vt 13.41501 12.58414
vt 9.800916 20.40493
vt -9.310025 25.33312
vt -9.789302 33.09954
vt -2.05021 29.97227
vt -2.529487 37.73869
vt -16.22127 19.48148
vt -16.87685 27.23501
vt -9.997956 25.10538
vt -10.65354 32.8589
vt 1.392044 37.79724
vt 1.115522 30.02096
vt -7.370989 40.94922
vt -7.647512 33.17294
vt -3.937008 -7.237458
vt -3.937008 1.11494
vt 3.937008 -7.237458
vt 3.937008 1.11494
vt -22.2178 13.14498
vt -22.97742 20.88901
vt -16.52584 19.2576
vt -17.28546 27.00163
vt -7.414997 15.41582
vt -17.64685 18.76243
vt -5.2368 22.88592
vt -15.46865 26.23253
vt -3.937008 11.83993
vt -3.937008 22.60518
vt 3.937008 11.83993
vt 3.937008 22.60518
vt 8.582933 32.97523
vt 8.498549 40.75597
vt 19.2853 34.13716
vt 19.20091 41.9179
vt 2.698045 13.51718
vt -3.48243 20.48335
vt 7.963817 19.24594
vt 1.783341 26.21211
vt -8.498549 40.75597
vt -8.582933 32.97523
vt -19.20091 41.9179
vt -19.2853 34.13716
vt -7.963817 19.24594
vt -1.783341 26.21211
vt -2.698045 13.51718
vt 3.48243 20.48335
vt -1.115522 30.02096
vt -1.392044 37.79724
vt 7.647512 33.17294
vt 7.370989 40.94922
vt 5.2368 22.88592
vt 15.46865 26.23253
vt 7.414997 15.41582
vt 17.64685 18.76243
vt -3.937008 8.320683
vt -3.937008 17.63335
vt 3.937008 8.320683
vt 3.937008 17.63335

usemtl green

f 3/3/1 2/2/1 1/1/1
f 3/3/1 4/4/1 2/2/1
f 4/4/1 3/3/1 5/5/1
f 5/5/1 3/3/1 6/6/1
f 7/7/1 5/5/1 6/6/1
f 8/8/1 5/5/1 7/7/1
f 5/5/1 8/8/1 9/9/1
f 9/9/1 8/8/1 10/10/1
f 1/1/2 2/2/2 3/3/2
f 2/2/2 4/4/2 3/3/2
f 5/5/2 3/3/2 4/4/2
f 6/6/2 3/3/2 5/5/2
f 6/6/2 5/5/2 7/7/2
f 7/7/2 5/5/2 8/8/2
f 9/9/2 8/8/2 5/5/2
f 10/10/2 8/8/2 9/9/2
f 13/13/3 12/12/4 11/11/3
f 12/12/4 13/13/3 14/14/4
f 11/11/5 12/12/6 13/13/5
f 14/14/6 13/13/5 12/12/6
f 17/16/2 16/4/2 15/15/2
f 17/16/2 18/17/2 16/4/2
f 18/17/2 17/16/2 19/18/2
f 19/18/2 17/16/2 20/19/2
f 19/18/2 20/19/2 21/20/2
f 22/21/2 19/18/2 21/20/2
f 19/18/2 22/21/2 23/5/2
f 23/5/2 22/21/2 24/22/2
f 15/15/1 16/4/1 17/16/1
f 16/4/1 18/17/1 17/16/1
f 19/18/1 17/16/1 18/17/1
f 20/19/1 17/16/1 19/18/1
f 21/20/1 20/19/1 19/18/1
f 21/20/1 19/18/1 22/21/1
f 23/5/1 22/21/1 19/18/1
f 24/22/1 22/21/1 23/5/1
f 24/25/7 25/24/6 23/23/7
f 25/24/6 24/25/7 26/26/6
f 23/23/8 25/24/4 24/25/8
f 26/26/4 24/25/8 25/24/4
f 28/29/9 11/28/3 27/27/9
f 11/28/3 28/29/9 13/30/3
f 27/27/10 11/28/5 28/29/10
f 13/30/5 28/29/10 11/28/5
f 25/32/11 19/31/11 23/4/11
f 19/31/11 25/32/11 12/33/11
f 12/33/11 25/32/11 29/34/11
f 12/33/11 29/34/11 11/35/11
f 11/35/11 29/34/11 30/36/11
f 11/35/11 30/36/11 27/37/11
f 27/37/11 30/36/11 31/38/11
f 27/37/11 31/38/11 32/39/11
f 32/39/11 31/38/11 2/9/11
f 32/39/11 2/9/11 4/5/11
f 23/4/12 19/31/12 25/32/12
f 12/33/12 25/32/12 19/31/12
f 29/34/12 25/32/12 12/33/12
f 11/35/12 29/34/12 12/33/12
f 30/36/12 29/34/12 11/35/12
f 27/37/12 30/36/12 11/35/12
f 31/38/12 30/36/12 27/37/12
f 32/39/12 31/38/12 27/37/12
f 2/9/12 31/38/12 32/39/12
f 4/5/12 2/9/12 32/39/12
f 14/42/4 19/41/8 12/40/4
f 19/41/8 14/42/4 18/43/8
f 12/40/6 19/41/7 14/42/6
f 18/43/7 14/42/6 19/41/7
f 35/46/6 34/45/5 33/44/6
f 34/45/5 35/46/6 36/47/5
f 33/44/4 34/45/3 35/46/4
f 36/47/3 35/46/4 34/45/3
f 26/50/6 29/49/5 25/48/6
f 29/49/5 26/50/6 37/51/5
f 25/48/4 29/49/3 26/50/4
f 37/51/3 26/50/4 29/49/3
f 37/54/5 30/53/10 29/52/5
f 30/53/10 37/54/5 38/55/10
f 29/52/3 30/53/9 37/54/3
f 38/55/9 37/54/3 30/53/9
f 41/58/10 40/57/13 39/56/10
f 40/57/13 41/58/10 42/59/13
f 39/56/9 40/57/14 41/58/9
f 42/59/14 41/58/9 40/57/14
f 14/61/12 16/5/12 18/60/12
f 16/5/12 14/61/12 35/62/12
f 35/62/12 14/61/12 13/63/12
f 35/62/12 13/63/12 36/64/12
f 36/64/12 13/63/12 28/65/12
f 36/64/12 28/65/12 41/66/12
f 41/66/12 28/65/12 43/67/12
f 41/66/12 43/67/12 42/68/12
f 42/68/12 43/67/12 5/4/12
f 42/68/12 5/4/12 9/2/12
f 18/60/11 16/5/11 14/61/11
f 35/62/11 14/61/11 16/5/11
f 13/63/11 14/61/11 35/62/11
f 36/64/11 13/63/11 35/62/11
f 28/65/11 13/63/11 36/64/11
f 41/66/11 28/65/11 36/64/11
f 43/67/11 28/65/11 41/66/11
f 42/68/11 43/67/11 41/66/11
f 5/4/11 43/67/11 42/68/11
f 9/2/11 5/4/11 42/68/11
f 36/71/5 39/70/10 34/69/5
f 39/70/10 36/71/5 41/72/10
f 34/69/3 39/70/9 36/71/3
f 41/72/9 36/71/3 39/70/9
f 16/75/7 33/74/6 15/73/7
f 33/74/6 16/75/7 35/76/6
f 15/73/8 33/74/4 16/75/8
f 35/76/4 16/75/8 33/74/4
f 44/79/13 2/78/15 31/77/13
f 2/78/15 44/79/13 1/80/15
f 31/77/14 2/78/16 44/79/14
f 1/80/16 44/79/14 2/78/16
f 38/83/10 31/82/13 30/81/10
f 31/82/13 38/83/10 44/84/13
f 30/81/9 31/82/14 38/83/9
f 44/84/14 38/83/9 31/82/14
f 43/87/14 27/86/9 32/85/14
f 27/86/9 43/87/14 28/88/9
f 32/85/13 27/86/10 43/87/13
f 28/88/10 43/87/13 27/86/10
f 42/91/13 10/90/15 40/89/13
f 10/90/15 42/91/13 9/92/15
f 40/89/14 10/90/16 42/91/14
f 9/92/16 42/91/14 10/90/16
f 5/95/16 32/94/14 4/93/16
f 32/94/14 5/95/16 43/96/14
f 4/93/15 32/94/13 5/95/15
f 43/96/13 5/95/15 32/94/13

usemtl yellow

f 47/99/19 46/98/18 45/97/17
f 46/98/18 47/99/19 48/100/20
f 45/97/23 46/98/22 47/99/21
f 48/100/24 47/99/21 46/98/22
f 46/103/18 50/102/26 49/101/25
f 50/102/26 46/103/18 51/104/27
f 49/101/29 50/102/28 46/103/22
f 51/104/30 46/103/22 50/102/28
f 21/107/33 52/106/32 22/105/31
f 52/106/32 21/107/33 53/108/34
f 22/105/37 52/106/36 21/107/35
f 53/108/38 21/107/35 52/106/36
f 39/111/40 48/110/20 34/109/39
f 48/110/20 39/111/40 54/112/41
f 34/109/43 48/110/24 39/111/42
f 54/112/44 39/111/42 48/110/24
f 45/115/17 49/114/25 53/113/34
f 49/114/25 45/115/17 46/116/18
f 53/113/38 49/114/29 45/115/23
f 46/116/22 45/115/23 49/114/29
f 33/119/47 17/118/46 15/117/45
f 17/118/46 33/119/47 47/120/19
f 15/117/50 17/118/49 33/119/48
f 47/120/21 33/119/48 17/118/49
f 53/123/34 55/122/51 52/121/32
f 55/122/51 53/123/34 49/124/25
f 52/121/36 55/122/52 53/123/38
f 49/124/29 53/123/38 55/122/52
f 17/127/46 45/126/17 20/125/53
f 45/126/17 17/127/46 47/128/19
f 20/125/54 45/126/23 17/127/49
f 47/128/21 17/127/49 45/126/23
f 34/131/39 47/130/19 33/129/47
f 47/130/19 34/131/39 48/132/20
f 33/129/48 47/130/21 34/131/43
f 48/132/24 34/131/43 47/130/21
f 49/135/25 56/134/55 55/133/51
f 56/134/55 49/135/25 50/136/26
f 55/133/52 56/134/56 49/135/29
f 50/136/28 49/135/29 56/134/56
f 48/139/20 51/138/27 46/137/18
f 51/138/27 48/139/20 54/140/41
f 46/137/22 51/138/30 48/139/24
f 54/140/44 48/139/24 51/138/30
f 56/143/55 37/142/57 55/141/51
f 37/142/57 56/143/55 38/144/58
f 55/141/52 37/142/59 56/143/56
f 38/144/60 56/143/56 37/142/59
f 55/147/51 26/146/61 52/145/32
f 26/146/61 55/147/51 37/148/57
f 52/145/36 26/146/62 55/147/52
f 37/148/59 55/147/52 26/146/62
f 40/151/63 54/150/41 39/149/40
f 54/150/41 40/151/63 57/152/64
f 39/149/42 54/150/44 40/151/65
f 57/152/66 40/151/65 54/150/44
f 20/155/53 53/154/34 21/153/33
f 53/154/34 20/155/53 45/156/17
f 21/153/35 53/154/38 20/155/54
f 45/156/23 20/155/54 53/154/38
f 52/159/32 24/158/67 22/157/31
f 24/158/67 52/159/32 26/160/61
f 22/157/37 24/158/68 52/159/36
f 26/160/62 52/159/36 24/158/68
f 57/163/64 7/162/70 58/161/69
f 7/162/70 57/163/64 8/164/71
f 58/161/73 7/162/72 57/163/66
f 8/164/74 57/163/66 7/162/72
f 58/167/69 6/166/76 59/165/75
f 6/166/76 58/167/69 7/168/70
f 59/165/78 6/166/77 58/167/73
f 7/168/72 58/167/73 6/166/77
f 3/171/81 44/170/80 60/169/79
f 44/170/80 3/171/81 1/172/82
f 60/169/85 44/170/84 3/171/83
f 1/172/86 3/171/83 44/170/84
f 54/175/41 58/174/69 51/173/27
f 58/174/69 54/175/41 57/176/64
f 51/173/30 58/174/73 54/175/44
f 57/176/66 54/175/44 58/174/73
f 10/179/87 57/178/64 40/177/63
f 57/178/64 10/179/87 8/180/71
f 40/177/65 57/178/66 10/179/88
f 8/180/74 10/179/88 57/178/66
f 50/183/26 60/182/79 56/181/55
f 60/182/79 50/183/26 59/184/75
f 56/181/56 60/182/85 50/183/28
f 59/184/78 50/183/28 60/182/85
f 60/187/79 38/186/58 56/185/55
f 38/186/58 60/187/79 44/188/80
f 56/185/56 38/186/60 60/187/85
f 44/188/84 60/187/85 38/186/60
f 59/191/75 3/190/81 60/189/79
f 3/190/81 59/191/75 6/192/76
f 60/189/85 3/190/83 59/191/78
f 6/192/77 59/191/78 3/190/83
f 51/195/27 59/194/75 50/193/26
f 59/194/75 51/195/27 58/196/69
f 50/193/28 59/194/78 51/195/30
f 58/196/73 51/195/30 59/194/78

