# Created by Kenney (www.kenney.nl)

mtllib split.mtl

g split

v -0.1 0.25 -0.1
v -0.5 0.25 -0.1
v -0.2875 0.3125 -0.2875
v -0.5 0.3125 -0.2875
v 0.2875 0.3125 -0.5
v 0.35 0.5 -0.5
v 0.2875 0.3125 0.5
v 0.35 0.5 0.5
v -0.35 0.5 -0.5
v -0.2875 0.3125 -0.5
v -0.35 0.5 -0.35
v -0.1 0.25 -0.5
v -0.1 0.25 0.1
v -0.1 0.25 0.5
v -0.2875 0.3125 0.2875
v -0.2875 0.3125 0.5
v -0.5 0.5 -0.35
v 0.1 0.25 -0.5
v 0.1 0.25 0.5
v -0.5 0.25 0.1
v -0.5 0.3125 0.2875
v -0.5 0.5 0.35
v -0.35 0.5 0.35
v -0.35 0.5 0.5
v 0.5 0 0.5
v 0.5 0 -0.5
v -0.5 0 0.5
v -0.5 0 -0.5
v 0.5 0.5 0.5
v -0.5 0.5 0.5
v 0.5 0.5 -0.5
v -0.5 0.5 -0.5

vn 0.04098481 0.9983188 0.04098481
vn 0 0.9870875 0.1601822
vn 0 0.803126 0.5958093
vn 0 0.7071068 0.7071068
vn 0 -0.803126 -0.5958093
vn 0 -0.9870875 -0.1601822
vn -0.04098481 -0.9983188 -0.04098481
vn 0 -0.7071068 -0.7071068
vn -0.7071068 0.7071068 0
vn -0.9486833 0.3162278 0
vn 0.7071068 -0.7071068 0
vn 0.9486833 -0.3162278 0
vn 0.9486833 0.3162278 0
vn 0.7071068 0.7071068 0
vn 0.5958093 0.803126 0
vn -0.9486833 -0.3162278 0
vn -0.7071068 -0.7071068 0
vn -0.5958093 -0.803126 0
vn 0.1601822 0.9870875 0
vn -0.1601822 -0.9870875 0
vn 0.04098481 0.9983188 -0.04098481
vn -0.04098481 -0.9983188 0.04098481
vn 0 0.3162278 0.9486833
vn 0 -0.3162278 -0.9486833
vn -0.1601822 0.9870875 0
vn 0.1601822 -0.9870875 0
vn 0 0.9870875 -0.1601822
vn 0 -0.9870875 0.1601822
vn 0 0.7071068 -0.7071068
vn 0 0.803126 -0.5958093
vn 0 0.3162278 -0.9486833
vn 0 -0.3162278 0.9486833
vn 0 -0.803126 0.5958093
vn 0 -0.7071068 0.7071068
vn 0 -1 0
vn 0 1 0
vn 0 0 1
vn 0 0 -1
vn 1 0 0
vn -1 0 0

vt -3.937008 6.847452
vt -19.68504 6.847452
vt -11.3189 14.62865
vt -19.68504 14.62865
vt -19.68504 15.25114
vt -19.68504 23.03234
vt 19.68504 15.25114
vt 19.68504 23.03234
vt 13.77953 23.03234
vt 11.3189 15.25114
vt 19.68504 6.847452
vt 3.937008 6.847452
vt 19.68504 14.62865
vt 11.3189 14.62865
vt -11.3189 15.25114
vt -13.77953 23.03234
vt 19.68504 3.937008
vt 19.68504 -3.937008
vt 3.937008 3.937008
vt 3.937008 -3.937008
vt 3.937008 19.68504
vt 3.937008 -19.68504
vt -3.937008 19.68504
vt -3.937008 -19.68504
vt 19.68504 19.68504
vt 19.68504 -19.68504
vt -19.68504 19.68504
vt -19.68504 -19.68504
vt 13.77953 19.68504
vt 11.3189 12.30315
vt 19.68504 8.659659E-13
vt -19.68504 8.659659E-13
vt 3.937008 9.84252
vt -3.937008 9.84252
vt -11.3189 12.30315
vt -13.77953 19.68504
vt 19.68504 0
vt -19.68504 0
vt -13.77953 -19.68504
vt 13.77953 13.77953
vt 19.68504 13.77953
vt 19.68504 -8.664781E-13
vt -19.68504 -8.664781E-13
vt 13.77953 -19.68504
vt 13.77953 -13.77953
vt 19.68504 -13.77953

usemtl yellow

f 3/3/3 2/2/2 1/1/1
f 2/2/2 3/3/3 4/4/4
f 1/1/7 2/2/6 3/3/5
f 4/4/8 3/3/5 2/2/6
f 7/7/9 6/6/10 5/5/9
f 6/6/10 7/7/9 8/8/10
f 5/5/11 6/6/12 7/7/11
f 8/8/12 7/7/11 6/6/12
f 11/9/13 10/7/14 9/8/13
f 10/7/14 11/9/13 3/10/15
f 9/8/16 10/7/17 11/9/16
f 3/10/18 11/9/16 10/7/17
f 10/13/14 1/12/1 12/11/19
f 1/12/1 10/13/14 3/14/15
f 12/11/20 1/12/7 10/13/17
f 3/14/18 10/13/17 1/12/7
f 15/3/15 14/2/19 13/1/21
f 14/2/19 15/3/15 16/4/14
f 13/1/22 14/2/20 15/3/18
f 16/4/17 15/3/18 14/2/20
f 11/16/23 4/5/4 3/15/3
f 4/5/4 11/16/23 17/6/23
f 3/15/5 4/5/8 11/16/24
f 17/6/24 11/16/24 4/5/8
f 18/2/25 7/13/9 5/4/9
f 7/13/9 18/2/25 19/11/25
f 5/4/11 7/13/11 18/2/26
f 19/11/26 18/2/26 7/13/11
f 13/19/21 2/18/2 20/17/27
f 2/18/2 13/19/21 1/20/1
f 14/21/19 1/20/1 13/19/21
f 14/21/19 12/22/19 1/20/1
f 19/23/25 12/22/19 14/21/19
f 12/22/19 19/23/25 18/24/25
f 20/17/28 2/18/6 13/19/22
f 1/20/7 13/19/22 2/18/6
f 13/19/22 1/20/7 14/21/20
f 1/20/7 12/22/20 14/21/20
f 14/21/20 12/22/20 19/23/26
f 18/24/26 19/23/26 12/22/20
f 22/8/31 15/10/30 21/7/29
f 15/10/30 22/8/31 23/9/31
f 21/7/34 15/10/33 22/8/32
f 23/9/32 22/8/32 15/10/33
f 20/11/27 15/14/30 13/12/21
f 15/14/30 20/11/27 21/13/29
f 13/12/22 15/14/33 20/11/28
f 21/13/34 20/11/28 15/14/33
f 23/16/13 16/5/14 15/15/15
f 16/5/14 23/16/13 24/6/13
f 15/15/18 16/5/17 23/16/16
f 24/6/16 23/16/16 16/5/17

usemtl green

f 27/27/35 26/26/35 25/25/35
f 26/26/35 27/27/35 28/28/35
f 25/25/36 26/26/36 27/27/36
f 28/28/36 27/27/36 26/26/36
f 7/30/37 29/25/37 8/29/37
f 7/30/37 25/31/37 29/25/37
f 25/31/37 7/30/37 27/32/37
f 27/32/37 7/30/37 19/33/37
f 14/34/37 27/32/37 19/33/37
f 16/35/37 27/32/37 14/34/37
f 27/32/37 16/35/37 30/27/37
f 30/27/37 16/35/37 24/36/37
f 8/29/38 29/25/38 7/30/38
f 29/25/38 25/31/38 7/30/38
f 27/32/38 7/30/38 25/31/38
f 19/33/38 7/30/38 27/32/38
f 19/33/38 27/32/38 14/34/38
f 14/34/38 27/32/38 16/35/38
f 30/27/38 16/35/38 27/32/38
f 24/36/38 16/35/38 30/27/38
f 29/27/39 26/37/39 31/25/39
f 26/37/39 29/27/39 25/38/39
f 31/25/40 26/37/40 29/27/40
f 25/38/40 29/27/40 26/37/40
f 6/39/36 29/27/36 31/28/36
f 29/27/36 6/39/36 8/36/36
f 31/28/35 29/27/35 6/39/35
f 8/36/35 6/39/35 29/27/35
f 32/27/40 4/35/40 17/36/40
f 28/38/40 4/35/40 32/27/40
f 4/35/40 28/38/40 27/37/40
f 4/35/40 27/37/40 2/34/40
f 2/34/40 27/37/40 20/33/40
f 20/33/40 27/37/40 21/30/40
f 21/30/40 27/37/40 22/29/40
f 22/29/40 27/37/40 30/25/40
f 17/36/39 4/35/39 32/27/39
f 32/27/39 4/35/39 28/38/39
f 27/37/39 28/38/39 4/35/39
f 2/34/39 27/37/39 4/35/39
f 20/33/39 27/37/39 2/34/39
f 21/30/39 27/37/39 20/33/39
f 22/29/39 27/37/39 21/30/39
f 30/25/39 27/37/39 22/29/39
f 22/41/36 24/29/36 23/40/36
f 24/29/36 22/41/36 30/25/36
f 23/40/35 24/29/35 22/41/35
f 30/25/35 22/41/35 24/29/35
f 10/30/38 32/25/38 9/29/38
f 10/30/38 28/42/38 32/25/38
f 28/42/38 10/30/38 26/43/38
f 26/43/38 10/30/38 12/33/38
f 18/34/38 26/43/38 12/33/38
f 5/35/38 26/43/38 18/34/38
f 26/43/38 5/35/38 31/27/38
f 31/27/38 5/35/38 6/36/38
f 9/29/37 32/25/37 10/30/37
f 32/25/37 28/42/37 10/30/37
f 26/43/37 10/30/37 28/42/37
f 12/33/37 10/30/37 26/43/37
f 12/33/37 26/43/37 18/34/37
f 18/34/37 26/43/37 5/35/37
f 31/27/37 5/35/37 26/43/37
f 6/36/37 5/35/37 31/27/37
f 32/26/36 11/45/36 9/44/36
f 11/45/36 32/26/36 17/46/36
f 9/44/35 11/45/35 32/26/35
f 17/46/35 32/26/35 11/45/35

