# Created by Kenney (www.kenney.nl)

mtllib slant_solid_long_D.mtl

g slant_solid_long_D

v -0.5 0 -1
v -0.5 0.5 -1
v -0.5 0 1
v -0.5 2 1
v 0.5 0 1
v 0.5 0 -1
v -0.35 0.5 -1
v -0.35 2 1
v 0.5 0.5 -1
v 0.5 2 1
v 0.2875 1.8125 1
v 0.35 2 1
v 0.1 1.75 1
v -0.1 1.75 1
v -0.2875 1.8125 1
v -0.2875 0.3125 -1
v -0.1 0.25 -1
v 0.1 0.25 -1
v 0.2875 0.3125 -1
v 0.35 0.5 -1

vn -1 0 0
vn 1 0 0
vn 0 -1 0
vn 0 1 0
vn 0 0.8 -0.6
vn 0 -0.8 0.6
vn 0 0 1
vn 0 0 -1
vn 0.1215225 0.794071 -0.5955532
vn 0.1373718 0.7924157 -0.5943118
vn 0.5441849 0.6711723 -0.5033792
vn 0.7367001 0.5409757 -0.4057318
vn -0.5441849 -0.6711723 0.5033792
vn -0.1373718 -0.7924157 0.5943118
vn -0.1215225 -0.794071 0.5955532
vn -0.7367001 -0.5409757 0.4057318
vn 0.9230769 0.3076923 -0.2307692
vn -0.9230769 -0.3076923 0.2307692
vn -0.5441849 0.6711723 -0.5033792
vn -0.9230769 0.3076923 -0.2307692
vn -0.7367001 0.5409757 -0.4057318
vn 0.7367001 -0.5409757 0.4057318
vn 0.9230769 -0.3076923 0.2307692
vn 0.5441849 -0.6711723 0.5033792
vn -0.1215225 0.794071 -0.5955532
vn -0.1373718 0.7924157 -0.5943118
vn 0.1373718 -0.7924157 0.5943118
vn 0.1215225 -0.794071 0.5955532

vt -39.37008 0
vt -39.37008 19.68504
vt 39.37008 0
vt 39.37008 78.74016
vt 19.68504 39.37008
vt 19.68504 -39.37008
vt -19.68504 39.37008
vt -19.68504 -39.37008
vt 13.77953 -19.68504
vt 13.77953 78.74016
vt 19.68504 -19.68504
vt 19.68504 78.74016
vt 39.37008 19.68504
vt -39.37008 78.74016
vt 19.68504 0
vt -19.68504 0
vt 11.3189 71.35827
vt 3.937008 68.89764
vt -3.937008 68.89764
vt -11.3189 71.35827
vt -19.68504 78.74016
vt -13.77953 78.74016
vt 13.77953 19.68504
vt 19.68504 19.68504
vt 11.3189 12.30315
vt 3.937008 9.84252
vt -3.937008 9.84252
vt -11.3189 12.30315
vt -19.68504 19.68504
vt -13.77953 19.68504
vt -19.68504 -19.68504
vt -13.77953 -19.68504
vt 19.58739 -20.32937
vt -12.39202 72.75573
vt 26.33304 -16.45083
vt -5.646364 76.63428
vt 41.53661 19.90526
vt 40.93982 12.14698
vt -34.85256 81.97146
vt -35.44935 74.21318
vt -40.93982 12.14698
vt -41.53661 19.90526
vt 35.44935 74.21318
vt 34.85256 81.97146
vt -3.937008 -25.59055
vt -3.937008 72.83465
vt 3.937008 -25.59055
vt 3.937008 72.83465
vt -26.33304 -16.45083
vt 5.646364 76.63428
vt -19.58739 -20.32937
vt 12.39202 72.75573

usemtl green

f 3/3/1 2/2/1 1/1/1
f 2/2/1 3/3/1 4/4/1
f 1/1/2 2/2/2 3/3/2
f 4/4/2 3/3/2 2/2/2
f 3/7/3 6/6/3 5/5/3
f 6/6/3 3/7/3 1/8/3
f 5/5/4 6/6/4 3/7/4
f 1/8/4 3/7/4 6/6/4
f 2/11/5 8/10/5 7/9/5
f 8/10/5 2/11/5 4/12/5
f 7/9/6 8/10/6 2/11/6
f 4/12/6 2/11/6 8/10/6
f 10/14/2 6/3/2 9/13/2
f 6/3/2 10/14/2 5/1/2
f 9/13/1 6/3/1 10/14/1
f 5/1/1 10/14/1 6/3/1
f 10/12/7 3/16/7 5/15/7
f 3/16/7 10/12/7 11/17/7
f 11/17/7 10/12/7 12/10/7
f 3/16/7 11/17/7 13/18/7
f 14/19/7 3/16/7 13/18/7
f 15/20/7 3/16/7 14/19/7
f 3/16/7 15/20/7 4/21/7
f 4/21/7 15/20/7 8/22/7
f 5/15/8 3/16/8 10/12/8
f 11/17/8 10/12/8 3/16/8
f 12/10/8 10/12/8 11/17/8
f 13/18/8 11/17/8 3/16/8
f 13/18/8 3/16/8 14/19/8
f 14/19/8 3/16/8 15/20/8
f 4/21/8 15/20/8 3/16/8
f 8/22/8 15/20/8 4/21/8
f 16/25/8 2/24/8 7/23/8
f 16/25/8 1/15/8 2/24/8
f 1/15/8 16/25/8 6/16/8
f 6/16/8 16/25/8 17/26/8
f 18/27/8 6/16/8 17/26/8
f 19/28/8 6/16/8 18/27/8
f 6/16/8 19/28/8 9/29/8
f 9/29/8 19/28/8 20/30/8
f 7/23/7 2/24/7 16/25/7
f 2/24/7 1/15/7 16/25/7
f 6/16/7 16/25/7 1/15/7
f 17/26/7 16/25/7 6/16/7
f 17/26/7 6/16/7 18/27/7
f 18/27/7 6/16/7 19/28/7
f 9/29/7 19/28/7 6/16/7
f 20/30/7 19/28/7 9/29/7
f 20/32/5 10/21/5 9/31/5
f 10/21/5 20/32/5 12/22/5
f 9/31/6 10/21/6 20/32/6
f 12/22/6 20/32/6 10/21/6

usemtl yellow

f 16/35/11 14/34/10 17/33/9
f 14/34/10 16/35/11 15/36/12
f 17/33/15 14/34/14 16/35/13
f 15/36/16 16/35/13 14/34/14
f 8/39/17 16/38/11 7/37/17
f 16/38/11 8/39/17 15/40/12
f 7/37/18 16/38/13 8/39/18
f 15/40/16 8/39/18 16/38/13
f 11/43/21 20/42/20 19/41/19
f 20/42/20 11/43/21 12/44/20
f 19/41/24 20/42/23 11/43/22
f 12/44/23 11/43/22 20/42/23
f 17/47/9 13/46/26 18/45/25
f 13/46/26 17/47/9 14/48/10
f 18/45/28 13/46/27 17/47/15
f 14/48/14 17/47/15 13/46/27
f 18/51/25 11/50/21 19/49/19
f 11/50/21 18/51/25 13/52/26
f 19/49/24 11/50/22 18/51/28
f 13/52/27 18/51/28 11/50/22

