# Created by Kenney (www.kenney.nl)

mtllib slant_solid_A.mtl

g slant_solid_A

v 0.5 0 0.5
v 0.5 0 -0.5
v -0.5 0 0.5
v -0.5 0 -0.5
v 0.5 0.5 -0.5
v 0.5 0.75 0.5
v 0.35 0.5 -0.5
v 0.35 0.75 0.5
v 0.2875 0.5625 0.5
v 0.1 0.5 0.5
v -0.1 0.5 0.5
v -0.2875 0.5625 0.5
v -0.5 0.75 0.5
v -0.35 0.75 0.5
v -0.35 0.5 -0.5
v -0.5 0.5 -0.5
v -0.2875 0.3125 -0.5
v -0.1 0.25 -0.5
v 0.1 0.25 -0.5
v 0.2875 0.3125 -0.5

vn 0 -1 0
vn 0 1 0
vn 0 0.9701425 -0.2425356
vn 0 -0.9701425 0.2425356
vn 0 0 1
vn 0 0 -1
vn 1 0 0
vn -1 0 0
vn -0.1518442 0.9588931 -0.2397233
vn -0.1594608 0.9577289 -0.2394322
vn 0.1518442 0.9588931 -0.2397233
vn 0.1594608 0.9577289 -0.2394322
vn -0.1518442 -0.9588931 0.2397233
vn 0.1594608 -0.9577289 0.2394322
vn 0.1518442 -0.9588931 0.2397233
vn -0.1594608 -0.9577289 0.2394322
vn -0.662863 0.7263851 -0.1815963
vn -0.7332633 0.6596433 -0.1649108
vn 0.7332633 -0.6596433 0.1649108
vn 0.662863 -0.7263851 0.1815963
vn 0.662863 0.7263851 -0.1815963
vn 0.7332633 0.6596433 -0.1649108
vn -0.662863 -0.7263851 0.1815963
vn -0.7332633 -0.6596433 0.1649108
vn 0.9457324 0.3152441 -0.07881103
vn -0.9457324 -0.3152441 0.07881103
vn -0.9457324 0.3152441 -0.07881103
vn 0.9457324 -0.3152441 0.07881103

vt 19.68504 19.68504
vt 19.68504 -19.68504
vt -19.68504 19.68504
vt -19.68504 -19.68504
vt -19.68504 -14.32297
vt -19.68504 26.25878
vt -13.77953 -14.32297
vt -13.77953 26.25878
vt 13.77953 29.52756
vt 19.68504 29.52756
vt 11.3189 22.14567
vt 19.68504 0
vt -19.68504 0
vt 3.937008 19.68504
vt -3.937008 19.68504
vt -11.3189 22.14567
vt -19.68504 29.52756
vt -13.77953 29.52756
vt 13.77953 19.68504
vt 11.3189 12.30315
vt 3.937008 9.84252
vt -3.937008 9.84252
vt -11.3189 12.30315
vt -13.77953 19.68504
vt 13.77953 -14.32297
vt 13.77953 26.25878
vt 19.68504 -14.32297
vt 19.68504 26.25878
vt -3.937008 -16.71013
vt -3.937008 23.87162
vt 3.937008 -16.71013
vt 3.937008 23.87162
vt -22.53937 2.188068
vt 8.956693 27.77862
vt -18.11024 -4.20957
vt 13.38583 21.38098
vt 18.11024 -4.20957
vt -13.38583 21.38098
vt 22.53937 2.188068
vt -8.956693 27.77862
vt 20.76137 22.49487
vt 20.55703 14.71636
vt -18.47272 32.86622
vt -18.67706 25.08771
vt -20.55703 14.71636
vt -20.76137 22.49487
vt 18.67706 25.08771
vt 18.47272 32.86622

usemtl green

f 3/3/1 2/2/1 1/1/1
f 2/2/1 3/3/1 4/4/1
f 1/1/2 2/2/2 3/3/2
f 4/4/2 3/3/2 2/2/2
f 7/7/3 6/6/3 5/5/3
f 6/6/3 7/7/3 8/8/3
f 5/5/4 6/6/4 7/7/4
f 8/8/4 7/7/4 6/6/4
f 9/11/5 6/10/5 8/9/5
f 9/11/5 1/12/5 6/10/5
f 1/12/5 9/11/5 3/13/5
f 3/13/5 9/11/5 10/14/5
f 11/15/5 3/13/5 10/14/5
f 12/16/5 3/13/5 11/15/5
f 3/13/5 12/16/5 13/17/5
f 13/17/5 12/16/5 14/18/5
f 8/9/6 6/10/6 9/11/6
f 6/10/6 1/12/6 9/11/6
f 3/13/6 9/11/6 1/12/6
f 10/14/6 9/11/6 3/13/6
f 10/14/6 3/13/6 11/15/6
f 11/15/6 3/13/6 12/16/6
f 13/17/6 12/16/6 3/13/6
f 14/18/6 12/16/6 13/17/6
f 17/20/6 16/1/6 15/19/6
f 17/20/6 4/12/6 16/1/6
f 4/12/6 17/20/6 2/13/6
f 2/13/6 17/20/6 18/21/6
f 19/22/6 2/13/6 18/21/6
f 20/23/6 2/13/6 19/22/6
f 2/13/6 20/23/6 5/3/6
f 5/3/6 20/23/6 7/24/6
f 15/19/5 16/1/5 17/20/5
f 16/1/5 4/12/5 17/20/5
f 2/13/5 17/20/5 4/12/5
f 18/21/5 17/20/5 2/13/5
f 18/21/5 2/13/5 19/22/5
f 19/22/5 2/13/5 20/23/5
f 5/3/5 20/23/5 2/13/5
f 7/24/5 20/23/5 5/3/5
f 16/27/3 14/26/3 15/25/3
f 14/26/3 16/27/3 13/28/3
f 15/25/4 14/26/4 16/27/4
f 13/28/4 16/27/4 14/26/4
f 6/17/7 2/12/7 5/1/7
f 2/12/7 6/17/7 1/13/7
f 5/1/8 2/12/8 6/17/8
f 1/13/8 6/17/8 2/12/8
f 3/12/8 16/3/8 4/13/8
f 16/3/8 3/12/8 13/10/8
f 4/13/7 16/3/7 3/12/7
f 13/10/7 3/12/7 16/3/7

usemtl yellow

f 18/31/11 10/30/10 19/29/9
f 10/30/10 18/31/11 11/32/12
f 19/29/15 10/30/14 18/31/13
f 11/32/16 18/31/13 10/30/14
f 19/35/9 9/34/18 20/33/17
f 9/34/18 19/35/9 10/36/10
f 20/33/20 9/34/19 19/35/15
f 10/36/14 19/35/15 9/34/19
f 17/39/21 11/38/12 18/37/11
f 11/38/12 17/39/21 12/40/22
f 18/37/13 11/38/16 17/39/23
f 12/40/24 17/39/23 11/38/16
f 14/43/25 17/42/21 15/41/25
f 17/42/21 14/43/25 12/44/22
f 15/41/26 17/42/23 14/43/26
f 12/44/24 14/43/26 17/42/23
f 9/47/18 7/46/27 20/45/17
f 7/46/27 9/47/18 8/48/27
f 20/45/20 7/46/28 9/47/19
f 8/48/28 9/47/19 7/46/28

