# Created by Kenney (www.kenney.nl)

mtllib split_solid_left.mtl

g split_solid_left

v -0.01757695 0.25 0.2803186
v 0.02324413 0.2721608 0.3335177
v -0.2248711 0.25 0.4
v 0.4 0.25 -0.8156865
v 0.2125 0.3125 -0.8403714
v 0.4 0.25 -1
v 0.2125 0.3125 -1
v 1 0.3125 0.2125
v 0.3154067 0.3125 0.2125
v 1 0.5 0.15
v 0.4662951 0.5 0.15
v 0.6 0.25 -0.789356
v 0.4909627 0.25 -0.382423
v 0.6 0.25 -1
v 0.2803186 0.25 -0.01757695
v 0.3045923 0.25 -0.4596201
v 0.1202788 0.25 -0.1403798
v -0.1403798 0.25 0.1202788
v -0.4596201 0.25 0.3045923
v -1 0.25 0.6
v -0.8156865 0.25 0.4
v -1 0.25 0.4
v 0.2284271 0.25 0.6
v 1 0.25 0.4
v 1 0.25 0.6
v 1 0.3125 0.7875
v -1 0.3125 0.7875
v -0.5319925 0.3125 0.1298701
v -0.8403714 0.3125 0.2125
v -0.5561166 0.5 0.07162941
v -0.8485997 0.5 0.15
v 0.430356 0.3125 0.09755076
v -1 0.3125 0.2125
v -1 0.5 0.15
v 0.1298701 0.3125 -0.5319925
v -0.02975852 0.3125 -0.2555075
v -0.2555075 0.3125 -0.02975852
v -0.2938834 0.5 -0.07977097
v -0.07977097 0.5 -0.2938834
v 0.6656848 0.3125 -0.3100508
v 0.7239256 0.5 -0.2859267
v 0.4803684 0.5 0.1359267
v -1 0.5 0.85
v 1 0.5 0.85
v 0.7875 0.3125 -0.7646711
v 0.85 0.5 -1
v 0.85 0.5 -0.7564428
v 0.7875 0.3125 -1
v 0.07162941 0.5 -0.5561166
v 0.15 0.5 -1
v 0.15 0.5 -0.8485997
v 1 0.5 1
v -1 0.5 1
v 1 0 1
v -1 2.404448E-31 1
v -1 0 -1
v 1 0 -1
v -1 0.5 -1
v 1 0.5 -1

vn -0.1045648 0.9851377 -0.1362715
vn -0.1984461 0.9494509 -0.243233
vn -0.006928394 0.9999743 0.001856458
vn 0.006928394 -0.9999743 -0.001856458
vn 0.1984461 -0.9494509 0.243233
vn 0.1045648 -0.9851377 0.1362715
vn 0.1447064 0.9892913 0.01905096
vn 0.6797101 0.7280018 0.08948553
vn 0.1601822 0.9870875 0
vn 0.7071068 0.7071068 0
vn -0.1601822 -0.9870875 0
vn -0.6797101 -0.7280018 -0.08948553
vn -0.1447064 -0.9892913 -0.01905096
vn -0.7071068 -0.7071068 0
vn 0 0.7071068 0.7071068
vn 0 0.856618 0.5159512
vn 0 0.3162278 0.9486833
vn 0 -0.3162278 -0.9486833
vn 0 -0.856618 -0.5159512
vn 0 -0.7071068 -0.7071068
vn -0.170297 0.9851377 -0.02242002
vn -0.1586915 0.9851377 -0.06573217
vn -0.1601822 0.9870875 0
vn -0.1362715 0.9851377 -0.1045648
vn 0.1348449 0.9892913 0.0558546
vn 0.115794 0.9892913 0.08885183
vn 0.08885183 0.9892913 0.115794
vn 0.0558546 0.9892913 0.1348449
vn 0 0.9870875 -0.1601822
vn 0.01905096 0.9892913 0.1447064
vn 0 0.9870875 0.1601822
vn 0.1601822 -0.9870875 0
vn 0.1586915 -0.9851377 0.06573217
vn 0.170297 -0.9851377 0.02242002
vn 0.1362715 -0.9851377 0.1045648
vn -0.1348449 -0.9892913 -0.0558546
vn -0.115794 -0.9892913 -0.08885183
vn -0.08885183 -0.9892913 -0.115794
vn -0.0558546 -0.9892913 -0.1348449
vn 0 -0.9870875 0.1601822
vn -0.01905096 -0.9892913 -0.1447064
vn 0 -0.9870875 -0.1601822
vn 0 0.9486833 0.3162278
vn 0 -0.9486833 -0.3162278
vn 0 0.7071068 -0.7071068
vn 0 -0.7071068 0.7071068
vn 0.2623583 0.7280018 0.6333889
vn 0.08948553 0.7280018 0.6797101
vn 0.3627311 0.3186804 0.8757104
vn 0.1237209 0.3186804 0.9397532
vn -0.3627311 -0.3186804 -0.8757104
vn -0.08948553 -0.7280018 -0.6797101
vn -0.2623583 -0.7280018 -0.6333889
vn -0.1237209 -0.3186804 -0.9397532
vn -0.5736365 0.6907925 -0.4401667
vn -0.3648326 0.856618 -0.3648326
vn 0.3648326 -0.856618 0.3648326
vn 0.5736365 -0.6907925 0.4401667
vn 0.633389 0.7280018 0.2623583
vn 0.5439035 0.7280018 0.4173518
vn -0.633389 -0.7280018 -0.2623583
vn -0.5439035 -0.7280018 -0.4173518
vn 0.4173518 0.7280018 0.5439035
vn -0.4173518 -0.7280018 -0.5439035
vn 0.577022 0.3186804 0.7519897
vn -0.577022 -0.3186804 -0.7519897
vn 0.7519897 0.3186804 0.577022
vn -0.7519897 -0.3186804 -0.577022
vn -0.6680139 0.6907926 -0.2767004
vn -0.8757104 0.3186804 -0.3627311
vn -0.7519897 0.3186804 -0.577022
vn 0.8757104 -0.3186804 0.3627311
vn 0.6680139 -0.6907926 0.2767004
vn 0.7519897 -0.3186804 0.577022
vn 0 0.3162278 -0.9486833
vn 0 -0.3162278 0.9486833
vn -0.7168672 0.6907926 -0.09437736
vn 0.7168672 -0.6907926 0.09437736
vn -0.9486833 0.3162278 0
vn -0.9397532 0.3186805 -0.1237208
vn -0.7071068 0.7071068 0
vn 0.7071068 -0.7071068 0
vn 0.9397532 -0.3186805 0.1237208
vn 0.9486833 -0.3162278 0
vn 0.8757104 0.3186804 0.3627311
vn -0.8757104 -0.3186804 -0.3627311
vn 0.9486833 0.3162278 0
vn 0.9397532 0.3186805 0.1237208
vn -0.9486833 -0.3162278 0
vn -0.9397532 -0.3186805 -0.1237208
vn -0.6708204 0.3162277 -0.6708204
vn 0.6708204 -0.3162277 0.6708204
vn 0 1 0
vn 0 -1 0
vn 0 0 1
vn 0 0 -1
vn 1 0 0
vn -1 0 0

vt 6.117378 11.85137
vt 5.772789 14.61036
vt 15.54111 11.85137
vt 32.11364 -11.82742
vt 33.08549 -4.046221
vt 39.37008 -11.82742
vt 39.37008 -4.046221
vt 39.37008 9.026186
vt 12.41759 9.026186
vt 39.37008 16.80738
vt 18.35807 16.80738
vt -23.62205 -31.07701
vt -19.32924 -15.05603
vt -23.62205 -39.37008
vt -15.74803 -39.37008
vt -15.74803 -32.11364
vt -11.03617 -0.6920058
vt -11.99182 -18.09528
vt -4.735386 -5.526765
vt 0.6920058 11.03617
vt 5.526765 4.735386
vt 8.853194 15.74803
vt 18.09528 11.99182
vt 39.37008 23.62205
vt 32.11364 15.74803
vt 39.37008 15.74803
vt -8.993194 23.62205
vt -39.37008 15.74803
vt -39.37008 23.62205
vt -8.853194 -11.82742
vt 0.9151233 -9.068421
vt 12.41759 -4.046221
vt -39.37008 33.30352
vt 39.37008 33.30352
vt -39.37008 25.52232
vt -8.993194 25.52232
vt 39.37008 25.52232
vt -21.55426 11.82424
vt -34.12344 11.82424
vt -21.8782 19.60543
vt -33.7995 19.60543
vt -9.264915 17.83275
vt -2.864805 17.83275
vt -8.293071 10.05155
vt 8.63766 12.81055
vt 8.293071 10.05155
vt -33.08549 9.026186
vt -39.37008 9.026186
vt -33.40944 16.80738
vt -39.37008 16.80738
vt 21.66689 1.843536
vt 7.154012 1.843536
vt 20.69504 9.624731
vt 8.125856 9.624731
vt -7.154012 1.843536
vt -21.66689 1.843536
vt -8.125856 9.624731
vt -20.69504 9.624731
vt -8.125856 13.58317
vt -20.69504 13.58317
vt -8.449804 21.36436
vt -20.37109 21.36436
vt 6.284593 14.18311
vt -6.284593 14.18311
vt 5.960645 21.9643
vt -5.960645 21.9643
vt -23.67536 16.91912
vt -23.99931 24.70031
vt -5.145534 16.91912
vt -4.821586 24.70031
vt 39.37008 21.4761
vt -39.37008 21.4761
vt 39.37008 29.25729
vt -39.37008 29.25729
vt -23.67536 19.63256
vt -5.145534 19.63256
vt -22.70352 11.85137
vt -6.117378 11.85137
vt 35.09529 -3.433255
vt 20.58241 -3.433255
vt 34.12344 4.34794
vt 21.55426 4.34794
vt -37.10376 24.90935
vt -18.57393 24.90935
vt -36.13192 17.12816
vt -19.54578 17.12816
vt -32.11364 -11.82742
vt -39.37008 -11.82742
vt -33.08549 -4.046221
vt -39.37008 -4.046221
vt -29.78122 29.25729
vt -30.10516 21.4761
vt 7.256437 3.643351
vt -7.256437 3.643351
vt 6.284593 11.42455
vt -6.284593 11.42455
vt 20.37109 21.36436
vt 20.69504 13.58317
vt 8.449804 21.36436
vt 8.125856 13.58317
vt 33.08549 9.026186
vt 33.40944 16.80738
vt -37.10376 18.67805
vt -37.42771 26.45924
vt -18.57393 18.67805
vt -18.24999 26.45924
vt -20.58241 -3.433255
vt -35.09529 -3.433255
vt -21.55426 4.34794
vt -34.12344 4.34794
vt 33.7995 19.60543
vt 34.12344 11.82424
vt 21.8782 19.60543
vt 21.55426 11.82424
vt -30.10516 33.30352
vt -31.07701 25.52232
vt -9.264915 16.31918
vt -9.588863 24.10037
vt -2.864805 16.31918
vt -8.805291 24.10037
vt -39.37008 39.37008
vt 39.37008 39.37008
vt -39.37008 33.46457
vt 39.37008 33.46457
vt 39.37008 5.27138E-28
vt -39.37008 5.366043E-28
vt 39.37008 19.68504
vt -39.37008 19.68504
vt 39.37008 -1.957729E-13
vt -39.37008 -1.957729E-13
vt -15.74803 9.84252
vt -8.366141 12.30315
vt -5.905512 19.68504
vt -23.62205 9.84252
vt -31.00394 12.30315
vt -33.46457 19.68504
vt 39.37008 -39.37008
vt -39.37008 -39.37008
vt 39.37008 4.315426E-15
vt -39.37008 4.315426E-15
vt -5.905512 -33.40944
vt -2.820055 -21.89435
vt -5.905512 -39.37008
vt 3.140589 -11.57021
vt 11.57021 -3.140589
vt 21.89435 2.820055
vt 33.40944 5.905512
vt 39.37008 5.905512
vt -39.37008 -1.686532E-14
vt 39.37008 -1.686532E-14
vt 8.366141 12.30315
vt 5.905512 19.68504
vt 15.74803 9.84252
vt 23.62205 9.84252
vt 31.00394 12.30315
vt 33.46457 19.68504
vt -33.46457 -29.78122
vt -33.46457 -39.37008
vt -28.50101 -11.25696
vt -39.37008 5.905512
vt -18.91214 5.351443
vt -18.35807 5.905512

usemtl yellow

f 3/3/3 2/2/2 1/1/1
f 1/1/6 2/2/5 3/3/4
f 6/6/9 5/5/8 4/4/7
f 5/5/8 6/6/9 7/7/10
f 4/4/13 5/5/12 6/6/11
f 7/7/14 6/6/11 5/5/12
f 10/10/17 9/9/16 8/8/15
f 9/9/16 10/10/17 11/11/17
f 8/8/20 9/9/19 10/10/18
f 11/11/18 10/10/18 9/9/19
f 14/14/23 13/13/22 12/12/21
f 13/13/22 14/14/23 6/15/9
f 13/13/22 6/15/9 4/16/7
f 4/16/7 15/17/24 13/13/22
f 15/17/24 4/16/7 16/18/25
f 15/17/24 16/18/25 17/19/26
f 15/17/24 17/19/26 1/20/1
f 1/20/1 17/19/26 18/21/27
f 1/20/1 18/21/27 3/22/3
f 3/22/3 18/21/27 19/23/28
f 20/24/29 3/22/3 19/23/28
f 20/24/29 19/23/28 21/25/30
f 20/24/29 21/25/30 22/26/31
f 23/27/29 3/22/3 20/24/29
f 23/27/29 24/28/31 3/22/3
f 24/28/31 23/27/29 25/29/29
f 12/12/34 13/13/33 14/14/32
f 6/15/11 14/14/32 13/13/33
f 4/16/13 6/15/11 13/13/33
f 13/13/33 15/17/35 4/16/13
f 16/18/36 4/16/13 15/17/35
f 17/19/37 16/18/36 15/17/35
f 1/20/6 17/19/37 15/17/35
f 18/21/38 17/19/37 1/20/6
f 3/22/4 18/21/38 1/20/6
f 19/23/39 18/21/38 3/22/4
f 19/23/39 3/22/4 20/24/40
f 21/25/41 19/23/39 20/24/40
f 22/26/42 21/25/41 20/24/40
f 20/24/40 3/22/4 23/27/40
f 3/22/4 24/28/42 23/27/40
f 25/29/40 23/27/40 24/28/42
f 8/7/15 3/30/3 24/6/31
f 3/30/3 8/7/15 2/31/43
f 2/31/43 8/7/15 9/32/16
f 24/6/42 3/30/4 8/7/20
f 2/31/44 8/7/20 3/30/4
f 9/32/19 8/7/20 2/31/44
f 25/35/29 27/34/45 26/33/45
f 27/34/45 25/35/29 23/36/29
f 27/34/45 23/36/29 20/37/29
f 26/33/46 27/34/46 25/35/40
f 23/36/40 25/35/40 27/34/46
f 20/37/40 23/36/40 27/34/46
f 30/40/49 29/39/48 28/38/47
f 29/39/48 30/40/49 31/41/50
f 28/38/53 29/39/52 30/40/51
f 31/41/54 30/40/51 29/39/52
f 15/44/24 9/43/56 32/42/55
f 9/43/56 15/44/24 2/45/2
f 2/45/2 15/44/24 1/46/1
f 32/42/58 9/43/57 15/44/35
f 2/45/5 15/44/35 9/43/57
f 1/46/6 15/44/35 2/45/5
f 31/49/50 33/48/15 29/47/48
f 33/48/15 31/49/50 34/50/17
f 29/47/52 33/48/20 31/49/54
f 34/50/18 31/49/54 33/48/20
f 35/53/59 17/52/26 16/51/25
f 17/52/26 35/53/59 36/54/60
f 16/51/36 17/52/37 35/53/61
f 36/54/62 35/53/61 17/52/37
f 37/57/63 19/56/28 18/55/27
f 19/56/28 37/57/63 28/58/47
f 18/55/38 19/56/39 37/57/64
f 28/58/53 37/57/64 19/56/39
f 38/61/65 28/60/47 37/59/63
f 28/60/47 38/61/65 30/62/49
f 37/59/64 28/60/53 38/61/66
f 30/62/51 38/61/66 28/60/53
f 39/65/67 37/64/63 36/63/60
f 37/64/63 39/65/67 38/66/65
f 36/63/62 37/64/64 39/65/68
f 38/66/66 39/65/68 37/64/64
f 32/69/55 41/68/70 40/67/69
f 41/68/70 32/69/55 42/70/71
f 40/67/73 41/68/72 32/69/58
f 42/70/74 32/69/58 41/68/72
f 43/73/75 26/72/45 27/71/45
f 26/72/45 43/73/75 44/74/75
f 27/71/46 26/72/46 43/73/76
f 44/74/76 43/73/76 26/72/46
f 13/77/22 32/76/55 40/75/69
f 32/76/55 13/77/22 15/78/24
f 40/75/73 32/76/58 13/77/33
f 15/78/35 13/77/33 32/76/58
f 5/81/8 16/80/25 4/79/7
f 16/80/25 5/81/8 35/82/59
f 4/79/13 16/80/36 5/81/12
f 35/82/61 5/81/12 16/80/36
f 12/85/21 40/84/69 45/83/77
f 40/84/69 12/85/21 13/86/22
f 45/83/78 40/84/73 12/85/34
f 13/86/33 12/85/34 40/84/73
f 29/89/48 22/88/31 21/87/30
f 22/88/31 29/89/48 33/90/15
f 21/87/41 22/88/42 29/89/52
f 33/90/20 29/89/52 22/88/42
f 48/72/81 47/91/80 46/74/79
f 47/91/80 48/72/81 45/92/77
f 46/74/84 47/91/83 48/72/82
f 45/92/78 48/72/82 47/91/83
f 36/95/60 18/94/27 17/93/26
f 18/94/27 36/95/60 37/96/63
f 17/93/37 18/94/38 36/95/62
f 37/96/64 36/95/62 18/94/38
f 39/99/67 35/98/59 49/97/85
f 35/98/59 39/99/67 36/100/60
f 49/97/86 35/98/61 39/99/68
f 36/100/62 39/99/68 35/98/61
f 50/10/87 5/101/8 7/8/10
f 5/101/8 50/10/87 51/102/88
f 7/8/14 5/101/12 50/10/89
f 51/102/90 50/10/89 5/101/12
f 40/105/69 47/104/80 45/103/77
f 47/104/80 40/105/69 41/106/70
f 45/103/78 47/104/83 40/105/73
f 41/106/72 40/105/73 47/104/83
f 28/109/47 21/108/30 19/107/28
f 21/108/30 28/109/47 29/110/48
f 19/107/39 21/108/41 28/109/53
f 29/110/52 28/109/53 21/108/41
f 49/113/85 5/112/8 51/111/88
f 5/112/8 49/113/85 35/114/59
f 51/111/90 5/112/12 49/113/86
f 35/114/61 49/113/86 5/112/12
f 48/33/81 12/116/21 45/115/77
f 12/116/21 48/33/81 14/35/23
f 45/115/78 12/116/34 48/33/82
f 14/35/32 48/33/82 12/116/34
f 9/119/56 42/118/71 32/117/55
f 42/118/71 9/119/56 11/120/91
f 32/117/58 42/118/74 9/119/57
f 11/120/92 9/119/57 42/118/74

usemtl green

f 44/123/93 53/122/93 52/121/93
f 53/122/93 44/123/93 43/124/93
f 52/121/94 53/122/94 44/123/94
f 43/124/94 44/123/94 53/122/94
f 52/127/95 55/126/95 54/125/95
f 55/126/95 52/127/95 53/128/95
f 54/125/96 55/126/96 52/127/96
f 53/128/96 52/127/96 55/126/96
f 58/127/96 57/130/96 56/129/96
f 57/130/96 58/127/96 6/131/96
f 6/131/96 58/127/96 7/132/96
f 7/132/96 58/127/96 50/133/96
f 14/134/96 57/130/96 6/131/96
f 48/135/96 57/130/96 14/134/96
f 57/130/96 48/135/96 59/128/96
f 59/128/96 48/135/96 46/136/96
f 56/129/95 57/130/95 58/127/95
f 6/131/95 58/127/95 57/130/95
f 7/132/95 58/127/95 6/131/95
f 50/133/95 58/127/95 7/132/95
f 6/131/95 57/130/95 14/134/95
f 14/134/95 57/130/95 48/135/95
f 59/128/95 48/135/95 57/130/95
f 46/136/95 48/135/95 59/128/95
f 55/121/94 57/137/94 54/122/94
f 57/137/94 55/121/94 56/138/94
f 54/122/93 57/137/93 55/121/93
f 56/138/93 55/121/93 57/137/93
f 10/133/97 57/139/97 59/127/97
f 57/139/97 10/133/97 8/132/97
f 57/139/97 8/132/97 54/140/97
f 54/140/97 8/132/97 24/131/97
f 54/140/97 24/131/97 25/134/97
f 54/140/97 25/134/97 26/135/97
f 54/140/97 26/135/97 44/136/97
f 54/140/97 44/136/97 52/128/97
f 59/127/98 57/139/98 10/133/98
f 8/132/98 10/133/98 57/139/98
f 54/140/98 8/132/98 57/139/98
f 24/131/98 8/132/98 54/140/98
f 25/134/98 24/131/98 54/140/98
f 26/135/98 25/134/98 54/140/98
f 44/136/98 26/135/98 54/140/98
f 52/128/98 44/136/98 54/140/98
f 50/143/93 49/142/93 51/141/93
f 49/142/93 50/143/93 58/137/93
f 49/142/93 58/137/93 39/144/93
f 39/144/93 58/137/93 38/145/93
f 38/145/93 58/137/93 30/146/93
f 30/146/93 58/137/93 31/147/93
f 31/147/93 58/137/93 34/148/93
f 51/141/94 49/142/94 50/143/94
f 58/137/94 50/143/94 49/142/94
f 39/144/94 58/137/94 49/142/94
f 38/145/94 58/137/94 39/144/94
f 30/146/94 58/137/94 38/145/94
f 31/147/94 58/137/94 30/146/94
f 34/148/94 58/137/94 31/147/94
f 55/150/98 58/128/98 56/149/98
f 58/128/98 55/150/98 33/151/98
f 58/128/98 33/151/98 34/152/98
f 33/151/98 55/150/98 22/153/98
f 22/153/98 55/150/98 20/154/98
f 20/154/98 55/150/98 27/155/98
f 27/155/98 55/150/98 43/156/98
f 43/156/98 55/150/98 53/127/98
f 56/149/97 58/128/97 55/150/97
f 33/151/97 55/150/97 58/128/97
f 34/152/97 33/151/97 58/128/97
f 22/153/97 55/150/97 33/151/97
f 20/154/97 55/150/97 22/153/97
f 27/155/97 55/150/97 20/154/97
f 43/156/97 55/150/97 27/155/97
f 53/127/97 55/150/97 43/156/97
f 46/158/93 47/157/93 59/138/93
f 41/159/93 59/138/93 47/157/93
f 41/159/93 10/160/93 59/138/93
f 42/161/93 10/160/93 41/159/93
f 10/160/93 42/161/93 11/162/93
f 59/138/94 47/157/94 46/158/94
f 47/157/94 59/138/94 41/159/94
f 59/138/94 10/160/94 41/159/94
f 41/159/94 10/160/94 42/161/94
f 11/162/94 42/161/94 10/160/94

