# Created by Kenney (www.kenney.nl)

mtllib end_square.mtl

g end_square

v 0.2875 0.3125 -0.5
v 0.2875 0.3125 0.2875
v 0.1 0.25 -0.5
v 0.1 0.25 0.1
v 0.35 0.5 -0.5
v 0.35 0.5 0.35
v -0.1 0.25 -0.5
v -0.1 0.25 0.1
v -0.2875 0.3125 -0.5
v -0.2875 0.3125 0.2875
v -0.35 0.5 -0.5
v -0.35 0.5 0.35
v -0.5 0 -0.5
v -0.5 0.5 -0.5
v -0.5 0 0.5
v -0.5 0.5 0.5
v 0.5 0 -0.5
v 0.5 0.5 -0.5
v 0.5 0.5 0.5
v 0.5 0 0.5

vn -0.7071068 0.7071068 0
vn -0.8310396 0.5562133 0
vn -0.1601822 0.9870875 0
vn -0.1211525 0.9852128 -0.1211525
vn 0.1601822 -0.9870875 0
vn 0.8310396 -0.5562133 0
vn 0.7071068 -0.7071068 0
vn 0.1211525 -0.9852128 0.1211525
vn -0.9486833 0.3162278 0
vn 0.9486833 -0.3162278 0
vn 0.1601822 0.9870875 0
vn 0.1211525 0.9852128 -0.1211525
vn 0.7071068 0.7071068 0
vn 0.8310396 0.5562133 0
vn -0.7071068 -0.7071068 0
vn -0.1211525 -0.9852128 0.1211525
vn -0.1601822 -0.9870875 0
vn -0.8310396 -0.5562133 0
vn 0.9486833 0.3162278 0
vn -0.9486833 -0.3162278 0
vn 0 0.5562133 -0.8310396
vn 0 -0.5562133 0.8310396
vn 0 0.3162278 -0.9486833
vn 0 -0.3162278 0.9486833
vn -1 0 0
vn 1 0 0
vn 0 0 -1
vn 0 0 1
vn 0 -1 0
vn 0 1 0

vt -19.68504 14.62865
vt 11.3189 14.62865
vt -19.68504 6.847452
vt 3.937008 6.847452
vt -19.68504 15.25114
vt -19.68504 23.03234
vt 11.3189 15.25114
vt 13.77953 23.03234
vt 19.68504 6.847452
vt -3.937008 6.847452
vt 19.68504 14.62865
vt -11.3189 14.62865
vt 19.68504 23.03234
vt 19.68504 15.25114
vt -13.77953 23.03234
vt -11.3189 15.25114
vt -3.937008 -19.68504
vt -3.937008 3.937008
vt 3.937008 -19.68504
vt 3.937008 3.937008
vt -19.68504 3.503447E-14
vt -19.68504 19.68504
vt 19.68504 3.503447E-14
vt 19.68504 19.68504
vt 13.77953 19.68504
vt 11.3189 12.30315
vt 19.68504 0
vt -19.68504 0
vt 3.937008 9.84252
vt -3.937008 9.84252
vt -11.3189 12.30315
vt -13.77953 19.68504
vt 19.68504 1.515825E-13
vt -19.68504 1.515825E-13
vt 19.68504 -19.68504
vt -19.68504 -19.68504
vt 13.77953 -19.68504
vt 13.77953 13.77953
vt -13.77953 13.77953
vt -13.77953 -19.68504

usemtl yellow

f 3/3/3 2/2/2 1/1/1
f 2/2/2 3/3/3 4/4/4
f 1/1/7 2/2/6 3/3/5
f 4/4/8 3/3/5 2/2/6
f 2/7/2 5/6/9 1/5/1
f 5/6/9 2/7/2 6/8/9
f 1/5/7 5/6/10 2/7/6
f 6/8/10 2/7/6 5/6/10
f 9/11/13 8/10/12 7/9/11
f 8/10/12 9/11/13 10/12/14
f 7/9/17 8/10/16 9/11/15
f 10/12/18 9/11/15 8/10/16
f 12/15/19 9/14/13 11/13/19
f 9/14/13 12/15/19 10/16/14
f 11/13/20 9/14/15 12/15/20
f 10/16/18 12/15/20 9/14/15
f 4/10/4 10/2/21 2/12/21
f 10/2/21 4/10/4 8/4/12
f 2/12/22 10/2/22 4/10/8
f 8/4/16 4/10/8 10/2/22
f 10/7/21 6/15/23 2/16/21
f 6/15/23 10/7/21 12/8/23
f 2/16/22 6/15/24 10/7/22
f 12/8/24 10/7/22 6/15/24
f 7/19/11 4/18/4 3/17/3
f 4/18/4 7/19/11 8/20/12
f 3/17/5 4/18/8 7/19/17
f 8/20/16 7/19/17 4/18/8

usemtl green

f 15/23/25 14/22/25 13/21/25
f 14/22/25 15/23/25 16/24/25
f 13/21/26 14/22/26 15/23/26
f 16/24/26 15/23/26 14/22/26
f 9/26/27 14/24/27 11/25/27
f 9/26/27 13/27/27 14/24/27
f 13/27/27 9/26/27 17/28/27
f 17/28/27 9/26/27 7/29/27
f 3/30/27 17/28/27 7/29/27
f 1/31/27 17/28/27 3/30/27
f 17/28/27 1/31/27 18/22/27
f 18/22/27 1/31/27 5/32/27
f 11/25/28 14/24/28 9/26/28
f 14/24/28 13/27/28 9/26/28
f 17/28/28 9/26/28 13/27/28
f 7/29/28 9/26/28 17/28/28
f 7/29/28 17/28/28 3/30/28
f 3/30/28 17/28/28 1/31/28
f 18/22/28 1/31/28 17/28/28
f 5/32/28 1/31/28 18/22/28
f 19/22/26 17/33/26 18/24/26
f 17/33/26 19/22/26 20/34/26
f 18/24/25 17/33/25 19/22/25
f 20/34/25 19/22/25 17/33/25
f 19/24/28 15/28/28 20/27/28
f 15/28/28 19/24/28 16/22/28
f 20/27/27 15/28/27 19/24/27
f 16/22/27 19/24/27 15/28/27
f 15/22/29 17/35/29 20/24/29
f 17/35/29 15/22/29 13/36/29
f 20/24/30 17/35/30 15/22/30
f 13/36/30 15/22/30 17/35/30
f 14/35/30 12/38/30 11/37/30
f 16/24/30 12/38/30 14/35/30
f 16/24/30 6/39/30 12/38/30
f 19/22/30 6/39/30 16/24/30
f 19/22/30 5/40/30 6/39/30
f 5/40/30 19/22/30 18/36/30
f 11/37/29 12/38/29 14/35/29
f 14/35/29 12/38/29 16/24/29
f 12/38/29 6/39/29 16/24/29
f 16/24/29 6/39/29 19/22/29
f 6/39/29 5/40/29 19/22/29
f 18/36/29 19/22/29 5/40/29

