# Created by Kenney (www.kenney.nl)

mtllib funnel.mtl

g funnel

v 0.85 0 0.5
v 0.5 0 -0.5
v -0.85 0 0.5
v -0.5 0 -0.5
v 0.5 0.5 -0.5
v 0.85 0.5 0.5
v -0.35 0.5 -0.5
v -0.5 0.5 -0.5
v -0.2875 0.3125 -0.5
v -0.1 0.25 -0.5
v 0.1 0.25 -0.5
v 0.2875 0.3125 -0.5
v 0.35 0.5 -0.5
v 0.7 0.5 0.5
v -0.85 0.5 0.5
v -0.7 0.5 0.5
v 0.575 0.3125 0.5
v 0.2 0.25 0.5
v -0.2 0.25 0.5
v -0.575 0.3125 0.5

vn 0 -1 0
vn 0 1 0
vn 0.9438583 0 -0.3303504
vn -0.9438583 0 0.3303504
vn 0 0 -1
vn 0 0 1
vn -0.9438583 0 -0.3303504
vn 0.9438583 0 0.3303504
vn 0.1502318 0.9885367 0.01502318
vn 0.09735681 0.9949538 0.02425784
vn 0.6241791 0.7615436 0.1745043
vn -0.6241791 -0.7615436 -0.1745043
vn -0.09735681 -0.9949538 -0.02425784
vn -0.1502318 -0.9885367 -0.01502318
vn -0.6510523 0.7355919 0.1871775
vn -0.903729 0.3352755 0.2662032
vn -0.5966216 0.7804624 0.1868716
vn 0.5966216 -0.7804624 -0.1868716
vn 0.903729 -0.3352755 -0.2662032
vn 0.6510523 -0.7355919 -0.1871775
vn 0.5808086 0.7967297 0.1669825
vn -0.5808086 -0.7967297 -0.1669825
vn -0.7988646 0.5325764 0.2796026
vn 0.7988646 -0.5325764 -0.2796026
vn -0.08767042 0.996111 0.008767043
vn -0.1329516 0.9905122 0.0347769
vn 0.1329516 -0.9905122 -0.0347769
vn 0.08767042 -0.996111 -0.008767043
vn 0.900349 0.3001163 0.3151221
vn 0.8243636 0.5106255 0.2443077
vn -0.8243636 -0.5106255 -0.2443077
vn -0.900349 -0.3001163 -0.3151221

vt 33.46457 19.68504
vt 19.68504 -19.68504
vt -33.46457 19.68504
vt -19.68504 -19.68504
vt 12.07693 19.68504
vt 12.07693 0
vt -29.63492 19.68504
vt -29.63492 0
vt 13.77953 19.68504
vt 19.68504 19.68504
vt 11.3189 12.30315
vt 19.68504 0
vt -19.68504 0
vt 3.937008 9.84252
vt -3.937008 9.84252
vt -11.3189 12.30315
vt -19.68504 19.68504
vt -13.77953 19.68504
vt -27.55906 19.68504
vt -13.77953 -19.68504
vt -12.07693 0
vt -12.07693 19.68504
vt 29.63492 0
vt 29.63492 19.68504
vt 13.77953 -19.68504
vt 27.55906 19.68504
vt 22.63779 12.30315
vt 33.46457 0
vt -33.46457 0
vt 7.874016 9.84252
vt -7.874016 9.84252
vt -22.63779 12.30315
vt 19.1956 8.69831
vt -20.37084 8.69831
vt 18.46107 16.44476
vt -15.79119 16.69477
vt -15.1113 24.4462
vt 25.17368 16.69477
vt 15.79119 18.17962
vt -21.09434 3.778821
vt -25.17368 18.17962
vt 26.05829 18.32933
vt -14.02782 27.05103
vt 27.68403 27.05103
vt 21.83989 22.31658
vt 20.37084 7.42142
vt -19.1956 7.42142
vt 14.02782 24.63255
vt 14.84069 16.89392
vt -27.68403 24.63255
vt -15.79119 19.448
vt 25.17368 19.448
vt -17.83086 11.93889
vt -26.53346 27.92922
vt 15.79119 19.16212
vt -25.17368 19.16212
vt -7.874016 19.68504
vt 7.874016 19.68504
vt -3.937008 -19.68504
vt 3.937008 -19.68504

usemtl green

f 3/3/1 2/2/1 1/1/1
f 2/2/1 3/3/1 4/4/1
f 1/1/2 2/2/2 3/3/2
f 4/4/2 3/3/2 2/2/2
f 6/7/3 2/6/3 5/5/3
f 2/6/3 6/7/3 1/8/3
f 5/5/4 2/6/4 6/7/4
f 1/8/4 6/7/4 2/6/4
f 9/11/5 8/10/5 7/9/5
f 9/11/5 4/12/5 8/10/5
f 4/12/5 9/11/5 2/13/5
f 2/13/5 9/11/5 10/14/5
f 11/15/5 2/13/5 10/14/5
f 12/16/5 2/13/5 11/15/5
f 2/13/5 12/16/5 5/17/5
f 5/17/5 12/16/5 13/18/5
f 7/9/6 8/10/6 9/11/6
f 8/10/6 4/12/6 9/11/6
f 2/13/6 9/11/6 4/12/6
f 10/14/6 9/11/6 2/13/6
f 10/14/6 2/13/6 11/15/6
f 11/15/6 2/13/6 12/16/6
f 5/17/6 12/16/6 2/13/6
f 13/18/6 12/16/6 5/17/6
f 5/4/2 14/19/2 6/3/2
f 14/19/2 5/4/2 13/20/2
f 6/3/1 14/19/1 5/4/1
f 13/20/1 5/4/1 14/19/1
f 3/23/7 8/22/7 4/21/7
f 8/22/7 3/23/7 15/24/7
f 4/21/8 8/22/8 3/23/8
f 15/24/8 3/23/8 8/22/8
f 8/2/2 16/26/2 7/25/2
f 16/26/2 8/2/2 15/1/2
f 7/25/1 16/26/1 8/2/1
f 15/1/1 8/2/1 16/26/1
f 17/27/6 6/1/6 14/26/6
f 17/27/6 1/28/6 6/1/6
f 1/28/6 17/27/6 3/29/6
f 3/29/6 17/27/6 18/30/6
f 19/31/6 3/29/6 18/30/6
f 20/32/6 3/29/6 19/31/6
f 3/29/6 20/32/6 15/3/6
f 15/3/6 20/32/6 16/19/6
f 14/26/5 6/1/5 17/27/5
f 6/1/5 1/28/5 17/27/5
f 3/29/5 17/27/5 1/28/5
f 18/30/5 17/27/5 3/29/5
f 18/30/5 3/29/5 19/31/5
f 19/31/5 3/29/5 20/32/5
f 15/3/5 20/32/5 3/29/5
f 16/19/5 20/32/5 15/3/5

usemtl yellow

f 9/35/11 19/34/10 10/33/9
f 10/33/14 19/34/13 9/35/12
f 17/38/17 13/37/16 12/36/15
f 12/36/20 13/37/19 17/38/18
f 20/41/21 19/40/10 9/39/11
f 9/39/12 19/40/13 20/41/22
f 14/44/23 13/43/16 17/42/17
f 17/42/18 13/43/19 14/44/24
f 11/47/26 18/46/25 17/45/17
f 17/45/18 18/46/28 11/47/27
f 16/50/30 9/49/11 7/48/29
f 7/48/32 9/49/12 16/50/31
f 11/53/26 17/52/17 12/51/15
f 12/51/20 17/52/18 11/53/27
f 20/56/21 9/55/11 16/54/30
f 16/54/31 9/55/12 20/56/22
f 11/59/26 19/58/10 18/57/25
f 19/58/10 11/59/26 10/60/9
f 18/57/28 19/58/13 11/59/27
f 10/60/14 11/59/27 19/58/13

