# Created by Kenney (www.kenney.nl)

mtllib marble_center_low.mtl

g marble_center_low

v 0.1344997 0 -0.1344997
v 0.1902113 0 -2.887646E-15
v 0.1344997 0.0618034 -0.1344997
v 0.1902113 0.0618034 0
v 0.1344997 -2.255973E-17 0.1344997
v 0.1344997 0.0618034 0.1344997
v -0.1344997 -2.255973E-17 -0.1344997
v -0.1344997 0.0618034 -0.1344997
v -0.1902113 -2.255973E-17 0
v -0.1902113 0.0618034 0
v 0.1344997 -0.0618034 0.1344997
v -2.255973E-17 -0.0618034 0.1902113
v 6.018578E-16 -2.255973E-17 0.1902113
v -0.1902113 -0.0618034 0
v -0.1344997 -0.0618034 0.1344997
v -0.1344997 -2.255973E-17 0.1344997
v -2.255973E-17 0.0618034 0.1902113
v -0.1344997 0.0618034 0.1344997
v -3.613114E-16 0 -0.1902113
v 4.511946E-17 0.0618034 -0.1902113
v -0.117557 0.1618034 0
v -0.08312539 0.1618034 -0.08312539
v 0 0.2 0
v -0.08312539 0.1618034 0.08312539
v 0 0.1618034 0.117557
v 0.08312539 0.1618034 0.08312539
v 0.117557 0.1618034 0
v 0.08312539 0.1618034 -0.08312539
v 2.255973E-17 0.1618034 -0.117557
v -0.08312539 -0.1618034 0.08312539
v 0 -0.1618034 0.117557
v 0 -0.2 0
v -0.117557 -0.1618034 0
v -0.08312539 -0.1618034 -0.08312539
v -0.1344997 -0.0618034 -0.1344997
v 4.511946E-17 -0.0618034 -0.1902113
v 2.255973E-17 -0.1618034 -0.117557
v 0.1344997 -0.0618034 -0.1344997
v 0.08312539 -0.1618034 -0.08312539
v 0.1902113 -0.0618034 0
v 0.117557 -0.1618034 0
v 0.08312539 -0.1618034 0.08312539

vn 0.7071068 0 -0.7071068
vn 1 0 0
vn 0.6769574 0.2888899 -0.6769574
vn -0.6769574 -0.2888899 0.6769574
vn -1 0 0
vn -0.7071068 0 0.7071068
vn 0.9573624 0.2888899 0
vn -0.9573624 -0.2888899 0
vn 0.7071068 0 0.7071068
vn -0.7071068 0 -0.7071068
vn 0.6769574 0.2888899 0.6769574
vn -0.6769574 -0.2888899 -0.6769574
vn -0.6769574 0.2888899 -0.6769574
vn 0.6769574 -0.2888899 0.6769574
vn -0.9573624 0.2888899 0
vn 0.9573624 -0.2888899 0
vn 0 -0.2888899 0.9573624
vn 0 0.2888899 -0.9573624
vn 0 0 1
vn 0 0 -1
vn 0 0.2888899 0.9573624
vn 0 -0.2888899 -0.9573624
vn -0.6769574 0.2888899 0.6769574
vn 0.6769574 -0.2888899 -0.6769574
vn -0.6335991 0.7736616 0
vn -0.4480222 0.7736616 -0.4480222
vn 0 1 0
vn -0.4480222 0.7736616 0.4480222
vn 0 0.7736616 0.6335991
vn 0.4480222 0.7736616 0.4480222
vn 0.6335991 0.7736616 0
vn 0.4480222 0.7736616 -0.4480222
vn 0 0.7736616 -0.6335991
vn -0.4480222 -0.7736616 0.4480222
vn 0 -0.7736616 0.6335991
vn 0 -1 0
vn -0.6335991 -0.7736616 0
vn -0.4480222 -0.7736616 -0.4480222
vn 0 -0.7736616 -0.6335991
vn 0.4480222 -0.7736616 -0.4480222
vn 0.6335991 -0.7736616 0
vn 0.4480222 -0.7736616 0.4480222

vt 7.488634 2.577047E-32
vt 5.295264 -5.295264
vt 5.295264 5.295264
vt 0 0
vt -7.488634 -1.136868E-13
vt -5.295264 5.295264
vt -5.295264 -5.295264
vt -2.369519E-14 7.488634
vt 1.422486E-14 -7.488634

usemtl _defaultMat

f 3/3/3 2/2/2 1/1/1
f 1/1/6 2/2/5 3/3/4
f 2/3/2 3/2/3 4/1/7
f 4/1/8 3/2/4 2/3/5
f 4/3/7 5/2/9 2/1/2
f 2/1/5 5/2/10 4/3/8
f 5/3/9 4/2/7 6/1/11
f 6/1/12 4/2/8 5/3/10
f 9/3/5 8/2/13 7/1/10
f 7/1/9 8/2/14 9/3/2
f 8/3/13 9/2/5 10/1/15
f 10/1/16 9/2/2 8/3/14
f 5/3/9 12/2/17 11/1/14
f 11/1/13 12/2/18 5/3/10
f 12/3/17 5/2/9 13/1/19
f 13/1/20 5/2/10 12/3/18
f 15/3/4 9/2/5 14/1/8
f 14/1/7 9/2/2 15/3/3
f 9/3/5 15/2/4 16/1/6
f 16/1/1 15/2/3 9/3/2
f 17/3/21 16/2/6 13/1/19
f 13/1/20 16/2/1 17/3/22
f 16/3/6 17/2/21 18/1/23
f 18/1/24 17/2/22 16/3/1
f 20/3/18 1/2/1 19/1/20
f 19/1/19 1/2/6 20/3/17
f 1/3/1 20/2/18 3/1/3
f 3/1/4 20/2/17 1/3/6
f 16/4/6 10/4/15 9/4/5
f 10/4/15 16/4/6 18/4/23
f 18/4/23 21/4/25 10/4/15
f 22/4/26 10/4/15 21/4/25
f 21/4/25 23/4/27 22/4/26
f 10/4/15 22/4/26 8/4/13
f 21/4/25 18/4/23 24/4/28
f 21/4/25 24/4/28 23/4/27
f 18/4/23 25/4/29 24/4/28
f 24/4/28 25/4/29 23/4/27
f 25/4/29 18/4/23 17/4/21
f 17/4/21 26/4/30 25/4/29
f 25/4/29 26/4/30 23/4/27
f 26/4/30 17/4/21 6/4/11
f 13/4/19 6/4/11 17/4/21
f 15/4/4 13/4/19 16/4/6
f 6/4/11 13/4/19 5/4/9
f 4/4/7 26/4/30 6/4/11
f 13/4/19 15/4/4 12/4/17
f 26/4/30 4/4/7 27/4/31
f 23/4/27 26/4/30 27/4/31
f 4/4/7 28/4/32 27/4/31
f 23/4/27 27/4/31 28/4/32
f 28/4/32 4/4/7 3/4/3
f 23/4/27 28/4/32 29/4/33
f 3/4/3 29/4/33 28/4/32
f 22/4/26 23/4/27 29/4/33
f 29/4/33 3/4/3 20/4/18
f 20/4/18 22/4/26 29/4/33
f 22/4/26 20/4/18 8/4/13
f 19/4/20 8/4/13 20/4/18
f 8/4/13 19/4/20 7/4/10
f 30/4/34 12/4/17 15/4/4
f 14/4/8 30/4/34 15/4/4
f 7/4/10 14/4/8 9/4/5
f 12/4/17 30/4/34 31/4/35
f 30/4/34 32/4/36 31/4/35
f 31/4/35 11/4/14 12/4/17
f 30/4/34 14/4/8 33/4/37
f 33/4/37 32/4/36 30/4/34
f 14/4/8 34/4/38 33/4/37
f 33/4/37 34/4/38 32/4/36
f 14/4/8 7/4/10 35/4/12
f 34/4/38 14/4/8 35/4/12
f 36/4/22 7/4/10 19/4/20
f 7/4/10 36/4/22 35/4/12
f 35/4/12 37/4/39 34/4/38
f 34/4/38 37/4/39 32/4/36
f 37/4/39 35/4/12 36/4/22
f 19/4/20 38/4/24 36/4/22
f 38/4/24 19/4/20 1/4/1
f 2/4/2 38/4/24 1/4/1
f 36/4/22 39/4/40 37/4/39
f 39/4/40 36/4/22 38/4/24
f 32/4/36 37/4/39 39/4/40
f 38/4/24 2/4/2 40/4/16
f 40/4/16 39/4/40 38/4/24
f 5/4/9 40/4/16 2/4/2
f 40/4/16 5/4/9 11/4/14
f 39/4/40 40/4/16 41/4/41
f 32/4/36 39/4/40 41/4/41
f 11/4/14 41/4/41 40/4/16
f 32/4/36 41/4/41 42/4/42
f 41/4/41 11/4/14 42/4/42
f 32/4/36 42/4/42 31/4/35
f 11/4/14 31/4/35 42/4/42
f 9/4/2 10/4/16 16/4/1
f 18/4/24 16/4/1 10/4/16
f 10/4/16 21/4/41 18/4/24
f 21/4/41 10/4/16 22/4/42
f 22/4/42 23/4/36 21/4/41
f 8/4/14 22/4/42 10/4/16
f 24/4/40 18/4/24 21/4/41
f 23/4/36 24/4/40 21/4/41
f 24/4/40 25/4/39 18/4/24
f 23/4/36 25/4/39 24/4/40
f 17/4/22 18/4/24 25/4/39
f 25/4/39 26/4/38 17/4/22
f 23/4/36 26/4/38 25/4/39
f 6/4/12 17/4/22 26/4/38
f 17/4/22 6/4/12 13/4/20
f 16/4/1 13/4/20 15/4/3
f 5/4/10 13/4/20 6/4/12
f 6/4/12 26/4/38 4/4/8
f 12/4/18 15/4/3 13/4/20
f 27/4/37 4/4/8 26/4/38
f 27/4/37 26/4/38 23/4/36
f 27/4/37 28/4/34 4/4/8
f 28/4/34 27/4/37 23/4/36
f 3/4/4 4/4/8 28/4/34
f 29/4/35 28/4/34 23/4/36
f 28/4/34 29/4/35 3/4/4
f 29/4/35 23/4/36 22/4/42
f 20/4/17 3/4/4 29/4/35
f 29/4/35 22/4/42 20/4/17
f 8/4/14 20/4/17 22/4/42
f 20/4/17 8/4/14 19/4/19
f 7/4/9 19/4/19 8/4/14
f 15/4/3 12/4/18 30/4/32
f 15/4/3 30/4/32 14/4/7
f 9/4/2 14/4/7 7/4/9
f 31/4/33 30/4/32 12/4/18
f 31/4/33 32/4/27 30/4/32
f 12/4/18 11/4/13 31/4/33
f 33/4/31 14/4/7 30/4/32
f 30/4/32 32/4/27 33/4/31
f 33/4/31 34/4/30 14/4/7
f 32/4/27 34/4/30 33/4/31
f 35/4/11 7/4/9 14/4/7
f 35/4/11 14/4/7 34/4/30
f 19/4/19 7/4/9 36/4/21
f 35/4/11 36/4/21 7/4/9
f 34/4/30 37/4/29 35/4/11
f 32/4/27 37/4/29 34/4/30
f 36/4/21 35/4/11 37/4/29
f 36/4/21 38/4/23 19/4/19
f 1/4/6 19/4/19 38/4/23
f 1/4/6 38/4/23 2/4/5
f 37/4/29 39/4/28 36/4/21
f 38/4/23 36/4/21 39/4/28
f 39/4/28 37/4/29 32/4/27
f 40/4/15 2/4/5 38/4/23
f 38/4/23 39/4/28 40/4/15
f 2/4/5 40/4/15 5/4/10
f 11/4/13 5/4/10 40/4/15
f 41/4/25 40/4/15 39/4/28
f 41/4/25 39/4/28 32/4/27
f 40/4/15 41/4/25 11/4/13
f 42/4/26 41/4/25 32/4/27
f 42/4/26 11/4/13 41/4/25
f 31/4/33 42/4/26 32/4/27
f 42/4/26 31/4/33 11/4/13

usemtl yellow

f 1/7/27 5/6/27 2/5/27
f 5/6/27 1/7/27 13/8/27
f 13/8/27 1/7/27 19/9/27
f 13/8/27 19/9/27 16/3/27
f 16/3/27 19/9/27 7/2/27
f 16/3/27 7/2/27 9/1/27
f 2/5/36 5/6/36 1/7/36
f 13/8/36 1/7/36 5/6/36
f 19/9/36 1/7/36 13/8/36
f 16/3/36 19/9/36 13/8/36
f 7/2/36 19/9/36 16/3/36
f 9/1/36 7/2/36 16/3/36

