# Created by Kenney (www.kenney.nl)

mtllib support_base.mtl

g support_base

v -0.15 0.25 -0.3
v 0.15 0.25 -0.3
v -0.1 0.5 -0.2
v 0.1 0.5 -0.2
v -0.15 4.511946E-17 -0.3
v 0.15 4.511946E-17 -0.3
v -0.3 4.511946E-17 -0.15
v -0.3 0.25 -0.15
v -0.3 4.511946E-17 0.15
v -0.3 0.25 0.15
v 0.15 4.511946E-17 0.3
v -0.15 4.511946E-17 0.3
v 0.15 0.25 0.3
v -0.15 0.25 0.3
v -0.2 0.5 -0.1
v 0.3 4.511946E-17 0.15
v 0.3 4.511946E-17 -0.15
v -0.2 0.5 0.1
v -0.1 0.5 0.2
v 0.2 0.5 0.1
v 0.3 0.25 0.15
v 0.1 0.5 0.2
v 0.3 0.25 -0.15
v 0.2 0.5 -0.1

vn -0.3546523 0.4075342 -0.8415092
vn 0.3546523 0.4075342 -0.8415092
vn -0.3425401 0.4071807 -0.8466818
vn 0.3425401 0.4071807 -0.8466818
vn 0.3425401 -0.4071807 0.8466818
vn -0.3546523 -0.4075342 0.8415092
vn 0.3546523 -0.4075342 0.8415092
vn -0.3425401 -0.4071807 0.8466818
vn -0.3826834 0 -0.9238795
vn 0.3826834 0 -0.9238795
vn 0.3826834 0 0.9238795
vn -0.3826834 0 0.9238795
vn -0.9238795 0 -0.3826834
vn -0.9238795 0 0.3826834
vn 0.9238795 0 -0.3826834
vn 0.9238795 0 0.3826834
vn -0.8415092 0.4075342 -0.3546523
vn -0.8466818 0.4071807 -0.3425401
vn 0.8415092 -0.4075342 0.3546523
vn 0.8466818 -0.4071807 0.3425401
vn 0 -1 0
vn 0 1 0
vn -0.8466818 0.4071807 0.3425401
vn -0.3425401 0.4071807 0.8466818
vn -0.8415092 0.4075342 0.3546523
vn -0.3546523 0.4075342 0.8415092
vn 0.8415092 -0.4075342 -0.3546523
vn 0.3425401 -0.4071807 -0.8466818
vn 0.8466818 -0.4071807 -0.3425401
vn 0.3546523 -0.4075342 -0.8415092
vn 0.8466818 0.4071807 0.3425401
vn 0.8415092 0.4075342 0.3546523
vn 0.3425401 0.4071807 0.8466818
vn 0.3546523 0.4075342 0.8415092
vn -0.3425401 -0.4071807 -0.8466818
vn -0.8415092 -0.4075342 -0.3546523
vn -0.8466818 -0.4071807 -0.3425401
vn -0.3546523 -0.4075342 -0.8415092
vn 0.8415092 0.4075342 -0.3546523
vn 0.8466818 0.4071807 -0.3425401
vn -0.8415092 -0.4075342 0.3546523
vn -0.8466818 -0.4071807 0.3425401

vt 5.905512 4.752046
vt -5.905512 4.752046
vt 3.937008 15.35276
vt -3.937008 15.35276
vt 5.905512 1.776357E-15
vt -5.905512 1.776357E-15
vt 5.905512 9.84252
vt -5.905512 9.84252
vt -4.175828 4.167956
vt -2.783885 14.85967
vt 4.175828 4.167956
vt 2.783885 14.85967
vt 11.81102 5.905512
vt 11.81102 -5.905512
vt 5.905512 11.81102
vt 5.905512 -11.81102
vt -5.905512 11.81102
vt -5.905512 -11.81102
vt -11.81102 5.905512
vt -11.81102 -5.905512
vt 4.175828 9.84252
vt 4.175828 1.776357E-15
vt -4.175828 9.84252
vt -4.175828 1.776357E-15
vt -7.874016 -3.937008
vt -7.874016 3.937008
vt -3.937008 -7.874016
vt -3.937008 7.874016
vt 3.937008 -7.874016
vt 3.937008 7.874016
vt 7.874016 -3.937008
vt 7.874016 3.937008

usemtl dark

f 3/3/3 2/2/2 1/1/1
f 2/2/2 3/3/3 4/4/4
f 1/1/7 2/2/6 3/3/5
f 4/4/8 3/3/5 2/2/6
f 1/7/9 6/6/10 5/5/9
f 6/6/10 1/7/9 2/8/10
f 5/5/11 6/6/12 1/7/11
f 2/8/12 1/7/11 6/6/12
f 9/5/14 8/8/13 7/6/13
f 8/8/13 9/5/14 10/7/14
f 7/6/16 8/8/16 9/5/15
f 10/7/15 9/5/15 8/8/16
f 13/7/11 12/6/12 11/5/11
f 12/6/12 13/7/11 14/8/12
f 11/5/9 12/6/10 13/7/9
f 14/8/10 13/7/9 12/6/10
f 8/11/17 3/10/3 1/9/1
f 3/10/3 8/11/17 15/12/18
f 1/9/7 3/10/5 8/11/19
f 15/12/20 8/11/19 3/10/5
f 11/15/21 17/14/21 16/13/21
f 17/14/21 11/15/21 6/16/21
f 6/16/21 11/15/21 12/17/21
f 6/16/21 12/17/21 5/18/21
f 5/18/21 12/17/21 9/19/21
f 5/18/21 9/19/21 7/20/21
f 16/13/22 17/14/22 11/15/22
f 6/16/22 11/15/22 17/14/22
f 12/17/22 11/15/22 6/16/22
f 5/18/22 12/17/22 6/16/22
f 9/19/22 12/17/22 5/18/22
f 7/20/22 9/19/22 5/18/22
f 10/9/25 19/12/24 18/10/23
f 19/12/24 10/9/25 14/11/26
f 18/10/29 19/12/28 10/9/27
f 14/11/30 10/9/27 19/12/28
f 22/10/33 21/11/32 20/12/31
f 21/11/32 22/10/33 13/9/34
f 20/12/37 21/11/36 22/10/35
f 13/9/38 22/10/35 21/11/36
f 22/3/33 14/2/26 13/1/34
f 14/2/26 22/3/33 19/4/24
f 13/1/38 14/2/30 22/3/35
f 19/4/28 22/3/35 14/2/30
f 13/23/11 16/22/16 21/21/16
f 16/22/16 13/23/11 11/24/11
f 21/21/13 16/22/13 13/23/9
f 11/24/9 13/23/9 16/22/13
f 7/22/13 1/23/9 5/24/9
f 1/23/9 7/22/13 8/21/13
f 5/24/11 1/23/11 7/22/16
f 8/21/16 7/22/16 1/23/11
f 21/8/16 17/5/15 23/7/15
f 17/5/15 21/8/16 16/6/16
f 23/7/14 17/5/14 21/8/13
f 16/6/13 21/8/13 17/5/14
f 23/23/15 6/22/10 2/21/10
f 6/22/10 23/23/15 17/24/15
f 2/21/12 6/22/12 23/23/14
f 17/24/14 23/23/14 6/22/12
f 12/22/12 10/23/14 9/24/14
f 10/23/14 12/22/12 14/21/12
f 9/24/15 10/23/15 12/22/10
f 14/21/10 12/22/10 10/23/15
f 10/1/25 15/4/18 8/2/17
f 15/4/18 10/1/25 18/3/23
f 8/2/19 15/4/20 10/1/27
f 18/3/29 10/1/27 15/4/20
f 4/12/4 23/9/39 2/11/2
f 23/9/39 4/12/4 24/10/40
f 2/11/6 23/9/41 4/12/8
f 24/10/42 4/12/8 23/9/41
f 4/27/22 20/26/22 24/25/22
f 20/26/22 4/27/22 22/28/22
f 22/28/22 4/27/22 3/29/22
f 22/28/22 3/29/22 19/30/22
f 19/30/22 3/29/22 15/31/22
f 19/30/22 15/31/22 18/32/22
f 24/25/21 20/26/21 4/27/21
f 22/28/21 4/27/21 20/26/21
f 3/29/21 4/27/21 22/28/21
f 19/30/21 3/29/21 22/28/21
f 15/31/21 3/29/21 19/30/21
f 18/32/21 15/31/21 19/30/21
f 24/3/40 21/2/32 23/1/39
f 21/2/32 24/3/40 20/4/31
f 23/1/41 21/2/36 24/3/42
f 20/4/37 24/3/42 21/2/36

