# Created by Kenney (www.kenney.nl)

mtllib tree_tall.mtl

g tree_tall

v 0.1002716 1.922867 -0.2005433
v 0.2005433 1.922867 -0.1002716
v -2.887646E-15 2.432687 -6.208438E-14
v -0.1002716 1.922867 -0.2005433
v -0.2005433 1.922867 -0.1002716
v -0.2005433 1.922867 0.1002716
v 0.2005433 1.922867 0.1002716
v 0.1002716 1.922867 0.2005433
v -0.1002716 1.922867 0.2005433
v -0.05445193 -2.255973E-17 -0.1089039
v -0.03861839 1.289638 -0.07723678
v -0.1089039 -2.255973E-17 -0.05445193
v -0.07723678 1.289638 -0.03861839
v 0.375 1.289638 0.1875
v 0.1875 1.289638 0.375
v 0.2237055 1.604923 0.1118528
v 0.1118528 1.604923 0.2237055
v -0.375 1.289638 -0.1875
v -0.1875 1.289638 -0.375
v -0.2237055 1.604923 -0.1118528
v -0.1118528 1.604923 -0.2237055
v -0.1584821 1.604923 -0.3169643
v 0.1584821 1.604923 -0.3169643
v -0.07632275 1.922867 -0.1526455
v 0.07632275 1.922867 -0.1526455
v 0.1875 1.289638 -0.375
v 0.1118528 1.604923 -0.2237055
v -0.375 1.289638 0.1875
v -0.2237055 1.604923 0.1118528
v 0.3169643 1.604923 -0.1584821
v 0.3169643 1.604923 0.1584821
v 0.1526455 1.922867 -0.07632275
v 0.1526455 1.922867 0.07632275
v 0.05445193 -2.255973E-17 -0.1089039
v 0.03861839 1.289638 -0.07723678
v 0.05445193 -2.255973E-17 0.1089039
v -0.05445193 -2.255973E-17 0.1089039
v 0.03861839 1.289638 0.07723678
v -0.03861839 1.289638 0.07723678
v 0.1584821 1.604923 0.3169643
v 0.07632275 1.922867 0.1526455
v -0.1584821 1.604923 0.3169643
v -0.07632275 1.922867 0.1526455
v -0.07723678 1.289638 0.03861839
v -0.1089039 -2.255973E-17 0.05445193
v -0.1875 1.289638 0.375
v -0.1118528 1.604923 0.2237055
v 0.375 1.289638 -0.1875
v 0.2237055 1.604923 -0.1118528
v 0.07723678 1.289638 0.03861839
v 0.1089039 -2.255973E-17 0.05445193
v 0.1089039 -2.255973E-17 -0.05445193
v 0.07723678 1.289638 -0.03861839
v -0.3169643 1.604923 -0.1584821
v -0.3169643 1.604923 0.1584821
v -0.1526455 1.922867 -0.07632275
v -0.1526455 1.922867 0.07632275

vn 0.3555629 0.4018683 -0.8438465
vn 0.8438465 0.4018683 -0.3555629
vn 0 1 0
vn 0 -1 0
vn -0.8438465 -0.4018683 0.3555629
vn -0.3555629 -0.4018683 0.8438465
vn -0.3555629 0.4018683 -0.8438465
vn 0.3555629 -0.4018683 0.8438465
vn -0.8438465 0.4018683 -0.3555629
vn -0.8438465 0.4018683 0.3555629
vn 0.8438465 -0.4018683 -0.3555629
vn 0.8438465 -0.4018683 0.3555629
vn 0.8438465 0.4018683 0.3555629
vn 0.3555629 0.4018683 0.8438465
vn -0.3555629 -0.4018683 -0.8438465
vn -0.8438465 -0.4018683 -0.3555629
vn -0.3555629 0.4018683 0.8438465
vn 0.3555629 -0.4018683 -0.8438465
vn -0.3829734 0.02737492 -0.9233537
vn -0.382098 0.02737308 -0.9237164
vn -0.9233537 0.02737492 -0.3829734
vn -0.9237164 0.02737308 -0.382098
vn 0.9233537 -0.02737492 0.3829734
vn 0.382098 -0.02737308 0.9237164
vn 0.3829734 -0.02737492 0.9233537
vn 0.9237164 -0.02737308 0.382098
vn 0.8121054 0.4720124 0.3430584
vn 0.3430584 0.4720124 0.8121054
vn 0.8179857 0.4715649 0.3294327
vn 0.3294327 0.4715649 0.8179857
vn -0.8179857 -0.4715649 -0.3294327
vn -0.3430584 -0.4720124 -0.8121054
vn -0.8121054 -0.4720124 -0.3430584
vn -0.3294327 -0.4715649 -0.8179857
vn -0.8121054 0.4720124 -0.3430584
vn -0.3430584 0.4720124 -0.8121054
vn -0.8179857 0.4715649 -0.3294327
vn -0.3294327 0.4715649 -0.8179857
vn 0.8179857 -0.4715649 0.3294327
vn 0.3430584 -0.4720124 0.8121054
vn 0.8121054 -0.4720124 0.3430584
vn 0.3294327 -0.4715649 0.8179857
vn -0.3373795 0.4995452 -0.7978907
vn 0.3373795 0.4995452 -0.7978907
vn -0.3231682 0.4990583 -0.8040541
vn 0.3231682 0.4990583 -0.8040541
vn 0.3231682 -0.4990583 0.8040541
vn -0.3373795 -0.4995452 0.7978907
vn 0.3373795 -0.4995452 0.7978907
vn -0.3231682 -0.4990583 0.8040541
vn 0.3430584 0.4720124 -0.8121054
vn 0.3294327 0.4715649 -0.8179857
vn -0.3430584 -0.4720124 0.8121054
vn -0.3294327 -0.4715649 0.8179857
vn -0.8121054 0.4720124 0.3430584
vn -0.8179857 0.4715649 0.3294327
vn 0.8121054 -0.4720124 -0.3430584
vn 0.8179857 -0.4715649 -0.3294327
vn 0.7978907 0.4995452 -0.3373795
vn 0.7978907 0.4995452 0.3373795
vn 0.8040541 0.4990583 -0.3231682
vn 0.8040541 0.4990583 0.3231682
vn -0.8040541 -0.4990583 0.3231682
vn -0.7978907 -0.4995452 -0.3373795
vn -0.7978907 -0.4995452 0.3373795
vn -0.8040541 -0.4990583 -0.3231682
vn 0.3829734 0.02737492 -0.9233537
vn 0.382098 0.02737308 -0.9237164
vn -0.3829734 -0.02737492 0.9233537
vn -0.382098 -0.02737308 0.9237164
vn 0.3829734 0.02737492 0.9233537
vn -0.3829734 0.02737492 0.9233537
vn 0.382098 0.02737308 0.9237164
vn -0.382098 0.02737308 0.9237164
vn -0.382098 -0.02737308 -0.9237164
vn 0.3829734 -0.02737492 -0.9233537
vn -0.3829734 -0.02737492 -0.9233537
vn 0.382098 -0.02737308 -0.9237164
vn 0.3373795 0.4995452 0.7978907
vn 0.3231682 0.4990583 0.8040541
vn -0.3373795 -0.4995452 -0.7978907
vn -0.3231682 -0.4990583 -0.8040541
vn -0.3373795 0.4995452 0.7978907
vn -0.3231682 0.4990583 0.8040541
vn 0.3373795 -0.4995452 -0.7978907
vn 0.3231682 -0.4990583 -0.8040541
vn -0.9237164 0.02737308 0.382098
vn -0.9233537 0.02737492 0.3829734
vn 0.9233537 -0.02737492 -0.3829734
vn 0.9237164 -0.02737308 -0.382098
vn -0.3430584 0.4720124 0.8121054
vn -0.3294327 0.4715649 0.8179857
vn 0.3430584 -0.4720124 -0.8121054
vn 0.3294327 -0.4715649 -0.8179857
vn 0.8121054 0.4720124 -0.3430584
vn 0.8179857 0.4715649 -0.3294327
vn -0.8179857 -0.4715649 0.3294327
vn -0.8121054 -0.4720124 0.3430584
vn 0.9237164 0.02737308 0.382098
vn 0.9233537 0.02737492 0.3829734
vn -0.9233537 -0.02737492 -0.3829734
vn -0.9237164 -0.02737308 -0.382098
vn 0.9233537 0.02737492 -0.3829734
vn 0.9237164 0.02737308 -0.382098
vn -0.9237164 -0.02737308 0.382098
vn -0.9233537 -0.02737492 0.3829734
vn -0.7978907 0.4995452 -0.3373795
vn -0.8040541 0.4990583 -0.3231682
vn -0.7978907 0.4995452 0.3373795
vn -0.8040541 0.4990583 0.3231682
vn 0.7978907 -0.4995452 -0.3373795
vn 0.8040541 -0.4990583 0.3231682
vn 0.7978907 -0.4995452 0.3373795
vn 0.8040541 -0.4990583 -0.3231682

vt 2.791447 66.64174
vt -2.791447 66.64174
vt 1.805194E-12 88.39034
vt 3.947703 67.55882
vt -3.947703 67.55882
vt 1.136868E-13 89.12753
vt -2.444267E-12 89.12753
vt 1.647969E-12 88.39034
vt -1.644416E-12 88.39034
vt -1.136868E-13 89.12753
vt 2.444267E-12 89.12753
vt -1.805194E-12 88.39034
vt -1.515879 -0.1184009
vt -1.075091 50.67196
vt 1.515879 -0.1184009
vt 1.075091 50.67196
vt 5.219784 38.1462
vt -5.219784 38.1462
vt 3.113852 52.07431
vt -3.113852 52.07431
vt 6.239454 50.40321
vt -6.239454 50.40321
vt 3.004833 64.49356
vt -3.004833 64.49356
vt 7.38189 39.38827
vt -7.38189 39.38827
vt 4.403652 53.15625
vt -4.403652 53.15625
vt 2.143777 -0.1052492
vt -2.143777 -0.1052492
vt 1.520409 50.6832
vt -1.520409 50.6832
vt 4.411961 49.04507
vt -4.411961 49.04507
vt 2.124738 63.31987
vt -2.124738 63.31987
vt 12.47891 6.239454
vt 12.47891 -6.239454
vt 6.239454 12.47891
vt 8.807303 4.403652
vt 8.807303 -4.403652
vt 4.403652 8.807303
vt 6.239454 -12.47891
vt 4.403652 -8.807303
vt -6.239454 12.47891
vt -4.403652 8.807303
vt -6.239454 -12.47891
vt -4.403652 -8.807303
vt -8.807303 -4.403652
vt -12.47891 -6.239454
vt -8.807303 4.403652
vt -12.47891 6.239454
vt 14.76378 7.38189
vt 14.76378 -7.38189
vt 7.38189 14.76378
vt 7.38189 -14.76378
vt 3.040818 1.520409
vt -7.38189 14.76378
vt 3.040818 -1.520409
vt 1.520409 3.040818
vt -7.38189 -14.76378
vt -1.520409 3.040818
vt 1.520409 -3.040818
vt -3.040818 1.520409
vt -1.520409 -3.040818
vt -3.040818 -1.520409
vt -14.76378 7.38189
vt -14.76378 -7.38189
vt 4.287553 2.143777
vt 4.287553 -2.143777
vt 2.143777 4.287553
vt 2.143777 -4.287553
vt -2.143777 4.287553
vt -2.143777 -4.287553
vt -4.287553 2.143777
vt -4.287553 -2.143777
vt 7.895406 -3.947703
vt 6.009665 3.004833
vt 7.895406 3.947703
vt 3.947703 7.895406
vt 6.009665 -3.004833
vt 3.004833 6.009665
vt 3.947703 -7.895406
vt 3.004833 -6.009665
vt -3.947703 7.895406
vt -3.004833 6.009665
vt -3.947703 -7.895406
vt -3.004833 -6.009665
vt -6.009665 -3.004833
vt -7.895406 -3.947703
vt -6.009665 3.004833
vt -7.895406 3.947703

usemtl dark

f 3/3/3 2/2/2 1/1/1
f 1/1/6 2/2/5 3/3/4
f 3/6/3 1/5/1 4/4/7
f 4/4/8 1/5/6 3/6/4
f 6/4/10 3/7/3 5/5/9
f 5/5/12 3/7/4 6/4/11
f 3/8/3 8/2/14 7/1/13
f 7/1/16 8/2/15 3/8/4
f 3/9/3 4/2/7 5/1/9
f 5/1/12 4/2/8 3/9/4
f 3/10/3 9/5/17 8/4/14
f 8/4/15 9/5/18 3/10/4
f 7/5/13 2/4/2 3/11/3
f 3/11/4 2/4/5 7/5/16
f 3/12/3 6/2/10 9/1/17
f 9/1/18 6/2/11 3/12/4
f 12/15/21 11/14/20 10/13/19
f 11/14/20 12/15/21 13/16/22
f 10/13/25 11/14/24 12/15/23
f 13/16/26 12/15/23 11/14/24
f 16/19/29 15/18/28 14/17/27
f 15/18/28 16/19/29 17/20/30
f 14/17/33 15/18/32 16/19/31
f 17/20/34 16/19/31 15/18/32
f 20/19/37 19/18/36 18/17/35
f 19/18/36 20/19/37 21/20/38
f 18/17/41 19/18/40 20/19/39
f 21/20/42 20/19/39 19/18/40
f 24/23/45 23/22/44 22/21/43
f 23/22/44 24/23/45 25/24/46
f 22/21/49 23/22/48 24/23/47
f 25/24/50 24/23/47 23/22/48
f 21/27/38 26/26/51 19/25/36
f 26/26/51 21/27/38 27/28/52
f 19/25/40 26/26/53 21/27/42
f 27/28/54 21/27/42 26/26/53
f 28/25/55 20/28/37 18/26/35
f 20/28/37 28/25/55 29/27/56
f 18/26/41 20/28/39 28/25/57
f 29/27/58 28/25/57 20/28/39
f 32/23/61 31/22/60 30/21/59
f 31/22/60 32/23/61 33/24/62
f 30/21/65 31/22/64 32/23/63
f 33/24/66 32/23/63 31/22/64
f 11/31/20 34/30/67 10/29/19
f 34/30/67 11/31/20 35/32/68
f 10/29/25 34/30/69 11/31/24
f 35/32/70 11/31/24 34/30/69
f 38/31/73 37/30/72 36/29/71
f 37/30/72 38/31/73 39/32/74
f 36/29/77 37/30/76 38/31/75
f 39/32/78 38/31/75 37/30/76
f 33/35/62 40/34/79 31/33/60
f 40/34/79 33/35/62 41/36/80
f 31/33/64 40/34/81 33/35/66
f 41/36/82 33/35/66 40/34/81
f 41/23/80 42/22/83 40/21/79
f 42/22/83 41/23/80 43/24/84
f 40/21/81 42/22/85 41/23/82
f 43/24/86 41/23/82 42/22/85
f 45/13/88 39/16/74 44/14/87
f 39/16/74 45/13/88 37/15/72
f 44/14/90 39/16/78 45/13/89
f 37/15/76 45/13/89 39/16/78
f 17/27/30 46/26/91 15/25/28
f 46/26/91 17/27/30 47/28/92
f 15/25/32 46/26/93 17/27/34
f 47/28/94 17/27/34 46/26/93
f 49/27/96 14/26/27 48/25/95
f 14/26/27 49/27/96 16/28/29
f 48/25/98 14/26/33 49/27/97
f 16/28/31 49/27/97 14/26/33
f 45/29/88 13/32/22 12/30/21
f 13/32/22 45/29/88 44/31/87
f 12/30/23 13/32/26 45/29/89
f 44/31/90 45/29/89 13/32/26
f 27/19/52 48/18/95 26/17/51
f 48/18/95 27/19/52 49/20/96
f 26/17/53 48/18/98 27/19/54
f 49/20/97 27/19/54 48/18/98
f 38/14/73 51/15/100 50/16/99
f 51/15/100 38/14/73 36/13/71
f 50/16/102 51/15/101 38/14/75
f 36/13/77 38/14/75 51/15/101
f 53/31/104 51/30/100 52/29/103
f 51/30/100 53/31/104 50/32/99
f 52/29/106 51/30/101 53/31/105
f 50/32/102 53/31/105 51/30/101
f 47/19/92 28/18/55 46/17/91
f 28/18/55 47/19/92 29/20/56
f 46/17/93 28/18/57 47/19/94
f 29/20/58 47/19/94 28/18/57
f 40/39/4 30/38/4 31/37/4
f 30/38/4 40/39/4 16/40/4
f 30/38/4 16/40/4 49/41/4
f 16/40/4 40/39/4 17/42/4
f 49/41/4 23/43/4 30/38/4
f 23/43/4 49/41/4 27/44/4
f 17/42/4 40/39/4 42/45/4
f 17/42/4 42/45/4 47/46/4
f 23/43/4 27/44/4 22/47/4
f 22/47/4 27/44/4 21/48/4
f 22/47/4 21/48/4 20/49/4
f 22/47/4 20/49/4 54/50/4
f 47/46/4 42/45/4 29/51/4
f 54/50/4 20/49/4 29/51/4
f 29/51/4 42/45/4 55/52/4
f 54/50/4 29/51/4 55/52/4
f 31/37/3 30/38/3 40/39/3
f 16/40/3 40/39/3 30/38/3
f 49/41/3 16/40/3 30/38/3
f 17/42/3 40/39/3 16/40/3
f 30/38/3 23/43/3 49/41/3
f 27/44/3 49/41/3 23/43/3
f 42/45/3 40/39/3 17/42/3
f 47/46/3 42/45/3 17/42/3
f 22/47/3 27/44/3 23/43/3
f 21/48/3 27/44/3 22/47/3
f 20/49/3 21/48/3 22/47/3
f 54/50/3 20/49/3 22/47/3
f 29/51/3 42/45/3 47/46/3
f 29/51/3 20/49/3 54/50/3
f 55/52/3 42/45/3 29/51/3
f 55/52/3 29/51/3 54/50/3
f 15/55/4 48/54/4 14/53/4
f 48/54/4 15/55/4 26/56/4
f 26/56/4 15/55/4 50/57/4
f 50/57/4 15/55/4 46/58/4
f 53/59/4 26/56/4 50/57/4
f 50/57/4 46/58/4 38/60/4
f 26/56/4 53/59/4 19/61/4
f 38/60/4 46/58/4 39/62/4
f 19/61/4 53/59/4 35/63/4
f 39/62/4 46/58/4 44/64/4
f 19/61/4 35/63/4 11/65/4
f 44/64/4 46/58/4 13/66/4
f 19/61/4 11/65/4 13/66/4
f 19/61/4 13/66/4 46/58/4
f 19/61/4 46/58/4 28/67/4
f 19/61/4 28/67/4 18/68/4
f 14/53/3 48/54/3 15/55/3
f 26/56/3 15/55/3 48/54/3
f 50/57/3 15/55/3 26/56/3
f 46/58/3 15/55/3 50/57/3
f 50/57/3 26/56/3 53/59/3
f 38/60/3 46/58/3 50/57/3
f 19/61/3 53/59/3 26/56/3
f 39/62/3 46/58/3 38/60/3
f 35/63/3 53/59/3 19/61/3
f 44/64/3 46/58/3 39/62/3
f 11/65/3 35/63/3 19/61/3
f 13/66/3 46/58/3 44/64/3
f 13/66/3 11/65/3 19/61/3
f 46/58/3 13/66/3 19/61/3
f 28/67/3 46/58/3 19/61/3
f 18/68/3 28/67/3 19/61/3
f 55/21/109 56/24/108 54/22/107
f 56/24/108 55/21/109 57/23/110
f 54/22/113 56/24/112 55/21/111
f 57/23/114 55/21/111 56/24/112
f 56/35/108 22/34/43 54/33/107
f 22/34/43 56/35/108 24/36/45
f 54/33/113 22/34/49 56/35/112
f 24/36/47 56/35/112 22/34/49
f 35/16/68 52/13/103 34/15/67
f 52/13/103 35/16/68 53/14/104
f 34/15/69 52/13/106 35/16/70
f 53/14/105 35/16/70 52/13/106
f 25/35/46 30/34/59 23/33/44
f 30/34/59 25/35/46 32/36/61
f 23/33/48 30/34/65 25/35/50
f 32/36/63 25/35/50 30/34/65
f 43/35/84 55/34/109 42/33/83
f 55/34/109 43/35/84 57/36/110
f 42/33/85 55/34/111 43/35/86
f 57/36/114 43/35/86 55/34/111
f 36/71/4 52/70/4 51/69/4
f 52/70/4 36/71/4 34/72/4
f 34/72/4 36/71/4 37/73/4
f 34/72/4 37/73/4 10/74/4
f 10/74/4 37/73/4 45/75/4
f 10/74/4 45/75/4 12/76/4
f 51/69/3 52/70/3 36/71/3
f 34/72/3 36/71/3 52/70/3
f 37/73/3 36/71/3 34/72/3
f 10/74/3 37/73/3 34/72/3
f 45/75/3 37/73/3 10/74/3
f 12/76/3 45/75/3 10/74/3
f 7/79/4 33/78/4 2/77/4
f 33/78/4 7/79/4 8/80/4
f 2/77/4 33/78/4 32/81/4
f 33/78/4 8/80/4 41/82/4
f 32/81/4 1/83/4 2/77/4
f 1/83/4 32/81/4 25/84/4
f 41/82/4 8/80/4 9/85/4
f 41/82/4 9/85/4 43/86/4
f 1/83/4 25/84/4 4/87/4
f 4/87/4 25/84/4 24/88/4
f 4/87/4 24/88/4 56/89/4
f 4/87/4 56/89/4 5/90/4
f 43/86/4 9/85/4 57/91/4
f 5/90/4 56/89/4 57/91/4
f 57/91/4 9/85/4 6/92/4
f 5/90/4 57/91/4 6/92/4
f 2/77/3 33/78/3 7/79/3
f 8/80/3 7/79/3 33/78/3
f 32/81/3 33/78/3 2/77/3
f 41/82/3 8/80/3 33/78/3
f 2/77/3 1/83/3 32/81/3
f 25/84/3 32/81/3 1/83/3
f 9/85/3 8/80/3 41/82/3
f 43/86/3 9/85/3 41/82/3
f 4/87/3 25/84/3 1/83/3
f 24/88/3 25/84/3 4/87/3
f 56/89/3 24/88/3 4/87/3
f 5/90/3 56/89/3 4/87/3
f 57/91/3 9/85/3 43/86/3
f 57/91/3 56/89/3 5/90/3
f 6/92/3 9/85/3 57/91/3
f 6/92/3 57/91/3 5/90/3

