# Created by Kenney (www.kenney.nl)

mtllib slant_A.mtl

g slant_A

v 0.5 0.25 0.5
v 0.5 0 -0.5
v -0.5 0.25 0.5
v -0.5 0 -0.5
v 0.5 0.5 -0.5
v 0.5 0.75 0.5
v 0.35 0.5 -0.5
v 0.35 0.75 0.5
v 0.2875 0.5625 0.5
v 0.1 0.5 0.5
v -0.1 0.5 0.5
v -0.2875 0.5625 0.5
v -0.5 0.75 0.5
v -0.35 0.75 0.5
v -0.35 0.5 -0.5
v -0.5 0.5 -0.5
v -0.2875 0.3125 -0.5
v -0.1 0.25 -0.5
v 0.1 0.25 -0.5
v 0.2875 0.3125 -0.5

vn 0 -0.9701425 0.2425356
vn 0 0.9701425 -0.2425356
vn 0 0 1
vn 0 0 -1
vn 1 0 0
vn -1 0 0
vn -0.1518442 0.9588931 -0.2397233
vn -0.1594608 0.9577289 -0.2394322
vn 0.1518442 0.9588931 -0.2397233
vn 0.1594608 0.9577289 -0.2394322
vn -0.1518442 -0.9588931 0.2397233
vn 0.1594608 -0.9577289 0.2394322
vn 0.1518442 -0.9588931 0.2397233
vn -0.1594608 -0.9577289 0.2394322
vn -0.662863 0.7263851 -0.1815963
vn -0.7332633 0.6596433 -0.1649108
vn 0.7332633 -0.6596433 0.1649108
vn 0.662863 -0.7263851 0.1815963
vn 0.662863 0.7263851 -0.1815963
vn 0.7332633 0.6596433 -0.1649108
vn -0.662863 -0.7263851 0.1815963
vn -0.7332633 -0.6596433 0.1649108
vn 0.9457324 0.3152441 -0.07881103
vn -0.9457324 -0.3152441 0.07881103
vn -0.9457324 0.3152441 -0.07881103
vn 0.9457324 -0.3152441 0.07881103

vt 19.68504 21.48446
vt 19.68504 -19.09729
vt -19.68504 21.48446
vt -19.68504 -19.09729
vt -19.68504 -14.32297
vt -19.68504 26.25878
vt -13.77953 -14.32297
vt -13.77953 26.25878
vt 13.77953 29.52756
vt 19.68504 29.52756
vt 11.3189 22.14567
vt 19.68504 9.84252
vt -19.68504 9.84252
vt 3.937008 19.68504
vt -3.937008 19.68504
vt -11.3189 22.14567
vt -19.68504 29.52756
vt -13.77953 29.52756
vt 13.77953 19.68504
vt 19.68504 19.68504
vt 11.3189 12.30315
vt 19.68504 0
vt -19.68504 0
vt 3.937008 9.84252
vt -3.937008 9.84252
vt -11.3189 12.30315
vt -19.68504 19.68504
vt -13.77953 19.68504
vt 13.77953 -14.32297
vt 13.77953 26.25878
vt 19.68504 -14.32297
vt 19.68504 26.25878
vt -3.937008 -16.71013
vt -3.937008 23.87162
vt 3.937008 -16.71013
vt 3.937008 23.87162
vt -22.53937 2.188068
vt 8.956693 27.77862
vt -18.11024 -4.20957
vt 13.38583 21.38098
vt 18.11024 -4.20957
vt -13.38583 21.38098
vt 22.53937 2.188068
vt -8.956693 27.77862
vt 20.76137 22.49487
vt 20.55703 14.71636
vt -18.47272 32.86622
vt -18.67706 25.08771
vt -20.55703 14.71636
vt -20.76137 22.49487
vt 18.67706 25.08771
vt 18.47272 32.86622

usemtl green

f 3/3/1 2/2/1 1/1/1
f 2/2/1 3/3/1 4/4/1
f 1/1/2 2/2/2 3/3/2
f 4/4/2 3/3/2 2/2/2
f 7/7/2 6/6/2 5/5/2
f 6/6/2 7/7/2 8/8/2
f 5/5/1 6/6/1 7/7/1
f 8/8/1 7/7/1 6/6/1
f 9/11/3 6/10/3 8/9/3
f 9/11/3 1/12/3 6/10/3
f 1/12/3 9/11/3 3/13/3
f 3/13/3 9/11/3 10/14/3
f 11/15/3 3/13/3 10/14/3
f 12/16/3 3/13/3 11/15/3
f 3/13/3 12/16/3 13/17/3
f 13/17/3 12/16/3 14/18/3
f 8/9/4 6/10/4 9/11/4
f 6/10/4 1/12/4 9/11/4
f 3/13/4 9/11/4 1/12/4
f 10/14/4 9/11/4 3/13/4
f 10/14/4 3/13/4 11/15/4
f 11/15/4 3/13/4 12/16/4
f 13/17/4 12/16/4 3/13/4
f 14/18/4 12/16/4 13/17/4
f 17/21/4 16/20/4 15/19/4
f 17/21/4 4/22/4 16/20/4
f 4/22/4 17/21/4 2/23/4
f 2/23/4 17/21/4 18/24/4
f 19/25/4 2/23/4 18/24/4
f 20/26/4 2/23/4 19/25/4
f 2/23/4 20/26/4 5/27/4
f 5/27/4 20/26/4 7/28/4
f 15/19/3 16/20/3 17/21/3
f 16/20/3 4/22/3 17/21/3
f 2/23/3 17/21/3 4/22/3
f 18/24/3 17/21/3 2/23/3
f 18/24/3 2/23/3 19/25/3
f 19/25/3 2/23/3 20/26/3
f 5/27/3 20/26/3 2/23/3
f 7/28/3 20/26/3 5/27/3
f 16/31/2 14/30/2 15/29/2
f 14/30/2 16/31/2 13/32/2
f 15/29/1 14/30/1 16/31/1
f 13/32/1 16/31/1 14/30/1
f 6/17/5 2/22/5 5/20/5
f 2/22/5 6/17/5 1/13/5
f 5/20/6 2/22/6 6/17/6
f 1/13/6 6/17/6 2/22/6
f 3/12/6 16/27/6 4/23/6
f 16/27/6 3/12/6 13/10/6
f 4/23/5 16/27/5 3/12/5
f 13/10/5 3/12/5 16/27/5

usemtl yellow

f 18/35/9 10/34/8 19/33/7
f 10/34/8 18/35/9 11/36/10
f 19/33/13 10/34/12 18/35/11
f 11/36/14 18/35/11 10/34/12
f 19/39/7 9/38/16 20/37/15
f 9/38/16 19/39/7 10/40/8
f 20/37/18 9/38/17 19/39/13
f 10/40/12 19/39/13 9/38/17
f 17/43/19 11/42/10 18/41/9
f 11/42/10 17/43/19 12/44/20
f 18/41/11 11/42/14 17/43/21
f 12/44/22 17/43/21 11/42/14
f 14/47/23 17/46/19 15/45/23
f 17/46/19 14/47/23 12/48/20
f 15/45/24 17/46/21 14/47/24
f 12/48/22 14/47/24 17/46/21
f 9/51/16 7/50/25 20/49/15
f 7/50/25 9/51/16 8/52/25
f 20/49/18 7/50/26 9/51/17
f 8/52/26 9/51/17 7/50/26

