# Created by Kenney (www.kenney.nl)

mtllib banner.mtl

g banner

v 0.4625 0 0.01875
v 0.4625 0 -0.01875
v 0.44375 0 0.0375
v 0.44375 0 -0.0375
v 0.40625 0 0.0375
v 0.40625 0 -0.0375
v 0.3875 0 0.01875
v 0.3875 0 -0.01875
v 0.4625 0.5 0.01875
v 0.44375 0.5 0.0375
v 0.44375 0.5 -0.0375
v 0.4625 0.5 -0.01875
v 0.40625 0.5 0.0375
v -0.40625 0.5 -0.0375
v -0.40625 0 -0.0375
v -0.3875 0.5 -0.01875
v -0.3875 0 -0.01875
v -0.40625 0 0.0375
v -0.44375 0 0.0375
v -0.40625 0.5 0.0375
v -0.44375 0.5 0.0375
v -0.3875 0.5 0
v -0.3875 0.5 0.01875
v -0.44375 0.5 -0.0375
v -0.4625 0.5 -0.01875
v -0.4625 0.5 0.01875
v -0.4625 0 0.01875
v -0.44375 0 -0.0375
v -0.4625 0 -0.01875
v -0.3875 0 0.01875
v 0.40625 0.5 -0.0375
v 0.3875 0.5 0.01875
v 0.3875 0.5 -0.01875
v 0.3875 0.5 0
v -0.3875 0.25 0
v 0.3875 0.25 0

vn 0 -1 0
vn 0 1 0
vn 0.9238795 0 0.3826834
vn 0.3826834 0 0.9238795
vn -0.3826834 0 -0.9238795
vn -0.9238795 0 -0.3826834
vn 0.3826834 0 -0.9238795
vn 0.9238795 0 -0.3826834
vn -0.9238795 0 0.3826834
vn -0.3826834 0 0.9238795
vn 1 0 0
vn -1 0 0
vn 0 0 -1
vn 0 0 1

vt 18.20866 0.738189
vt 18.20866 -0.738189
vt 17.47047 1.476378
vt 17.47047 -1.476378
vt 15.99409 1.476378
vt 15.99409 -1.476378
vt 15.25591 0.738189
vt 15.25591 -0.738189
vt 12.35349 19.68504
vt 12.35349 0
vt 11.30953 19.68504
vt 11.30953 0
vt -11.30953 19.68504
vt -11.30953 0
vt -12.35349 19.68504
vt -12.35349 0
vt 17.47047 0
vt 15.99409 0
vt 17.47047 19.68504
vt 15.99409 19.68504
vt -15.99409 0
vt -17.47047 0
vt -15.99409 19.68504
vt -17.47047 19.68504
vt 15.25591 0
vt 0.738189 19.68504
vt 0.738189 0
vt 0 19.68504
vt -0.738189 0
vt -0.738189 19.68504
vt -15.25591 0.738189
vt -15.25591 -0.738189
vt -15.99409 1.476378
vt -15.99409 -1.476378
vt -17.47047 1.476378
vt -17.47047 -1.476378
vt -18.20866 0.738189
vt -18.20866 -0.738189
vt -15.25591 0
vt 15.25591 9.84252
vt -15.25591 9.84252
vt 15.25591 19.68504
vt -15.25591 19.68504

usemtl green

f 3/3/1 2/2/1 1/1/1
f 2/2/1 3/3/1 4/4/1
f 4/4/1 3/3/1 5/5/1
f 4/4/1 5/5/1 6/6/1
f 6/6/1 5/5/1 7/7/1
f 6/6/1 7/7/1 8/8/1
f 1/1/2 2/2/2 3/3/2
f 4/4/2 3/3/2 2/2/2
f 5/5/2 3/3/2 4/4/2
f 6/6/2 5/5/2 4/4/2
f 7/7/2 5/5/2 6/6/2
f 8/8/2 7/7/2 6/6/2
f 10/11/4 1/10/3 9/9/3
f 1/10/3 10/11/4 3/12/4
f 9/9/6 1/10/6 10/11/5
f 3/12/5 10/11/5 1/10/6
f 12/15/8 4/14/7 11/13/7
f 4/14/7 12/15/8 2/16/8
f 11/13/10 4/14/10 12/15/9
f 2/16/9 12/15/9 4/14/10
f 10/19/4 5/18/10 3/17/4
f 5/18/10 10/19/4 13/20/10
f 3/17/5 5/18/7 10/19/5
f 13/20/7 10/19/5 5/18/7
f 16/11/8 15/10/7 14/9/7
f 15/10/7 16/11/8 17/12/8
f 14/9/10 15/10/10 16/11/9
f 17/12/9 16/11/9 15/10/10
f 20/23/4 19/22/10 18/21/4
f 19/22/10 20/23/4 21/24/10
f 18/21/5 19/22/7 20/23/5
f 21/24/7 20/23/5 19/22/7
f 14/6/2 22/25/2 16/8/2
f 22/25/2 14/6/2 23/7/2
f 23/7/2 14/6/2 20/5/2
f 20/5/2 14/6/2 24/4/2
f 20/5/2 24/4/2 21/3/2
f 21/3/2 24/4/2 25/2/2
f 21/3/2 25/2/2 26/1/2
f 16/8/1 22/25/1 14/6/1
f 23/7/1 14/6/1 22/25/1
f 20/5/1 14/6/1 23/7/1
f 24/4/1 14/6/1 20/5/1
f 21/3/1 24/4/1 20/5/1
f 25/2/1 24/4/1 21/3/1
f 26/1/1 25/2/1 21/3/1
f 19/14/10 26/15/9 27/16/9
f 26/15/9 19/14/10 21/13/10
f 27/16/8 26/15/8 19/14/7
f 21/13/7 19/14/7 26/15/8
f 29/10/6 24/11/5 28/12/5
f 24/11/5 29/10/6 25/9/6
f 28/12/4 24/11/4 29/10/3
f 25/9/3 29/10/3 24/11/4
f 22/28/11 17/27/8 16/26/8
f 17/27/8 22/28/11 30/29/3
f 30/29/3 22/28/11 23/30/3
f 16/26/9 17/27/9 22/28/12
f 30/29/6 22/28/12 17/27/9
f 23/30/6 22/28/12 30/29/6
f 31/23/5 4/22/7 6/21/5
f 4/22/7 31/23/5 11/24/7
f 6/21/4 4/22/10 31/23/4
f 11/24/10 31/23/4 4/22/10
f 18/33/1 17/32/1 30/31/1
f 17/32/1 18/33/1 15/34/1
f 15/34/1 18/33/1 19/35/1
f 15/34/1 19/35/1 28/36/1
f 28/36/1 19/35/1 27/37/1
f 28/36/1 27/37/1 29/38/1
f 30/31/2 17/32/2 18/33/2
f 15/34/2 18/33/2 17/32/2
f 19/35/2 18/33/2 15/34/2
f 28/36/2 19/35/2 15/34/2
f 27/37/2 19/35/2 28/36/2
f 29/38/2 27/37/2 28/36/2
f 9/30/3 2/27/8 12/26/8
f 2/27/8 9/30/3 1/29/3
f 12/26/9 2/27/9 9/30/6
f 1/29/6 9/30/6 2/27/9
f 5/10/10 32/11/9 7/12/9
f 32/11/9 5/10/10 13/9/10
f 7/12/8 32/11/8 5/10/7
f 13/9/7 5/10/7 32/11/8
f 11/36/2 9/37/2 12/38/2
f 9/37/2 11/36/2 10/35/2
f 10/35/2 11/36/2 31/34/2
f 10/35/2 31/34/2 13/33/2
f 13/33/2 31/34/2 33/32/2
f 13/33/2 33/32/2 32/31/2
f 32/31/2 33/32/2 34/39/2
f 12/38/1 9/37/1 11/36/1
f 10/35/1 11/36/1 9/37/1
f 31/34/1 11/36/1 10/35/1
f 13/33/1 31/34/1 10/35/1
f 33/32/1 31/34/1 13/33/1
f 32/31/1 33/32/1 13/33/1
f 34/39/1 33/32/1 32/31/1
f 8/14/6 31/15/5 6/16/5
f 31/15/5 8/14/6 33/13/6
f 6/16/4 31/15/4 8/14/3
f 33/13/3 8/14/3 31/15/4
f 24/19/5 15/18/7 28/17/5
f 15/18/7 24/19/5 14/20/7
f 28/17/4 15/18/10 24/19/4
f 14/20/10 24/19/4 15/18/10
f 20/15/4 30/14/3 23/13/3
f 30/14/3 20/15/4 18/16/4
f 23/13/6 30/14/6 20/15/5
f 18/16/5 20/15/5 30/14/6
f 7/27/9 33/30/6 8/29/6
f 33/30/6 7/27/9 34/28/12
f 34/28/12 7/27/9 32/26/9
f 8/29/3 33/30/3 7/27/8
f 34/28/11 7/27/8 33/30/3
f 32/26/8 7/27/8 34/28/11
f 27/27/9 25/30/6 29/29/6
f 25/30/6 27/27/9 26/26/9
f 29/29/3 25/30/3 27/27/8
f 26/26/8 27/27/8 25/30/3

usemtl yellow

f 22/42/13 36/41/13 35/40/13
f 36/41/13 22/42/13 34/43/13
f 35/40/14 36/41/14 22/42/14
f 34/43/14 22/42/14 36/41/14

