# Created by Kenney (www.kenney.nl)

mtllib marble_center_butterfly_low.mtl

g marble_center_butterfly_low

v 0.117557 0.1618034 0
v 0.08312539 0.1618034 0.08312539
v 0 0.2 0
v 0.1902113 0.0618034 0
v 0.08312539 0.1618034 -0.08312539
v 2.255973E-17 0.1618034 -0.117557
v 0.1344997 0.0618034 -0.1344997
v -0.08312539 0.1618034 -0.08312539
v 4.511946E-17 0.0618034 -0.1902113
v 0.1902113 0 -2.887646E-15
v 0.1344997 0 -0.1344997
v -3.613114E-16 0 -0.1902113
v -0.1344997 0.0618034 -0.1344997
v 0.1344997 -0.0618034 -0.1344997
v 0.1344997 -2.255973E-17 0.1344997
v 0.1344997 0.0618034 0.1344997
v 0.1902113 -0.0618034 0
v 4.511946E-17 -0.0618034 -0.1902113
v -0.1344997 -2.255973E-17 -0.1344997
v 0.08312539 -0.1618034 -0.08312539
v -0.1902113 0.0618034 0
v -0.1902113 -2.255973E-17 0
v -0.117557 0.1618034 0
v -0.1344997 -0.0618034 -0.1344997
v 2.255973E-17 -0.1618034 -0.117557
v 0 -0.2 0
v 0.117557 -0.1618034 0
v -0.1902113 -0.0618034 0
v -0.08312539 -0.1618034 -0.08312539
v 0.1344997 -0.0618034 0.1344997
v -0.117557 -0.1618034 0
v -0.08312539 -0.1618034 0.08312539
v -0.1344997 -0.0618034 0.1344997
v 0.08312539 -0.1618034 0.08312539
v 0 -0.1618034 0.117557
v -2.255973E-17 -0.0618034 0.1902113
v 6.018578E-16 -2.255973E-17 0.1902113
v -0.1344997 -2.255973E-17 0.1344997
v -2.255973E-17 0.0618034 0.1902113
v -0.1344997 0.0618034 0.1344997
v 0 0.1618034 0.117557
v -0.08312539 0.1618034 0.08312539
v -1.026468E-15 -2.255973E-17 0

vn 0.6335991 0.7736616 0
vn 0.4480222 0.7736616 0.4480222
vn 0 1 0
vn 0.9573624 0.2888899 0
vn 0.4480222 0.7736616 -0.4480222
vn 0 0.7736616 -0.6335991
vn 0.6769574 0.2888899 -0.6769574
vn -0.4480222 0.7736616 -0.4480222
vn 0 0.2888899 -0.9573624
vn 1 0 0
vn 0.7071068 0 -0.7071068
vn 0 0 -1
vn -0.6769574 0.2888899 -0.6769574
vn 0.6769574 -0.2888899 -0.6769574
vn 0.7071068 0 0.7071068
vn 0.6769574 0.2888899 0.6769574
vn 0.9573624 -0.2888899 0
vn 0 -0.2888899 -0.9573624
vn -0.7071068 0 -0.7071068
vn 0.4480222 -0.7736616 -0.4480222
vn -0.9573624 0.2888899 0
vn -1 0 0
vn -0.6335991 0.7736616 0
vn -0.6769574 -0.2888899 -0.6769574
vn 0 -0.7736616 -0.6335991
vn 0 -1 0
vn 0.6335991 -0.7736616 0
vn -0.9573624 -0.2888899 0
vn -0.4480222 -0.7736616 -0.4480222
vn 0.6769574 -0.2888899 0.6769574
vn -0.6335991 -0.7736616 0
vn -0.4480222 -0.7736616 0.4480222
vn -0.6769574 -0.2888899 0.6769574
vn 0.4480222 -0.7736616 0.4480222
vn 0 -0.7736616 0.6335991
vn 0 -0.2888899 0.9573624
vn 0 0 1
vn -0.7071068 0 0.7071068
vn 0 0.2888899 0.9573624
vn -0.6769574 0.2888899 0.6769574
vn 0 0.7736616 0.6335991
vn -0.4480222 0.7736616 0.4480222

vt 0 0
vt -7.488634 -1.136868E-13
vt -5.295264 5.295264
vt -5.295264 -5.295264
vt 4.041212E-14 7.44874E-32
vt 5.295264 5.295264
vt 5.295264 -5.295264
vt 7.488634 0

usemtl _defaultMat

f 3/1/3 2/1/2 1/1/1
f 2/1/2 4/1/4 1/1/1
f 3/1/3 1/1/1 5/1/5
f 4/1/4 5/1/5 1/1/1
f 3/1/3 5/1/5 6/1/6
f 5/1/5 4/1/4 7/1/7
f 7/1/7 6/1/6 5/1/5
f 8/1/8 3/1/3 6/1/6
f 6/1/6 7/1/7 9/1/9
f 9/1/9 8/1/8 6/1/6
f 10/1/10 7/1/7 4/1/4
f 11/1/11 9/1/9 7/1/7
f 7/1/7 10/1/10 11/1/11
f 9/1/9 11/1/11 12/1/12
f 8/1/8 9/1/9 13/1/13
f 12/1/12 13/1/13 9/1/9
f 10/1/10 14/1/14 11/1/11
f 14/1/14 12/1/12 11/1/11
f 4/1/4 15/1/15 10/1/10
f 4/1/4 2/1/2 16/1/16
f 15/1/15 4/1/4 16/1/16
f 14/1/14 10/1/10 17/1/17
f 15/1/15 17/1/17 10/1/10
f 12/1/12 14/1/14 18/1/18
f 13/1/13 12/1/12 19/1/19
f 18/1/18 19/1/19 12/1/12
f 17/1/17 20/1/20 14/1/14
f 20/1/20 18/1/18 14/1/14
f 21/1/21 8/1/8 13/1/13
f 22/1/22 13/1/13 19/1/19
f 13/1/13 22/1/22 21/1/21
f 8/1/8 21/1/21 23/1/23
f 23/1/23 3/1/3 8/1/8
f 19/1/19 18/1/18 24/1/24
f 18/1/18 20/1/20 25/1/25
f 25/1/25 24/1/24 18/1/18
f 26/1/26 25/1/25 20/1/20
f 20/1/20 17/1/17 27/1/27
f 26/1/26 20/1/20 27/1/27
f 28/1/28 19/1/19 24/1/24
f 19/1/19 28/1/28 22/1/22
f 24/1/24 25/1/25 29/1/29
f 29/1/29 25/1/25 26/1/26
f 29/1/29 28/1/28 24/1/24
f 30/1/30 27/1/27 17/1/17
f 17/1/17 15/1/15 30/1/30
f 31/1/31 29/1/29 26/1/26
f 28/1/28 29/1/29 31/1/31
f 32/1/32 28/1/28 31/1/31
f 31/1/31 26/1/26 32/1/32
f 33/1/33 22/1/22 28/1/28
f 28/1/28 32/1/32 33/1/33
f 26/1/26 27/1/27 34/1/34
f 27/1/27 30/1/30 34/1/34
f 26/1/26 34/1/34 35/1/35
f 32/1/32 26/1/26 35/1/35
f 30/1/30 35/1/35 34/1/34
f 36/1/36 32/1/32 35/1/35
f 35/1/35 30/1/30 36/1/36
f 15/1/15 36/1/36 30/1/30
f 32/1/32 36/1/36 33/1/33
f 36/1/36 15/1/15 37/1/37
f 37/1/37 33/1/33 36/1/36
f 16/1/16 37/1/37 15/1/15
f 22/1/22 33/1/33 38/1/38
f 33/1/33 37/1/37 38/1/38
f 38/1/38 21/1/21 22/1/22
f 37/1/37 16/1/16 39/1/39
f 39/1/39 38/1/38 37/1/37
f 2/1/2 39/1/39 16/1/16
f 21/1/21 38/1/38 40/1/40
f 38/1/38 39/1/39 40/1/40
f 40/1/40 23/1/23 21/1/21
f 39/1/39 2/1/2 41/1/41
f 41/1/41 40/1/40 39/1/39
f 41/1/41 2/1/2 3/1/3
f 23/1/23 42/1/42 3/1/3
f 23/1/23 40/1/40 42/1/42
f 42/1/42 41/1/41 3/1/3
f 40/1/40 41/1/41 42/1/42
f 1/1/31 2/1/29 3/1/26
f 5/1/32 1/1/31 3/1/26
f 1/1/31 4/1/28 2/1/29
f 1/1/31 5/1/32 4/1/28
f 6/1/35 5/1/32 3/1/26
f 7/1/33 4/1/28 5/1/32
f 5/1/32 6/1/35 7/1/33
f 6/1/35 3/1/26 8/1/34
f 9/1/36 7/1/33 6/1/35
f 6/1/35 8/1/34 9/1/36
f 4/1/28 7/1/33 10/1/22
f 7/1/33 9/1/36 11/1/38
f 11/1/38 10/1/22 7/1/33
f 12/1/37 11/1/38 9/1/36
f 13/1/30 9/1/36 8/1/34
f 9/1/36 13/1/30 12/1/37
f 11/1/38 14/1/40 10/1/22
f 11/1/38 12/1/37 14/1/40
f 10/1/22 15/1/19 4/1/28
f 16/1/24 2/1/29 4/1/28
f 16/1/24 4/1/28 15/1/19
f 17/1/21 10/1/22 14/1/40
f 10/1/22 17/1/21 15/1/19
f 18/1/39 14/1/40 12/1/37
f 19/1/15 12/1/37 13/1/30
f 12/1/37 19/1/15 18/1/39
f 14/1/40 20/1/42 17/1/21
f 14/1/40 18/1/39 20/1/42
f 13/1/30 8/1/34 21/1/17
f 19/1/15 13/1/30 22/1/10
f 21/1/17 22/1/10 13/1/30
f 23/1/27 21/1/17 8/1/34
f 8/1/34 3/1/26 23/1/27
f 24/1/16 18/1/39 19/1/15
f 25/1/41 20/1/42 18/1/39
f 18/1/39 24/1/16 25/1/41
f 20/1/42 25/1/41 26/1/3
f 27/1/23 17/1/21 20/1/42
f 27/1/23 20/1/42 26/1/3
f 24/1/16 19/1/15 28/1/4
f 22/1/10 28/1/4 19/1/15
f 29/1/2 25/1/41 24/1/16
f 26/1/3 25/1/41 29/1/2
f 24/1/16 28/1/4 29/1/2
f 17/1/21 27/1/23 30/1/13
f 30/1/13 15/1/19 17/1/21
f 26/1/3 29/1/2 31/1/1
f 31/1/1 29/1/2 28/1/4
f 31/1/1 28/1/4 32/1/5
f 32/1/5 26/1/3 31/1/1
f 28/1/4 22/1/10 33/1/7
f 33/1/7 32/1/5 28/1/4
f 34/1/8 27/1/23 26/1/3
f 34/1/8 30/1/13 27/1/23
f 35/1/6 34/1/8 26/1/3
f 35/1/6 26/1/3 32/1/5
f 34/1/8 35/1/6 30/1/13
f 35/1/6 32/1/5 36/1/9
f 36/1/9 30/1/13 35/1/6
f 30/1/13 36/1/9 15/1/19
f 33/1/7 36/1/9 32/1/5
f 37/1/12 15/1/19 36/1/9
f 36/1/9 33/1/7 37/1/12
f 15/1/19 37/1/12 16/1/24
f 38/1/11 33/1/7 22/1/10
f 38/1/11 37/1/12 33/1/7
f 22/1/10 21/1/17 38/1/11
f 39/1/18 16/1/24 37/1/12
f 37/1/12 38/1/11 39/1/18
f 16/1/24 39/1/18 2/1/29
f 40/1/14 38/1/11 21/1/17
f 40/1/14 39/1/18 38/1/11
f 21/1/17 23/1/27 40/1/14
f 41/1/25 2/1/29 39/1/18
f 39/1/18 40/1/14 41/1/25
f 3/1/26 2/1/29 41/1/25
f 3/1/26 42/1/20 23/1/27
f 42/1/20 40/1/14 23/1/27
f 3/1/26 41/1/25 42/1/20
f 42/1/20 41/1/25 40/1/14

usemtl yellow

f 11/4/3 15/3/3 10/2/3
f 15/3/3 11/4/3 43/5/3
f 19/7/3 38/6/3 43/5/3
f 38/6/3 19/7/3 22/8/3
f 10/2/26 15/3/26 11/4/26
f 43/5/26 11/4/26 15/3/26
f 43/5/26 38/6/26 19/7/26
f 22/8/26 19/7/26 38/6/26

