# Created by Kenney (www.kenney.nl)

mtllib rampStart_solid_B.mtl

g rampStart_solid_B

v -0.35 0.5 -0.5
v -0.5 0.5 -0.5
v -0.2875 0.3125 -0.5
v -0.5 0 -0.5
v 0.5 0 -0.5
v -0.1 0.25 -0.5
v 0.1 0.25 -0.5
v 0.2875 0.3125 -0.5
v 0.5 0.5 -0.5
v 0.35 0.5 -0.5
v 0.5 0.676 0.348
v 0.5 0.75 0.5
v 0.35 0.676 0.348
v 0.35 0.75 0.5
v 0.5 0.552 -0.004
v 0.5 0.608 0.184
v 0.35 0.552 -0.004
v 0.35 0.608 0.184
v 0.5 0.514 -0.228
v 0.5 0 0.5
v -0.35 0.676 0.348
v -0.5 0.676 0.348
v -0.35 0.608 0.184
v -0.5 0.608 0.184
v 0.35 0.514 -0.228
v -0.35 0.552 -0.004
v -0.5 0.552 -0.004
v -0.35 0.75 0.5
v -0.5 0.75 0.5
v -0.35 0.514 -0.228
v -0.5 0.514 -0.228
v 0.2875 0.5625 0.5
v -0.5 2.179146E-15 0.5
v 0.1 0.5 0.5
v -0.1 0.5 0.5
v -0.2875 0.5625 0.5
v 0.1 0.426 0.348
v -0.1 0.426 0.348
v -0.2875 0.4885 0.348
v 0.2875 0.4885 0.348
v -0.2875 0.4205 0.184
v -0.2875 0.3645 -0.004
v 0.1 0.302 -0.004
v 0.1 0.358 0.184
v -0.1 0.302 -0.004
v -0.1 0.358 0.184
v 0.1 0.264 -0.228
v -0.1 0.264 -0.228
v 0.2875 0.4205 0.184
v -0.2875 0.3265 -0.228
v 0.2875 0.3645 -0.004
v 0.2875 0.3265 -0.228

vn 0 0 -1
vn 0 0 1
vn 0 0.9118361 -0.4105545
vn 0 0.8991093 -0.4377243
vn 0 -0.9118361 0.4105545
vn 0 -0.8991093 0.4377243
vn 0 0.9739454 -0.226783
vn 0 0.9423268 -0.3346944
vn 0 -0.9739454 0.226783
vn 0 -0.9423268 0.3346944
vn 1 0 0
vn -1 0 0
vn 0 0.9939852 -0.109514
vn 0 -0.9939852 0.109514
vn 0 0.998678 -0.05140255
vn 0 -0.998678 0.05140255
vn 0 -1 0
vn 0 1 0
vn -0.1467468 0.9024523 -0.4050249
vn -0.1512168 0.88877 -0.4326907
vn 0.1467468 0.9024523 -0.4050249
vn 0.1512168 0.88877 -0.4326907
vn -0.1467468 -0.9024523 0.4050249
vn 0.1512168 -0.88877 0.4326907
vn 0.1467468 -0.9024523 0.4050249
vn -0.1512168 -0.88877 0.4326907
vn 0.9388147 0.3129383 -0.1438631
vn 0.6832943 0.6657923 -0.2997158
vn 0.9376367 0.3125456 -0.1521603
vn 0.7417359 0.6030254 -0.2935781
vn -0.9376367 -0.3125456 0.1521603
vn -0.6832943 -0.6657923 0.2997158
vn -0.9388147 -0.3129383 0.1438631
vn -0.7417359 -0.6030254 0.2935781
vn -0.6832943 0.6657923 -0.2997158
vn -0.7417359 0.6030254 -0.2935781
vn 0.7417359 -0.6030254 0.2935781
vn 0.6832943 -0.6657923 0.2997158
vn -0.9388147 0.3129383 -0.1438631
vn -0.9376367 0.3125456 -0.1521603
vn 0.9388147 -0.3129383 0.1438631
vn 0.9376367 -0.3125456 0.1521603
vn 0.9423316 0.3141105 -0.1155246
vn 0.6873792 0.6843859 -0.2431577
vn -0.6873792 -0.6843859 0.2431577
vn -0.9423316 -0.3141105 0.1155246
vn 0.9459129 0.3153043 -0.07636684
vn 0.6930756 0.7020528 -0.1636098
vn -0.6930756 -0.7020528 0.1636098
vn -0.9459129 -0.3153043 0.07636684
vn -0.1554796 0.9623963 -0.2227544
vn -0.1510161 0.9320717 -0.329297
vn 0.1554796 0.9623963 -0.2227544
vn 0.1510161 0.9320717 -0.329297
vn -0.1554796 -0.9623963 0.2227544
vn 0.1510161 -0.9320717 0.329297
vn 0.1554796 -0.9623963 0.2227544
vn -0.1510161 -0.9320717 0.329297
vn -0.1583898 0.9815038 -0.1075313
vn 0.1583898 0.9815038 -0.1075313
vn 0.1583898 -0.9815038 0.1075313
vn -0.1583898 -0.9815038 0.1075313
vn -0.6873792 0.6843859 -0.2431577
vn -0.9423316 0.3141105 -0.1155246
vn 0.9423316 -0.3141105 0.1155246
vn 0.6873792 -0.6843859 0.2431577
vn 0.9485576 0.3161859 -0.01627427
vn 0.6993888 0.7137965 -0.03673952
vn 0.9480641 0.3160214 -0.03612114
vn 0.6976494 0.7121222 -0.07853203
vn -0.9480641 -0.3160214 0.03612114
vn -0.6993888 -0.7137965 0.03673952
vn -0.9485576 -0.3161859 0.01627427
vn -0.6976494 -0.7121222 0.07853203
vn 0.1591543 0.9859486 -0.05074735
vn -0.1591543 -0.9859486 0.05074735
vn -0.1591543 0.9859486 -0.05074735
vn 0.1591543 -0.9859486 0.05074735
vn -0.6930756 0.7020528 -0.1636098
vn 0.6930756 -0.7020528 0.1636098
vn -0.9459129 0.3153043 -0.07636684
vn 0.9459129 -0.3153043 0.07636684
vn -0.6976494 0.7121222 -0.07853203
vn -0.9480641 0.3160214 -0.03612114
vn 0.9480641 -0.3160214 0.03612114
vn 0.6976494 -0.7121222 0.07853203
vn -0.6993888 0.7137965 -0.03673952
vn 0.6993888 -0.7137965 0.03673952
vn -0.9485576 0.3161859 -0.01627427
vn 0.9485576 -0.3161859 0.01627427

vt 13.77953 19.68504
vt 19.68504 19.68504
vt 11.3189 12.30315
vt 19.68504 0
vt -19.68504 0
vt 3.937008 9.84252
vt -3.937008 9.84252
vt -11.3189 12.30315
vt -19.68504 19.68504
vt -13.77953 19.68504
vt -19.68504 23.96817
vt -19.68504 30.62393
vt -13.77953 23.96817
vt -13.77953 30.62393
vt -19.68504 6.053131
vt -19.68504 13.77609
vt -13.77953 6.053131
vt -13.77953 13.77609
vt 19.68504 1.037911E-14
vt 8.976377 20.23622
vt -19.68504 1.037911E-14
vt 0.1574803 21.73228
vt -7.244094 23.93701
vt -13.70079 26.61417
vt -19.68504 29.52756
vt 13.77953 22.84962
vt 19.68504 22.84962
vt 13.77953 15.85991
vt 19.68504 15.85991
vt -19.68504 -5.465363
vt -19.68504 3.479533
vt -13.77953 -5.465363
vt -13.77953 3.479533
vt 13.77953 6.053131
vt 13.77953 13.77609
vt 19.68504 6.053131
vt 19.68504 13.77609
vt 13.77953 23.96817
vt 13.77953 30.62393
vt 19.68504 23.96817
vt 19.68504 30.62393
vt -19.68504 22.84962
vt -13.77953 22.84962
vt -19.68504 15.85991
vt -13.77953 15.85991
vt 13.77953 -18.64716
vt 13.77953 -7.924318
vt 19.68504 -18.64716
vt 19.68504 -7.924318
vt 13.77953 -5.465363
vt 13.77953 3.479533
vt 19.68504 -5.465363
vt 19.68504 3.479533
vt -19.68504 -18.64716
vt -19.68504 -7.924318
vt -13.77953 -18.64716
vt -13.77953 -7.924318
vt 13.77953 29.52756
vt 19.68504 29.52756
vt 11.3189 22.14567
vt -19.68504 8.579315E-14
vt 3.937008 19.68504
vt -3.937008 19.68504
vt -11.3189 22.14567
vt -13.77953 29.52756
vt 19.68504 -19.68504
vt -19.68504 -19.68504
vt -19.68504 -3.217095E-14
vt 19.68504 5.36222E-14
vt -8.976377 20.23622
vt -0.1574803 21.73228
vt 7.244094 23.93701
vt 13.70079 26.61417
vt -3.937008 19.65986
vt -3.937008 26.31562
vt 3.937008 19.65986
vt 3.937008 26.31562
vt -11.31659 30.21793
vt -11.71075 22.44672
vt -17.22357 33.28496
vt -17.61773 25.51376
vt -1.599239 25.017
vt 1.781566 30.75017
vt 4.491742 20.1748
vt 7.872547 25.90797
vt 11.71075 22.44672
vt 11.31659 30.21793
vt 17.61773 25.51376
vt 17.22357 33.28496
vt -5.289327 27.32073
vt -5.626211 19.54683
vt -11.68522 30.14006
vt -12.0221 22.36616
vt 1.518195 24.93926
vt 1.275073 17.16187
vt -5.847163 27.26211
vt -6.090285 19.48472
vt -3.937008 3.243322
vt -3.937008 10.96628
vt 3.937008 3.243322
vt 3.937008 10.96628
vt -4.491742 20.1748
vt -7.872547 25.90797
vt 1.599239 25.017
vt -1.781566 30.75017
vt -3.937008 1.83334
vt 3.937008 1.83334
vt -3.937008 -7.111556
vt 3.937008 -7.111556
vt 5.626211 19.54683
vt 5.289327 27.32073
vt 12.0221 22.36616
vt 11.68522 30.14006
vt -3.937008 19.07979
vt 3.937008 19.07979
vt -3.937008 12.09008
vt 3.937008 12.09008
vt -0.2373504 24.72099
vt 5.515915 19.48201
vt -4.282836 19.02098
vt 1.470429 13.782
vt 19.91852 22.92462
vt 19.87631 15.14354
vt 9.211435 23.50561
vt 9.169226 15.72453
vt 20.05528 3.985999
vt 9.472042 5.710624
vt 21.18178 11.68522
vt 10.59854 13.40984
vt -5.515915 19.48201
vt 0.2373504 24.72099
vt -1.470429 13.782
vt 4.282836 19.02098
vt -3.937008 -19.15309
vt -3.937008 -8.430248
vt 3.937008 -19.15309
vt 3.937008 -8.430248
vt -7.659558 13.46591
vt -2.140529 18.86818
vt -2.740777 7.436603
vt 2.778253 12.83886
vt 2.740777 7.436603
vt -2.778253 12.83886
vt 7.659558 13.46591
vt 2.140529 18.86818
vt 9.785644 3.114095
vt 1.926051 7.384689
vt 13.13383 10.1381
vt 5.274241 14.40869
vt -1.275073 17.16187
vt -1.518195 24.93926
vt 6.090285 19.48472
vt 5.847163 27.26211
vt -9.601096 15.60511
vt -9.740017 23.38507
vt -0.7962649 17.18185
vt -0.9351858 24.96181
vt -21.18178 11.68522
vt -10.59854 13.40984
vt -20.05528 3.985999
vt -9.472042 5.710624
vt -19.87631 15.14354
vt -19.91852 22.92462
vt -9.169226 15.72453
vt -9.211435 23.50561
vt -13.13383 10.1381
vt -5.274241 14.40869
vt -9.785644 3.114095
vt -1.926051 7.384689
vt 9.740017 23.38507
vt 9.601096 15.60511
vt 0.9351858 24.96181
vt 0.7962649 17.18185

usemtl green

f 3/3/1 2/2/1 1/1/1
f 3/3/1 4/4/1 2/2/1
f 4/4/1 3/3/1 5/5/1
f 5/5/1 3/3/1 6/6/1
f 7/7/1 5/5/1 6/6/1
f 8/8/1 5/5/1 7/7/1
f 5/5/1 8/8/1 9/9/1
f 9/9/1 8/8/1 10/10/1
f 1/1/2 2/2/2 3/3/2
f 2/2/2 4/4/2 3/3/2
f 5/5/2 3/3/2 4/4/2
f 6/6/2 3/3/2 5/5/2
f 6/6/2 5/5/2 7/7/2
f 7/7/2 5/5/2 8/8/2
f 9/9/2 8/8/2 5/5/2
f 10/10/2 8/8/2 9/9/2
f 13/13/3 12/12/4 11/11/3
f 12/12/4 13/13/3 14/14/4
f 11/11/5 12/12/6 13/13/5
f 14/14/6 13/13/5 12/12/6
f 17/17/7 16/16/8 15/15/7
f 16/16/8 17/17/7 18/18/8
f 15/15/9 16/16/10 17/17/9
f 18/18/10 17/17/9 16/16/10
f 19/20/11 5/19/11 9/2/11
f 5/19/11 19/20/11 20/21/11
f 20/21/11 19/20/11 15/22/11
f 20/21/11 15/22/11 16/23/11
f 20/21/11 16/23/11 11/24/11
f 20/21/11 11/24/11 12/25/11
f 9/2/12 5/19/12 19/20/12
f 20/21/12 19/20/12 5/19/12
f 15/22/12 19/20/12 20/21/12
f 16/23/12 15/22/12 20/21/12
f 11/24/12 16/23/12 20/21/12
f 12/25/12 11/24/12 20/21/12
f 23/28/8 22/27/3 21/26/3
f 22/27/3 23/28/8 24/29/8
f 21/26/5 22/27/5 23/28/10
f 24/29/10 23/28/10 22/27/5
f 25/32/13 15/31/7 19/30/13
f 15/31/7 25/32/13 17/33/7
f 19/30/14 15/31/9 25/32/14
f 17/33/9 25/32/14 15/31/9
f 27/36/7 23/35/8 26/34/7
f 23/35/8 27/36/7 24/37/8
f 26/34/9 23/35/10 27/36/9
f 24/37/10 27/36/9 23/35/10
f 22/40/3 28/39/4 21/38/3
f 28/39/4 22/40/3 29/41/4
f 21/38/5 28/39/6 22/40/5
f 29/41/6 22/40/5 28/39/6
f 16/44/8 13/43/3 11/42/3
f 13/43/3 16/44/8 18/45/8
f 11/42/5 13/43/5 16/44/10
f 18/45/10 16/44/10 13/43/5
f 2/48/15 30/47/13 1/46/15
f 30/47/13 2/48/15 31/49/13
f 1/46/16 30/47/14 2/48/16
f 31/49/14 2/48/16 30/47/14
f 31/52/13 26/51/7 30/50/13
f 26/51/7 31/52/13 27/53/7
f 30/50/14 26/51/9 31/52/14
f 27/53/9 31/52/14 26/51/9
f 10/56/15 19/55/13 9/54/15
f 19/55/13 10/56/15 25/57/13
f 9/54/16 19/55/14 10/56/16
f 25/57/14 10/56/16 19/55/14
f 32/60/2 12/59/2 14/58/2
f 32/60/2 20/4/2 12/59/2
f 20/4/2 32/60/2 33/61/2
f 33/61/2 32/60/2 34/62/2
f 33/61/2 34/62/2 35/63/2
f 36/64/2 33/61/2 35/63/2
f 33/61/2 36/64/2 29/25/2
f 29/25/2 36/64/2 28/65/2
f 14/58/1 12/59/1 32/60/1
f 12/59/1 20/4/1 32/60/1
f 33/61/1 32/60/1 20/4/1
f 34/62/1 32/60/1 33/61/1
f 35/63/1 34/62/1 33/61/1
f 35/63/1 33/61/1 36/64/1
f 29/25/1 36/64/1 33/61/1
f 28/65/1 36/64/1 29/25/1
f 33/9/17 5/66/17 20/2/17
f 5/66/17 33/9/17 4/67/17
f 20/2/18 5/66/18 33/9/18
f 4/67/18 33/9/18 5/66/18
f 33/69/12 2/9/12 4/68/12
f 2/9/12 33/69/12 31/70/12
f 31/70/12 33/69/12 27/71/12
f 27/71/12 33/69/12 24/72/12
f 24/72/12 33/69/12 22/73/12
f 22/73/12 33/69/12 29/59/12
f 4/68/11 2/9/11 33/69/11
f 31/70/11 33/69/11 2/9/11
f 27/71/11 33/69/11 31/70/11
f 24/72/11 33/69/11 27/71/11
f 22/73/11 33/69/11 24/72/11
f 29/59/11 33/69/11 22/73/11

usemtl yellow

f 38/76/21 34/75/20 37/74/19
f 34/75/20 38/76/21 35/77/22
f 37/74/25 34/75/24 38/76/23
f 35/77/26 38/76/23 34/75/24
f 28/80/29 39/79/28 21/78/27
f 39/79/28 28/80/29 36/81/30
f 21/78/33 39/79/32 28/80/31
f 36/81/34 28/80/31 39/79/32
f 37/84/19 32/83/36 40/82/35
f 32/83/36 37/84/19 34/85/20
f 40/82/38 32/83/37 37/84/25
f 34/85/24 37/84/25 32/83/37
f 32/88/36 13/87/39 40/86/35
f 13/87/39 32/88/36 14/89/40
f 40/86/38 13/87/41 32/88/37
f 14/89/42 32/88/37 13/87/41
f 21/92/27 41/91/44 23/90/43
f 41/91/44 21/92/27 39/93/28
f 23/90/46 41/91/45 21/92/33
f 39/93/32 21/92/33 41/91/45
f 23/96/43 42/95/48 26/94/47
f 42/95/48 23/96/43 41/97/44
f 26/94/50 42/95/49 23/96/46
f 41/97/45 23/96/46 42/95/49
f 45/100/53 44/99/52 43/98/51
f 44/99/52 45/100/53 46/101/54
f 43/98/57 44/99/56 45/100/55
f 46/101/58 45/100/55 44/99/56
f 39/104/28 35/103/22 38/102/21
f 35/103/22 39/104/28 36/105/30
f 38/102/23 35/103/26 39/104/32
f 36/105/34 39/104/32 35/103/26
f 47/108/59 45/107/53 43/106/51
f 45/107/53 47/108/59 48/109/60
f 43/106/57 45/107/55 47/108/61
f 48/109/62 47/108/61 45/107/55
f 40/112/35 18/111/64 49/110/63
f 18/111/64 40/112/35 13/113/39
f 49/110/66 18/111/65 40/112/38
f 13/113/41 40/112/38 18/111/65
f 44/116/52 38/115/21 37/114/19
f 38/115/21 44/116/52 46/117/54
f 37/114/25 38/115/23 44/116/56
f 46/117/58 44/116/56 38/115/23
f 49/120/63 37/119/19 40/118/35
f 37/119/19 49/120/63 44/121/52
f 40/118/38 37/119/25 49/120/66
f 44/121/56 49/120/66 37/119/25
f 30/124/69 3/123/68 1/122/67
f 3/123/68 30/124/69 50/125/70
f 1/122/73 3/123/72 30/124/71
f 50/125/74 30/124/71 3/123/72
f 3/128/68 48/127/60 6/126/75
f 48/127/60 3/128/68 50/129/70
f 6/126/76 48/127/62 3/128/72
f 50/129/74 3/128/72 48/127/62
f 46/132/54 39/131/28 38/130/21
f 39/131/28 46/132/54 41/133/44
f 38/130/23 39/131/32 46/132/58
f 41/133/45 46/132/58 39/131/32
f 6/136/75 47/135/59 7/134/77
f 47/135/59 6/136/75 48/137/60
f 7/134/78 47/135/61 6/136/76
f 48/137/62 6/136/76 47/135/61
f 43/140/51 49/139/63 51/138/79
f 49/139/63 43/140/51 44/141/52
f 51/138/80 49/139/66 43/140/57
f 44/141/56 43/140/57 49/139/66
f 42/144/48 46/143/54 45/142/53
f 46/143/54 42/144/48 41/145/44
f 45/142/55 46/143/58 42/144/49
f 41/145/45 42/144/49 46/143/58
f 50/148/70 45/147/53 48/146/60
f 45/147/53 50/148/70 42/149/48
f 48/146/62 45/147/55 50/148/74
f 42/149/49 50/148/74 45/147/55
f 49/152/63 17/151/81 51/150/79
f 17/151/81 49/152/63 18/153/64
f 51/150/80 17/151/82 49/152/66
f 18/153/65 49/152/66 17/151/82
f 51/156/79 25/155/84 52/154/83
f 25/155/84 51/156/79 17/157/81
f 52/154/86 25/155/85 51/156/80
f 17/157/82 51/156/80 25/155/85
f 7/160/77 52/159/83 8/158/87
f 52/159/83 7/160/77 47/161/59
f 8/158/88 52/159/86 7/160/78
f 47/161/61 7/160/78 52/159/86
f 52/164/83 10/163/89 8/162/87
f 10/163/89 52/164/83 25/165/84
f 8/162/88 10/163/90 52/164/86
f 25/165/85 52/164/86 10/163/90
f 47/168/59 51/167/79 52/166/83
f 51/167/79 47/168/59 43/169/51
f 52/166/86 51/167/80 47/168/61
f 43/169/57 47/168/61 51/167/80
f 26/172/47 50/171/70 30/170/69
f 50/171/70 26/172/47 42/173/48
f 30/170/71 50/171/74 26/172/50
f 42/173/49 26/172/50 50/171/74

