# Created by Kenney (www.kenney.nl)

mtllib ramp_long_solid_D.mtl

g ramp_long_solid_D

v -0.1 0.574 -0.316
v 0.1 0.574 -0.316
v -0.1 0.778 -0.152
v 0.1 0.778 -0.152
v 0.2875 0.4685 -0.504
v 0.2875 0.6365 -0.316
v 0.1 0.406 -0.504
v -0.1 0.406 -0.504
v -0.2875 0.4685 -0.504
v -0.1 0.292 -0.728
v -0.2875 0.3545 -0.728
v 0.1 0.292 -0.728
v 0.35 0.656 -0.504
v 0.35 0.824 -0.316
v -0.2875 0.6365 -0.316
v -0.2875 0.8404999 -0.152
v -0.35 0.5 -1
v -0.2875 0.3125 -1
v -0.35 0.542 -0.728
v -0.1 0.25 -1
v 0.2875 0.3125 -1
v 0.35 0.5 -1
v 0.2875 0.3545 -0.728
v 0.35 0.542 -0.728
v 0.1 0.25 -1
v 0.2875 0.8404999 -0.152
v 0.35 1.028 -0.152
v -0.35 0.824 -0.316
v -0.35 1.028 -0.152
v -0.35 0.656 -0.504
v 0.2875 1.7705 0.728
v 0.35 1.958 0.728
v 0.2875 1.8125 1
v 0.35 2 1
v -0.1 1.708 0.728
v -0.1 1.75 1
v -0.2875 1.7705 0.728
v -0.2875 1.8125 1
v 0.1 1.708 0.728
v 0.1 1.75 1
v 0.1 1.426 0.316
v 0.1 1.594 0.504
v -0.1 1.426 0.316
v -0.1 1.594 0.504
v -0.2875 1.6565 0.504
v -0.35 1.958 0.728
v -0.35 2 1
v 0.2875 1.6565 0.504
v 0.35 1.844 0.504
v 0.2875 1.4885 0.316
v 0.35 1.676 0.316
v -0.1 1.222 0.152
v 0.1 1.222 0.152
v -0.2875 1.2845 0.152
v -0.2875 1.4885 0.316
v -0.35 1.676 0.316
v -0.35 1.844 0.504
v 0.2875 1.2845 0.152
v 0.35 1.472 0.152
v -0.35 1.472 0.152
v 0.5 0.824 -0.316
v 0.5 1.028 -0.152
v 0.5 0.542 -0.728
v 0.5 0.656 -0.504
v -0.5 0.656 -0.504
v -0.5 0.824 -0.316
v 0.5 0.5 -1
v -0.5 0.5 -1
v -0.5 0.542 -0.728
v -0.5 1.028 -0.152
v -0.5 0 -1
v 0.5 0 -1
v 0.5 1.958 0.728
v 0.5 2 1
v -0.5 0 1
v -0.5 1.472 0.152
v -0.5 1.676 0.316
v -0.5 1.844 0.504
v -0.5 1.958 0.728
v -0.5 2 1
v 0.5 1.844 0.504
v 0.5 1.676 0.316
v 0.5 1.472 0.152
v 0.5 0 1

vn 0.1132313 0.6881952 -0.7166353
vn -0.1132313 0.6881952 -0.7166353
vn 0.09849066 0.595748 -0.7971097
vn -0.09849066 0.595748 -0.7971097
vn -0.09849066 -0.595748 0.7971097
vn 0.1132313 -0.6881952 0.7166353
vn -0.1132313 -0.6881952 0.7166353
vn 0.09849066 -0.595748 0.7971097
vn -0.6499906 0.6269527 -0.4294678
vn -0.6168079 0.5430611 -0.5697655
vn -0.1336012 0.8217822 -0.5539176
vn 0.1336012 -0.8217822 0.5539176
vn 0.6168079 -0.5430611 0.5697655
vn 0.6499906 -0.6269527 0.4294678
vn 0.1336012 0.8217822 -0.5539176
vn 0.6499906 0.6269527 -0.4294678
vn 0.1511329 0.9421509 -0.2991833
vn 0.675246 0.7015929 -0.2276181
vn -0.1511329 -0.9421509 0.2991833
vn -0.6499906 -0.6269527 0.4294678
vn -0.1336012 -0.8217822 0.5539176
vn -0.675246 -0.7015929 0.2276181
vn -0.1511329 0.9421509 -0.2991833
vn 0.1511329 -0.9421509 0.2991833
vn -0.9221982 0.3073994 -0.2346403
vn -0.8918148 0.2972716 -0.3410219
vn 0.9221982 -0.3073994 0.2346403
vn 0.8918148 -0.2972716 0.3410219
vn 0.6168079 0.5430611 -0.5697655
vn 0.5870982 0.4841453 -0.6487827
vn -0.6168079 -0.5430611 0.5697655
vn -0.5870982 -0.4841453 0.6487827
vn 0.9475544 0.3158515 -0.04877118
vn 0.6817034 0.7230595 -0.1116489
vn 0.9425591 0.3141864 -0.1134429
vn -0.9425591 -0.3141864 0.1134429
vn -0.6817034 -0.7230595 0.1116489
vn -0.9475544 -0.3158515 0.04877118
vn 0.1559725 0.9761923 -0.1507356
vn -0.1559725 -0.9761923 0.1507356
vn -0.6817034 0.7230595 -0.1116489
vn -0.9475544 0.3158515 -0.04877118
vn -0.675246 0.7015929 -0.2276181
vn -0.9425591 0.3141864 -0.1134429
vn 0.675246 -0.7015929 0.2276181
vn 0.9475544 -0.3158515 0.04877118
vn 0.6817034 -0.7230595 0.1116489
vn 0.9425591 -0.3141864 0.1134429
vn -0.1559725 0.9761923 -0.1507356
vn 0.1559725 -0.9761923 0.1507356
vn -0.5870982 0.4841453 -0.6487827
vn 0.5870982 -0.4841453 0.6487827
vn -0.8664856 0.2888285 -0.4071619
vn 0.8664856 -0.2888285 0.4071619
vn 0.8918148 0.2972716 -0.3410219
vn 0.8664856 0.2888285 -0.4071619
vn -0.8664856 -0.2888285 0.4071619
vn -0.8918148 -0.2972716 0.3410219
vn 0.9221982 0.3073994 -0.2346403
vn -0.9221982 -0.3073994 0.2346403
vn -0.718734 0.6610414 -0.2155125
vn -0.9446129 0.3148709 -0.09253544
vn -0.7254835 0.6801786 -0.1050276
vn 0.7254835 -0.6801786 0.1050276
vn 0.9446129 -0.3148709 0.09253544
vn 0.718734 -0.6610414 0.2155125
vn 0.154889 0.9386889 -0.3080142
vn 0.1608433 0.97542 -0.1506163
vn 0.718734 0.6610414 -0.2155125
vn 0.7254835 0.6801786 -0.1050276
vn -0.718734 -0.6610414 0.2155125
vn -0.1608433 -0.97542 0.1506163
vn -0.154889 -0.9386889 0.3080142
vn -0.7254835 -0.6801786 0.1050276
vn -0.154889 0.9386889 -0.3080142
vn -0.1608433 0.97542 -0.1506163
vn 0.154889 -0.9386889 0.3080142
vn 0.1608433 -0.97542 0.1506163
vn -0.1117849 0.6796985 -0.7249235
vn -0.1339542 0.8136349 -0.5657336
vn 0.1117849 0.6796985 -0.7249235
vn 0.1339542 0.8136349 -0.5657336
vn -0.1117849 -0.6796985 0.7249235
vn 0.1339542 -0.8136349 0.5657336
vn 0.1117849 -0.6796985 0.7249235
vn -0.1339542 -0.8136349 0.5657336
vn 0.6796184 0.6028937 -0.4178974
vn -0.6796184 -0.6028937 0.4178974
vn 0.9446129 0.3148709 -0.09253544
vn -0.9446129 -0.3148709 0.09253544
vn -0.6796184 0.6028937 -0.4178974
vn 0.6796184 -0.6028937 0.4178974
vn -0.930716 0.3102387 -0.1936994
vn 0.930716 -0.3102387 0.1936994
vn -0.6280028 0.5323336 -0.567656
vn -0.9063383 0.3021127 -0.2954298
vn 0.9063383 -0.3021127 0.2954298
vn 0.6280028 -0.5323336 0.567656
vn 0.09735038 0.5908536 -0.8008838
vn -0.09735038 0.5908536 -0.8008838
vn 0.09735038 -0.5908536 0.8008838
vn -0.09735038 -0.5908536 0.8008838
vn 0.5882908 0.4799129 -0.6508437
vn 0.6280028 0.5323336 -0.567656
vn -0.5882908 -0.4799129 0.6508437
vn -0.6280028 -0.5323336 0.567656
vn 0.9063383 0.3021127 -0.2954298
vn 0.930716 0.3102387 -0.1936994
vn -0.930716 -0.3102387 0.1936994
vn -0.9063383 -0.3021127 0.2954298
vn -0.5882908 0.4799129 -0.6508437
vn -0.8783759 0.292792 -0.3777944
vn 0.8783759 -0.292792 0.3777944
vn 0.5882908 -0.4799129 0.6508437
vn 0.8783759 0.292792 -0.3777944
vn -0.8783759 -0.292792 0.3777944
vn 0 0.6884308 -0.725302
vn 0 0.5961926 -0.8028415
vn 0 -0.5961926 0.8028415
vn 0 -0.6884308 0.725302
vn 0 0.9517266 -0.3069468
vn 0 0.8253237 -0.56466
vn 0 -0.9517266 0.3069468
vn 0 -0.8253237 0.56466
vn 0 0.9882875 -0.1526032
vn 0 -0.9882875 0.1526032
vn 0 0 -1
vn 0 0 1
vn -1 0 0
vn 1 0 0
vn 0 -1 0
vn 0 1 0

vt 3.937008 9.817703
vt -3.937008 9.817703
vt 3.937008 20.12274
vt -3.937008 20.12274
vt -17.53994 2.139568
vt -14.95314 11.72284
vt -10.62356 -1.425637
vt -8.03676 8.157633
vt 14.16534 -4.030258
vt 20.34057 0.7040286
vt 18.99728 -12.6656
vt 25.17252 -7.931311
vt -3.937008 -20.32943
vt -3.937008 -10.43413
vt 3.937008 -20.32943
vt 3.937008 -10.43413
vt -3.937008 -4.144894
vt -3.937008 5.781364
vt 3.937008 -4.144894
vt 3.937008 5.781364
vt -22.24807 19.14742
vt -22.95052 26.89685
vt -15.1545 26.09091
vt -15.85696 33.84033
vt 7.023064 11.10369
vt 5.351806 21.27231
vt 14.15338 14.21908
vt 12.48212 24.38769
vt 40.02634 22.38467
vt 39.89985 14.6045
vt 29.33183 24.12743
vt 29.20535 16.34726
vt 37.37817 -8.786114
vt 27.66142 -3.990859
vt 40.48097 -1.650318
vt 30.76423 3.144937
vt -39.89985 14.6045
vt -40.02634 22.38467
vt -29.20535 16.34726
vt -29.33183 24.12743
vt -40.48097 -1.650318
vt -30.76423 3.144937
vt -37.37817 -8.786114
vt -27.66142 -3.990859
vt -7.023064 11.10369
vt -14.15338 14.21908
vt -5.351806 21.27231
vt -12.48212 24.38769
vt -30.15081 15.24649
vt -30.56236 23.01679
vt -21.45614 19.97083
vt -21.86769 27.74114
vt -25.17252 -7.931311
vt -20.34057 0.7040286
vt -18.99728 -12.6656
vt -14.16534 -4.030258
vt -15.82753 25.62407
vt -16.76999 33.34798
vt -9.863214 34.02769
vt -10.80567 41.75159
vt 16.76999 33.34798
vt 15.82753 25.62407
vt 10.80567 41.75159
vt 9.863214 34.02769
vt 10.62356 -1.425637
vt 8.03676 8.157633
vt 17.53994 2.139568
vt 14.95314 11.72284
vt 30.56236 23.01679
vt 30.15081 15.24649
vt 21.86769 27.74114
vt 21.45614 19.97083
vt 22.95052 26.89685
vt 22.24807 19.14742
vt 15.85696 33.84033
vt 15.1545 26.09091
vt -3.937008 -37.40696
vt -3.937008 -26.57138
vt 3.937008 -37.40696
vt 3.937008 -26.57138
vt 28.04171 70.17214
vt 27.91522 77.95231
vt 38.73621 71.9149
vt 38.60973 79.69507
vt -24.35176 37.84921
vt -34.0685 42.64446
vt -21.24895 44.985
vt -30.96569 49.78026
vt 21.24895 44.985
vt 30.96569 49.78026
vt 24.35176 37.84921
vt 34.0685 42.64446
vt -3.937008 46.68564
vt -3.937008 56.6119
vt 3.937008 46.68564
vt 3.937008 56.6119
vt -3.937008 38.58739
vt -3.937008 49.42296
vt 3.937008 38.58739
vt 3.937008 49.42296
vt -7.578421 48.64093
vt -12.41037 57.27628
vt -1.403187 53.37522
vt -6.235133 62.01056
vt -27.91522 77.95231
vt -28.04171 70.17214
vt -38.60973 79.69507
vt -38.73621 71.9149
vt -3.937008 46.14816
vt -3.937008 56.04345
vt 3.937008 46.14816
vt 3.937008 56.04345
vt 1.403187 53.37522
vt 6.235133 62.01056
vt 7.578421 48.64093
vt 12.41037 57.27628
vt 17.6699 66.4768
vt 17.25835 74.2471
vt 26.36457 71.20114
vt 25.95302 78.97144
vt 8.691943 60.20493
vt 7.989491 67.95435
vt 15.78551 67.14841
vt 15.08305 74.89783
vt 3.937008 41.24542
vt -3.937008 41.24542
vt 3.937008 51.55046
vt -3.937008 51.55046
vt 2.253863 42.16921
vt 0.5826041 52.33783
vt 9.384177 45.2846
vt 7.712918 55.45321
vt -7.989491 67.95435
vt -8.691943 60.20493
vt -15.08305 74.89783
vt -15.78551 67.14841
vt -6.257092 51.74378
vt -3.670292 61.32705
vt 0.6592883 48.17857
vt 3.246088 57.76184
vt -0.6592883 48.17857
vt -3.246088 57.76184
vt 6.257092 51.74378
vt 3.670292 61.32705
vt -17.25835 74.2471
vt -17.6699 66.4768
vt -25.95302 78.97144
vt -26.36457 71.20114
vt 1.192598 52.08297
vt 0.2501395 59.80688
vt 7.156917 60.48659
vt 6.214458 68.21049
vt 5.169848 22.72283
vt 2.506775 43.73983
vt 12.36668 25.6813
vt 9.703609 46.69831
vt -0.2501395 59.80688
vt -1.192598 52.08297
vt -6.214458 68.21049
vt -7.156917 60.48659
vt -2.253863 42.16921
vt -9.384177 45.2846
vt -0.5826041 52.33783
vt -7.712918 55.45321
vt -5.169848 22.72283
vt -12.36668 25.6813
vt -2.506775 43.73983
vt -9.703609 46.69831
vt -10.33505 33.86724
vt -11.41213 41.57353
vt 0.4259405 52.11573
vt -0.6511369 59.82203
vt 11.41213 41.57353
vt 10.33505 33.86724
vt 0.6511369 59.82203
vt -0.4259405 52.11573
vt 3.937008 21.8927
vt -3.937008 21.8927
vt 3.937008 43.07776
vt -3.937008 43.07776
vt -13.77953 17.48872
vt -19.68504 17.48872
vt -13.77953 27.79376
vt -19.68504 27.79376
vt -19.68504 -15.86517
vt -19.68504 -5.969882
vt -13.77953 -15.86517
vt -13.77953 -5.969882
vt 13.77953 2.413482
vt 13.77953 12.33974
vt 19.68504 2.413482
vt 19.68504 12.33974
vt -19.68504 -35.90496
vt -19.68504 -25.06939
vt -13.77953 -35.90496
vt -13.77953 -25.06939
vt 13.77953 -35.90496
vt 13.77953 -25.06939
vt 19.68504 -35.90496
vt 19.68504 -25.06939
vt 19.68504 17.48872
vt 13.77953 17.48872
vt 19.68504 27.79376
vt 13.77953 27.79376
vt 13.77953 -5.969882
vt 19.68504 -5.969882
vt 13.77953 -15.86517
vt 19.68504 -15.86517
vt 13.77953 19.68504
vt 19.68504 19.68504
vt 11.3189 12.30315
vt 19.68504 0
vt -19.68504 0
vt 3.937008 9.84252
vt -3.937008 9.84252
vt -11.3189 12.30315
vt -19.68504 19.68504
vt -13.77953 19.68504
vt -19.68504 2.413482
vt -19.68504 12.33974
vt -13.77953 2.413482
vt -13.77953 12.33974
vt -19.68504 40.08939
vt -19.68504 50.92496
vt -13.77953 40.08939
vt -13.77953 50.92496
vt -39.37008 -1.756299E-16
vt -39.37008 19.68504
vt 39.37008 -1.756299E-16
vt -28.66142 21.33858
vt -19.84252 25.82677
vt -12.44094 32.44094
vt -5.984252 40.47244
vt 5.984252 57.95275
vt 12.44094 65.98425
vt 19.84252 72.59843
vt 28.66142 77.08662
vt 39.37008 78.74016
vt 13.77953 40.08939
vt 13.77953 50.92496
vt 19.68504 40.08939
vt 19.68504 50.92496
vt 13.77953 50.61242
vt 13.77953 60.50771
vt 19.68504 50.61242
vt 19.68504 60.50771
vt -19.68504 50.61242
vt -19.68504 60.50771
vt -13.77953 50.61242
vt -13.77953 60.50771
vt -19.68504 53.24402
vt -19.68504 63.17028
vt -13.77953 53.24402
vt -13.77953 63.17028
vt 13.77953 53.24402
vt 13.77953 63.17028
vt 19.68504 53.24402
vt 19.68504 63.17028
vt -13.77953 48.91644
vt -19.68504 48.91644
vt -13.77953 59.22148
vt -19.68504 59.22148
vt 19.68504 48.91644
vt 13.77953 48.91644
vt 19.68504 59.22148
vt 13.77953 59.22148
vt 19.68504 78.74016
vt 11.3189 71.35827
vt 13.77953 78.74016
vt 3.937008 68.89764
vt -3.937008 68.89764
vt -11.3189 71.35827
vt -19.68504 78.74016
vt -13.77953 78.74016
vt 39.37008 19.68504
vt 39.37008 3.853377E-16
vt 28.66142 21.33858
vt -39.37008 3.853377E-16
vt 19.84252 25.82677
vt 12.44094 32.44094
vt 5.984252 40.47244
vt -5.984252 57.95275
vt -12.44094 65.98425
vt -19.84252 72.59843
vt -28.66142 77.08662
vt -39.37008 78.74016
vt -13.77953 30.01401
vt -19.68504 30.01401
vt -13.77953 51.19907
vt -19.68504 51.19907
vt 19.68504 30.01401
vt 13.77953 30.01401
vt 19.68504 51.19907
vt 13.77953 51.19907
vt 19.68504 39.37008
vt 19.68504 -39.37008
vt -19.68504 39.37008
vt -19.68504 -39.37008

usemtl yellow

f 3/3/3 2/2/2 1/1/1
f 2/2/2 3/3/3 4/4/4
f 1/1/7 2/2/6 3/3/5
f 4/4/8 3/3/5 2/2/6
f 7/7/11 6/6/10 5/5/9
f 6/6/10 7/7/11 2/8/2
f 5/5/14 6/6/13 7/7/12
f 2/8/6 7/7/12 6/6/13
f 10/11/17 9/10/16 8/9/15
f 9/10/16 10/11/17 11/12/18
f 8/9/21 9/10/20 10/11/19
f 11/12/22 10/11/19 9/10/20
f 10/15/17 7/14/11 12/13/23
f 7/14/11 10/15/17 8/16/15
f 12/13/24 7/14/12 10/15/19
f 8/16/21 10/15/19 7/14/12
f 8/19/15 2/18/2 7/17/11
f 2/18/2 8/19/15 1/20/1
f 7/17/12 2/18/6 8/19/21
f 1/20/7 8/19/21 2/18/6
f 6/23/10 13/22/25 5/21/9
f 13/22/25 6/23/10 14/24/26
f 5/21/14 13/22/27 6/23/13
f 14/24/28 6/23/13 13/22/27
f 15/27/29 3/26/3 1/25/1
f 3/26/3 15/27/29 16/28/30
f 1/25/7 3/26/5 15/27/31
f 16/28/32 15/27/31 3/26/5
f 19/31/35 18/30/34 17/29/33
f 18/30/34 19/31/35 11/32/18
f 17/29/38 18/30/37 19/31/36
f 11/32/22 19/31/36 18/30/37
f 18/35/34 10/34/17 20/33/39
f 10/34/17 18/35/34 11/36/18
f 20/33/40 10/34/19 18/35/37
f 11/36/22 18/35/37 10/34/19
f 23/39/43 22/38/42 21/37/41
f 22/38/42 23/39/43 24/40/44
f 21/37/47 22/38/46 23/39/45
f 24/40/48 23/39/45 22/38/46
f 25/43/49 23/42/43 21/41/41
f 23/42/43 25/43/49 12/44/23
f 21/41/47 23/42/45 25/43/50
f 12/44/24 25/43/50 23/42/45
f 4/47/4 6/46/10 2/45/2
f 6/46/10 4/47/4 26/48/51
f 2/45/6 6/46/13 4/47/8
f 26/48/52 4/47/8 6/46/13
f 5/51/9 24/50/44 23/49/43
f 24/50/44 5/51/9 13/52/25
f 23/49/45 24/50/48 5/51/14
f 13/52/27 5/51/14 24/50/48
f 12/55/23 5/54/9 23/53/43
f 5/54/9 12/55/23 7/56/11
f 23/53/45 5/54/14 12/55/24
f 7/56/12 12/55/24 5/54/14
f 26/59/51 14/58/26 6/57/10
f 14/58/26 26/59/51 27/60/53
f 6/57/13 14/58/28 26/59/52
f 27/60/54 26/59/52 14/58/28
f 29/63/56 15/62/29 28/61/55
f 15/62/29 29/63/56 16/64/30
f 28/61/58 15/62/31 29/63/57
f 16/64/32 29/63/57 15/62/31
f 9/67/16 1/66/1 8/65/15
f 1/66/1 9/67/16 15/68/29
f 8/65/21 1/66/7 9/67/20
f 15/68/31 9/67/20 1/66/7
f 30/71/59 11/70/18 19/69/35
f 11/70/18 30/71/59 9/72/16
f 19/69/36 11/70/22 30/71/60
f 9/72/20 30/71/60 11/70/22
f 28/75/55 9/74/16 30/73/59
f 9/74/16 28/75/55 15/76/29
f 30/73/60 9/74/20 28/75/58
f 15/76/31 28/75/58 9/74/20
f 20/79/39 12/78/23 25/77/49
f 12/78/23 20/79/39 10/80/17
f 25/77/50 12/78/24 20/79/40
f 10/80/19 20/79/40 12/78/24
f 33/83/63 32/82/62 31/81/61
f 32/82/62 33/83/63 34/84/42
f 31/81/66 32/82/65 33/83/64
f 34/84/46 33/83/64 32/82/65
f 37/87/69 36/86/68 35/85/67
f 36/86/68 37/87/69 38/88/70
f 35/85/73 36/86/72 37/87/71
f 38/88/74 37/87/71 36/86/72
f 39/91/75 33/90/63 31/89/61
f 33/90/63 39/91/75 40/92/76
f 31/89/66 33/90/64 39/91/77
f 40/92/78 39/91/77 33/90/64
f 43/95/81 42/94/80 41/93/79
f 42/94/80 43/95/81 44/96/82
f 41/93/85 42/94/84 43/95/83
f 44/96/86 43/95/83 42/94/84
f 35/99/67 40/98/76 39/97/75
f 40/98/76 35/99/67 36/100/68
f 39/97/77 40/98/78 35/99/73
f 36/100/72 35/99/73 40/98/78
f 45/103/87 35/102/67 44/101/82
f 35/102/67 45/103/87 37/104/69
f 44/101/86 35/102/73 45/103/88
f 37/104/71 45/103/88 35/102/73
f 47/107/33 37/106/69 46/105/89
f 37/106/69 47/107/33 38/108/70
f 46/105/90 37/106/71 47/107/38
f 38/108/74 47/107/38 37/106/71
f 44/111/82 39/110/75 42/109/80
f 39/110/75 44/111/82 35/112/67
f 42/109/84 39/110/77 44/111/86
f 35/112/73 44/111/86 39/110/77
f 42/115/80 31/114/61 48/113/91
f 31/114/61 42/115/80 39/116/75
f 48/113/92 31/114/66 42/115/84
f 39/116/77 42/115/84 31/114/66
f 31/119/61 49/118/93 48/117/91
f 49/118/93 31/119/61 32/120/62
f 48/117/92 49/118/94 31/119/66
f 32/120/65 31/119/66 49/118/94
f 48/123/91 51/122/96 50/121/95
f 51/122/96 48/123/91 49/124/93
f 50/121/98 51/122/97 48/123/92
f 49/124/94 48/123/92 51/122/97
f 43/127/81 53/126/100 52/125/99
f 53/126/100 43/127/81 41/128/79
f 52/125/102 53/126/101 43/127/83
f 41/128/85 43/127/83 53/126/101
f 54/131/103 43/130/81 52/129/99
f 43/130/81 54/131/103 55/132/104
f 52/129/102 43/130/83 54/131/105
f 55/132/106 54/131/105 43/130/83
f 57/135/108 55/134/104 56/133/107
f 55/134/104 57/135/108 45/136/87
f 56/133/110 55/134/106 57/135/109
f 45/136/88 57/135/109 55/134/106
f 41/139/79 48/138/91 50/137/95
f 48/138/91 41/139/79 42/140/80
f 50/137/98 48/138/92 41/139/85
f 42/140/84 41/139/85 48/138/92
f 55/143/104 44/142/82 43/141/81
f 44/142/82 55/143/104 45/144/87
f 43/141/83 44/142/86 55/143/106
f 45/144/88 55/143/106 44/142/86
f 46/147/89 45/146/87 57/145/108
f 45/146/87 46/147/89 37/148/69
f 57/145/109 45/146/88 46/147/90
f 37/148/71 46/147/90 45/146/88
f 50/151/95 59/150/112 58/149/111
f 59/150/112 50/151/95 51/152/96
f 58/149/114 59/150/113 50/151/98
f 51/152/97 50/151/98 59/150/113
f 16/155/30 52/154/99 3/153/3
f 52/154/99 16/155/30 54/156/103
f 3/153/5 52/154/102 16/155/32
f 54/156/105 16/155/32 52/154/102
f 56/159/107 54/158/103 60/157/115
f 54/158/103 56/159/107 55/160/104
f 60/157/116 54/158/105 56/159/110
f 55/160/106 56/159/110 54/158/105
f 41/163/79 58/162/111 53/161/100
f 58/162/111 41/163/79 50/164/95
f 53/161/101 58/162/114 41/163/85
f 50/164/98 41/163/85 58/162/114
f 53/167/100 26/166/51 4/165/4
f 26/166/51 53/167/100 58/168/111
f 4/165/8 26/166/52 53/167/101
f 58/168/114 53/167/101 26/166/52
f 58/171/111 27/170/53 26/169/51
f 27/170/53 58/171/111 59/172/112
f 26/169/52 27/170/54 58/171/114
f 59/172/113 58/171/114 27/170/54
f 60/175/115 16/174/30 29/173/56
f 16/174/30 60/175/115 54/176/103
f 29/173/57 16/174/32 60/175/116
f 54/176/105 60/175/116 16/174/32
f 52/179/99 4/178/4 3/177/3
f 4/178/4 52/179/99 53/180/100
f 3/177/5 4/178/8 52/179/102
f 53/180/101 52/179/102 4/178/8

usemtl green

f 27/183/118 61/182/117 14/181/117
f 61/182/117 27/183/118 62/184/118
f 14/181/120 61/182/120 27/183/119
f 62/184/119 27/183/119 61/182/120
f 24/187/121 64/186/122 63/185/121
f 64/186/122 24/187/121 13/188/122
f 63/185/123 64/186/124 24/187/123
f 13/188/124 24/187/123 64/186/124
f 65/191/122 28/190/117 30/189/122
f 28/190/117 65/191/122 66/192/117
f 30/189/124 28/190/120 65/191/124
f 66/192/120 65/191/124 28/190/120
f 22/195/125 63/194/121 67/193/125
f 63/194/121 22/195/125 24/196/121
f 67/193/126 63/194/123 22/195/126
f 24/196/123 22/195/126 63/194/123
f 68/199/125 19/198/121 17/197/125
f 19/198/121 68/199/125 69/200/121
f 17/197/126 19/198/123 68/199/126
f 69/200/123 68/199/126 19/198/123
f 70/203/118 28/202/117 66/201/117
f 28/202/117 70/203/118 29/204/118
f 66/201/120 28/202/120 70/203/119
f 29/204/119 70/203/119 28/202/120
f 19/207/121 65/206/122 30/205/122
f 65/206/122 19/207/121 69/208/121
f 30/205/124 65/206/124 19/207/123
f 69/208/123 19/207/123 65/206/124
f 18/211/127 68/210/127 17/209/127
f 18/211/127 71/212/127 68/210/127
f 71/212/127 18/211/127 72/213/127
f 72/213/127 18/211/127 20/214/127
f 25/215/127 72/213/127 20/214/127
f 21/216/127 72/213/127 25/215/127
f 72/213/127 21/216/127 67/217/127
f 67/217/127 21/216/127 22/218/127
f 17/209/128 68/210/128 18/211/128
f 68/210/128 71/212/128 18/211/128
f 72/213/128 18/211/128 71/212/128
f 20/214/128 18/211/128 72/213/128
f 20/214/128 72/213/128 25/215/128
f 25/215/128 72/213/128 21/216/128
f 67/217/128 21/216/128 72/213/128
f 22/218/128 21/216/128 67/217/128
f 13/221/122 61/220/117 64/219/122
f 61/220/117 13/221/122 14/222/117
f 64/219/124 61/220/120 13/221/124
f 14/222/120 13/221/124 61/220/120
f 32/225/121 74/224/125 73/223/121
f 74/224/125 32/225/121 34/226/125
f 73/223/123 74/224/126 32/225/123
f 34/226/126 32/225/123 74/224/126
f 75/229/129 68/228/129 71/227/129
f 68/228/129 75/229/129 69/230/129
f 69/230/129 75/229/129 65/231/129
f 65/231/129 75/229/129 66/232/129
f 66/232/129 75/229/129 70/233/129
f 70/233/129 75/229/129 76/234/129
f 76/234/129 75/229/129 77/235/129
f 77/235/129 75/229/129 78/236/129
f 78/236/129 75/229/129 79/237/129
f 79/237/129 75/229/129 80/238/129
f 71/227/130 68/228/130 75/229/130
f 69/230/130 75/229/130 68/228/130
f 65/231/130 75/229/130 69/230/130
f 66/232/130 75/229/130 65/231/130
f 70/233/130 75/229/130 66/232/130
f 76/234/130 75/229/130 70/233/130
f 77/235/130 75/229/130 76/234/130
f 78/236/130 75/229/130 77/235/130
f 79/237/130 75/229/130 78/236/130
f 80/238/130 75/229/130 79/237/130
f 79/241/121 47/240/125 46/239/121
f 47/240/125 79/241/121 80/242/125
f 46/239/123 47/240/126 79/241/123
f 80/242/126 79/241/123 47/240/126
f 78/245/122 46/244/121 57/243/122
f 46/244/121 78/245/122 79/246/121
f 57/243/124 46/244/123 78/245/124
f 79/246/123 78/245/124 46/244/123
f 49/249/122 73/248/121 81/247/122
f 73/248/121 49/249/122 32/250/121
f 81/247/124 73/248/123 49/249/124
f 32/250/123 49/249/124 73/248/123
f 51/253/117 81/252/122 82/251/117
f 81/252/122 51/253/117 49/254/122
f 82/251/120 81/252/124 51/253/120
f 49/254/124 51/253/120 81/252/124
f 77/257/117 57/256/122 56/255/117
f 57/256/122 77/257/117 78/258/122
f 56/255/120 57/256/124 77/257/120
f 78/258/124 77/257/120 57/256/124
f 51/261/117 83/260/118 59/259/118
f 83/260/118 51/261/117 82/262/117
f 59/259/119 83/260/119 51/261/120
f 82/262/120 51/261/120 83/260/119
f 77/265/117 60/264/118 76/263/118
f 60/264/118 77/265/117 56/266/117
f 76/263/119 60/264/119 77/265/120
f 56/266/120 77/265/120 60/264/119
f 74/267/128 75/213/128 84/212/128
f 75/213/128 74/267/128 33/268/128
f 33/268/128 74/267/128 34/269/128
f 75/213/128 33/268/128 40/270/128
f 36/271/128 75/213/128 40/270/128
f 38/272/128 75/213/128 36/271/128
f 75/213/128 38/272/128 80/273/128
f 80/273/128 38/272/128 47/274/128
f 84/212/127 75/213/127 74/267/127
f 33/268/127 74/267/127 75/213/127
f 34/269/127 74/267/127 33/268/127
f 40/270/127 33/268/127 75/213/127
f 40/270/127 75/213/127 36/271/127
f 36/271/127 75/213/127 38/272/127
f 80/273/127 38/272/127 75/213/127
f 47/274/127 38/272/127 80/273/127
f 63/277/130 72/276/130 67/275/130
f 72/276/130 63/277/130 84/278/130
f 84/278/130 63/277/130 64/279/130
f 84/278/130 64/279/130 61/280/130
f 84/278/130 61/280/130 62/281/130
f 84/278/130 62/281/130 83/282/130
f 84/278/130 83/282/130 82/283/130
f 84/278/130 82/283/130 81/284/130
f 84/278/130 81/284/130 73/285/130
f 84/278/130 73/285/130 74/286/130
f 67/275/129 72/276/129 63/277/129
f 84/278/129 63/277/129 72/276/129
f 64/279/129 63/277/129 84/278/129
f 61/280/129 64/279/129 84/278/129
f 62/281/129 61/280/129 84/278/129
f 83/282/129 62/281/129 84/278/129
f 82/283/129 83/282/129 84/278/129
f 81/284/129 82/283/129 84/278/129
f 73/285/129 81/284/129 84/278/129
f 74/286/129 73/285/129 84/278/129
f 59/289/118 62/288/118 27/287/118
f 62/288/118 59/289/118 83/290/118
f 27/287/119 62/288/119 59/289/119
f 83/290/119 59/289/119 62/288/119
f 76/293/118 29/292/118 70/291/118
f 29/292/118 76/293/118 60/294/118
f 70/291/119 29/292/119 76/293/119
f 60/294/119 76/293/119 29/292/119
f 75/297/131 72/296/131 84/295/131
f 72/296/131 75/297/131 71/298/131
f 84/295/132 72/296/132 75/297/132
f 71/298/132 75/297/132 72/296/132

