# Created by Kenney (www.kenney.nl)

mtllib slant_solid_long_C.mtl

g slant_solid_long_C

v 0.5 0 1
v 0.5 9.023893E-17 -1
v -0.5 0 1
v -0.5 9.023893E-17 -1
v 0.5 1.5 1
v 0.2875 1.3125 1
v 0.35 1.5 1
v 0.1 1.25 1
v -0.1 1.25 1
v -0.2875 1.3125 1
v -0.5 1.5 1
v -0.35 1.5 1
v 0.5 0.5 -1
v 0.35 0.5 -1
v -0.35 0.5 -1
v -0.5 0.5 -1
v -0.2875 0.3125 -1
v -0.1 0.25 -1
v 0.1 0.25 -1
v 0.2875 0.3125 -1

vn 0 -1 0
vn 0 1 0
vn 0 0 1
vn 0 0 -1
vn 0 0.8944272 -0.4472136
vn 0 -0.8944272 0.4472136
vn -1 0 0
vn 1 0 0
vn 0.9370427 0.3123475 -0.1561738
vn 0.6057476 0.7116572 -0.3558286
vn 0.7418048 0.599817 -0.2999085
vn -0.9370427 -0.3123475 0.1561738
vn -0.6057476 -0.7116572 0.3558286
vn -0.7418048 -0.599817 0.2999085
vn -0.1375371 0.8859271 -0.4429635
vn -0.1506056 0.8842252 -0.4421126
vn 0.1375371 0.8859271 -0.4429635
vn 0.1506056 0.8842252 -0.4421126
vn -0.1375371 -0.8859271 0.4429635
vn 0.1506056 -0.8842252 0.4421126
vn 0.1375371 -0.8859271 0.4429635
vn -0.1506056 -0.8842252 0.4421126
vn -0.6057476 0.7116572 -0.3558286
vn -0.9370427 0.3123475 -0.1561738
vn -0.7418048 0.599817 -0.2999085
vn 0.7418048 -0.599817 0.2999085
vn 0.9370427 -0.3123475 0.1561738
vn 0.6057476 -0.7116572 0.3558286

vt 19.68504 39.37008
vt 19.68504 -39.37008
vt -19.68504 39.37008
vt -19.68504 -39.37008
vt 19.68504 0
vt -19.68504 0
vt 19.68504 59.05512
vt 11.3189 51.67323
vt 13.77953 59.05512
vt 3.937008 49.2126
vt -3.937008 49.2126
vt -11.3189 51.67323
vt -19.68504 59.05512
vt -13.77953 59.05512
vt -19.68504 -26.41025
vt -19.68504 61.62392
vt -13.77953 -26.41025
vt -13.77953 61.62392
vt 13.77953 19.68504
vt 19.68504 19.68504
vt 11.3189 12.30315
vt 19.68504 3.552714E-15
vt -19.68504 3.552714E-15
vt 3.937008 9.84252
vt -3.937008 9.84252
vt -11.3189 12.30315
vt -19.68504 19.68504
vt -13.77953 19.68504
vt -39.37008 3.552714E-15
vt -39.37008 19.68504
vt 39.37008 0
vt 39.37008 59.05512
vt 39.37008 19.68504
vt 39.37008 3.552714E-15
vt -39.37008 59.05512
vt -39.37008 0
vt 13.77953 -26.41025
vt 13.77953 61.62392
vt 19.68504 -26.41025
vt 19.68504 61.62392
vt 41.09975 20.92396
vt 40.69522 13.15329
vt -36.56907 62.36755
vt -36.97359 54.59687
vt -3.937008 -30.81196
vt -3.937008 57.22221
vt 3.937008 -30.81196
vt 3.937008 57.22221
vt 25.11438 -21.13663
vt -18.5628 55.29843
vt 31.25648 -16.35944
vt -12.4207 60.07562
vt -40.69522 13.15329
vt -41.09975 20.92396
vt 36.97359 54.59687
vt 36.56907 62.36755
vt -31.25648 -16.35944
vt 12.4207 60.07562
vt -25.11438 -21.13663
vt 18.5628 55.29843

usemtl green

f 3/3/1 2/2/1 1/1/1
f 2/2/1 3/3/1 4/4/1
f 1/1/2 2/2/2 3/3/2
f 4/4/2 3/3/2 2/2/2
f 5/7/3 3/6/3 1/5/3
f 3/6/3 5/7/3 6/8/3
f 6/8/3 5/7/3 7/9/3
f 3/6/3 6/8/3 8/10/3
f 9/11/3 3/6/3 8/10/3
f 10/12/3 3/6/3 9/11/3
f 3/6/3 10/12/3 11/13/3
f 11/13/3 10/12/3 12/14/3
f 1/5/4 3/6/4 5/7/4
f 6/8/4 5/7/4 3/6/4
f 7/9/4 5/7/4 6/8/4
f 8/10/4 6/8/4 3/6/4
f 8/10/4 3/6/4 9/11/4
f 9/11/4 3/6/4 10/12/4
f 11/13/4 10/12/4 3/6/4
f 12/14/4 10/12/4 11/13/4
f 14/17/5 5/16/5 13/15/5
f 5/16/5 14/17/5 7/18/5
f 13/15/6 5/16/6 14/17/6
f 7/18/6 14/17/6 5/16/6
f 17/21/4 16/20/4 15/19/4
f 17/21/4 4/22/4 16/20/4
f 4/22/4 17/21/4 2/23/4
f 2/23/4 17/21/4 18/24/4
f 19/25/4 2/23/4 18/24/4
f 20/26/4 2/23/4 19/25/4
f 2/23/4 20/26/4 13/27/4
f 13/27/4 20/26/4 14/28/4
f 15/19/3 16/20/3 17/21/3
f 16/20/3 4/22/3 17/21/3
f 2/23/3 17/21/3 4/22/3
f 18/24/3 17/21/3 2/23/3
f 18/24/3 2/23/3 19/25/3
f 19/25/3 2/23/3 20/26/3
f 13/27/3 20/26/3 2/23/3
f 14/28/3 20/26/3 13/27/3
f 3/31/7 16/30/7 4/29/7
f 16/30/7 3/31/7 11/32/7
f 4/29/8 16/30/8 3/31/8
f 11/32/8 3/31/8 16/30/8
f 5/35/8 2/34/8 13/33/8
f 2/34/8 5/35/8 1/36/8
f 13/33/7 2/34/7 5/35/7
f 1/36/7 5/35/7 2/34/7
f 16/39/5 12/38/5 15/37/5
f 12/38/5 16/39/5 11/40/5
f 15/37/6 12/38/6 16/39/6
f 11/40/6 16/39/6 12/38/6

usemtl yellow

f 12/43/9 17/42/10 15/41/9
f 17/42/10 12/43/9 10/44/11
f 15/41/12 17/42/13 12/43/12
f 10/44/14 12/43/12 17/42/13
f 18/47/17 8/46/16 19/45/15
f 8/46/16 18/47/17 9/48/18
f 19/45/21 8/46/20 18/47/19
f 9/48/22 18/47/19 8/46/20
f 17/51/10 9/50/18 18/49/17
f 9/50/18 17/51/10 10/52/11
f 18/49/19 9/50/22 17/51/13
f 10/52/14 17/51/13 9/50/22
f 6/55/25 14/54/24 20/53/23
f 14/54/24 6/55/25 7/56/24
f 20/53/28 14/54/27 6/55/26
f 7/56/27 6/55/26 14/54/27
f 19/59/15 6/58/25 20/57/23
f 6/58/25 19/59/15 8/60/16
f 20/57/28 6/58/26 19/59/21
f 8/60/20 19/59/21 6/58/26

