# Created by Kenney (www.kenney.nl)

mtllib rampStart_solid_D.mtl

g rampStart_solid_D

v 0.5 0.5 -0.5
v 0.5 0 -0.5
v 0.5 0.542 -0.228
v 0.5 0 0.5
v 0.5 0.656 -0.004
v 0.5 0.824 0.184
v 0.5 1.028 0.348
v 0.5 1.25 0.5
v 0.35 1.028 0.348
v 0.35 1.25 0.5
v 0.35 0.824 0.184
v 0.35 0.542 -0.228
v 0.35 0.656 -0.004
v -0.35 0.656 -0.004
v -0.35 0.824 0.184
v -0.5 0.656 -0.004
v -0.5 0.824 0.184
v -0.5 1.028 0.348
v -0.35 1.028 0.348
v -0.35 0.542 -0.228
v -0.5 0.542 -0.228
v 0.35 0.5 -0.5
v -0.35 0.5 -0.5
v -0.5 0.5 -0.5
v -0.5 1.25 0.5
v -0.35 1.25 0.5
v -0.5 0 0.5
v 0.2875 1.0625 0.5
v 0.1 1 0.5
v -0.1 1 0.5
v -0.2875 1.0625 0.5
v -0.5 0 -0.5
v -0.2875 0.3125 -0.5
v -0.1 0.25 -0.5
v 0.1 0.25 -0.5
v 0.2875 0.3125 -0.5
v -0.1 0.778 0.348
v 0.1 0.778 0.348
v -0.1 0.574 0.184
v 0.1 0.574 0.184
v 0.1 0.292 -0.228
v 0.1 0.406 -0.004
v -0.1 0.292 -0.228
v -0.1 0.406 -0.004
v 0.2875 0.4685 -0.004
v 0.2875 0.6365 0.184
v -0.2875 0.4685 -0.004
v -0.2875 0.3545 -0.228
v -0.2875 0.6365 0.184
v -0.2875 0.8404999 0.348
v 0.2875 0.8404999 0.348
v 0.2875 0.3545 -0.228

vn 1 0 0
vn -1 0 0
vn 0 0.5961926 -0.8028415
vn 0 0.5649503 -0.8251249
vn 0 -0.5649503 0.8251249
vn 0 -0.5961926 0.8028415
vn 0 0.6884308 -0.725302
vn 0 -0.6884308 0.725302
vn 0 0.9517266 -0.3069468
vn 0 0.8253237 -0.56466
vn 0 -0.9517266 0.3069468
vn 0 -0.8253237 0.56466
vn 0 0.9882875 -0.1526032
vn 0 -0.9882875 0.1526032
vn 0 0 1
vn 0 0 -1
vn 0 -1 0
vn 0 1 0
vn 0.09849066 0.595748 -0.7971097
vn -0.09849066 0.595748 -0.7971097
vn 0.1001353 0.5621108 -0.8209777
vn -0.1001353 0.5621108 -0.8209777
vn -0.1001353 -0.5621108 0.8209777
vn 0.09849066 -0.595748 0.7971097
vn -0.09849066 -0.595748 0.7971097
vn 0.1001353 -0.5621108 0.8209777
vn 0.1132313 0.6881952 -0.7166353
vn -0.1132313 0.6881952 -0.7166353
vn 0.1132313 -0.6881952 0.7166353
vn -0.1132313 -0.6881952 0.7166353
vn -0.1511329 0.9421509 -0.2991833
vn -0.1336012 0.8217822 -0.5539176
vn 0.1511329 0.9421509 -0.2991833
vn 0.1336012 0.8217822 -0.5539176
vn -0.1511329 -0.9421509 0.2991833
vn 0.1336012 -0.8217822 0.5539176
vn 0.1511329 -0.9421509 0.2991833
vn -0.1336012 -0.8217822 0.5539176
vn -0.6499906 0.6269527 -0.4294678
vn -0.6168079 0.5430611 -0.5697655
vn 0.6168079 -0.5430611 0.5697655
vn 0.6499906 -0.6269527 0.4294678
vn 0.6499906 0.6269527 -0.4294678
vn 0.675246 0.7015929 -0.2276181
vn -0.6499906 -0.6269527 0.4294678
vn -0.675246 -0.7015929 0.2276181
vn -0.9221982 0.3073994 -0.2346403
vn -0.8918148 0.2972716 -0.3410219
vn 0.9221982 -0.3073994 0.2346403
vn 0.8918148 -0.2972716 0.3410219
vn 0.6168079 0.5430611 -0.5697655
vn 0.5870982 0.4841453 -0.6487827
vn -0.6168079 -0.5430611 0.5697655
vn -0.5870982 -0.4841453 0.6487827
vn -0.5870982 0.4841453 -0.6487827
vn -0.8664856 0.2888285 -0.4071619
vn 0.5870982 -0.4841453 0.6487827
vn 0.8664856 -0.2888285 0.4071619
vn -0.675246 0.7015929 -0.2276181
vn -0.9425591 0.3141864 -0.1134429
vn 0.9425591 -0.3141864 0.1134429
vn 0.675246 -0.7015929 0.2276181
vn 0.8918148 0.2972716 -0.3410219
vn 0.8664856 0.2888285 -0.4071619
vn -0.8664856 -0.2888285 0.4071619
vn -0.8918148 -0.2972716 0.3410219
vn 0.9425591 0.3141864 -0.1134429
vn 0.9221982 0.3073994 -0.2346403
vn -0.9221982 -0.3073994 0.2346403
vn -0.9425591 -0.3141864 0.1134429
vn 0.1559725 0.9761923 -0.1507356
vn 0.6817034 0.7230595 -0.1116489
vn -0.6817034 -0.7230595 0.1116489
vn -0.1559725 -0.9761923 0.1507356
vn -0.1559725 0.9761923 -0.1507356
vn 0.1559725 -0.9761923 0.1507356
vn -0.6817034 0.7230595 -0.1116489
vn 0.6817034 -0.7230595 0.1116489
vn -0.9475544 0.3158515 -0.04877118
vn 0.9475544 -0.3158515 0.04877118
vn 0.9475544 0.3158515 -0.04877118
vn -0.9475544 -0.3158515 0.04877118
vn 0.6821671 0.4130897 -0.6033283
vn -0.6821671 -0.4130897 0.6033283
vn -0.6821671 0.4130897 -0.6033283
vn 0.6821671 -0.4130897 0.6033283
vn 0.8612608 0.287087 -0.4192981
vn -0.8612608 -0.287087 0.4192981
vn -0.8612608 0.287087 -0.4192981
vn 0.8612608 -0.287087 0.4192981

vt 19.68504 19.68504
vt 19.68504 -8.316725E-15
vt 8.976377 21.33858
vt -19.68504 -8.316725E-15
vt 0.1574803 25.82677
vt -7.244094 32.44094
vt -13.70079 40.47244
vt -19.68504 49.2126
vt -13.77953 41.13508
vt -19.68504 41.13508
vt -13.77953 51.72761
vt -19.68504 51.72761
vt -13.77953 29.82252
vt -19.68504 29.82252
vt -13.77953 40.12756
vt -19.68504 40.12756
vt -19.68504 1.678559
vt -19.68504 11.57385
vt -13.77953 1.678559
vt -13.77953 11.57385
vt 13.77953 17.09175
vt 13.77953 27.01801
vt 19.68504 17.09175
vt 19.68504 27.01801
vt -19.68504 17.09175
vt -19.68504 27.01801
vt -13.77953 17.09175
vt -13.77953 27.01801
vt 19.68504 29.82252
vt 13.77953 29.82252
vt 19.68504 40.12756
vt 13.77953 40.12756
vt 13.77953 11.57385
vt 19.68504 11.57385
vt 13.77953 1.678559
vt 19.68504 1.678559
vt -19.68504 -16.45048
vt -19.68504 -5.614906
vt -13.77953 -16.45048
vt -13.77953 -5.614906
vt 13.77953 -16.45048
vt 13.77953 -5.614906
vt 19.68504 -16.45048
vt 19.68504 -5.614906
vt 19.68504 41.13508
vt 13.77953 41.13508
vt 19.68504 51.72761
vt 13.77953 51.72761
vt 19.68504 9.313141E-15
vt -19.68504 9.313141E-15
vt 19.68504 49.2126
vt 11.3189 41.83071
vt 13.77953 49.2126
vt 3.937008 39.37008
vt -3.937008 39.37008
vt -11.3189 41.83071
vt -13.77953 49.2126
vt -19.68504 -5.356351E-15
vt -19.68504 19.68504
vt 19.68504 -5.356351E-15
vt -8.976377 21.33858
vt -0.1574803 25.82677
vt 7.244094 32.44094
vt 13.70079 40.47244
vt 13.77953 19.68504
vt 11.3189 12.30315
vt 19.68504 0
vt -19.68504 0
vt 3.937008 9.84252
vt -3.937008 9.84252
vt -11.3189 12.30315
vt -13.77953 19.68504
vt 19.68504 -19.68504
vt -19.68504 -19.68504
vt 3.937008 33.01377
vt -3.937008 33.01377
vt 3.937008 43.6063
vt -3.937008 43.6063
vt 3.937008 22.1515
vt -3.937008 22.1515
vt 3.937008 32.45654
vt -3.937008 32.45654
vt -3.937008 -2.785694
vt -3.937008 7.109598
vt 3.937008 -2.785694
vt 3.937008 7.109598
vt -10.66015 15.48612
vt -8.073355 25.0694
vt -3.743774 11.92092
vt -1.156975 21.50419
vt 3.379743 10.03809
vt 9.554977 14.77237
vt 8.21169 1.402746
vt 14.38692 6.137033
vt -3.382207 20.85753
vt -4.08466 28.60696
vt 3.711356 27.80102
vt 3.008904 35.55044
vt -3.937008 10.53338
vt -3.937008 20.45963
vt 3.937008 10.53338
vt 3.937008 20.45963
vt 1.927763 22.76553
vt 0.2565049 32.93414
vt 9.058078 25.88091
vt 7.386819 36.04953
vt 2.356367 27.84284
vt 1.413909 35.56675
vt 8.320686 36.24646
vt 7.378228 43.97036
vt -10.74306 16.27441
vt -11.15461 24.04471
vt -2.048385 20.99875
vt -2.459933 28.76906
vt -1.413909 35.56675
vt -2.356367 27.84284
vt -7.378228 43.97036
vt -8.320686 36.24646
vt -1.927763 22.76553
vt -9.058078 25.88091
vt -0.2565049 32.93414
vt -7.386819 36.04953
vt -14.38692 6.137033
vt -9.554977 14.77237
vt -8.21169 1.402746
vt -3.379743 10.03809
vt 3.743774 11.92092
vt 1.156975 21.50419
vt 10.66015 15.48612
vt 8.073355 25.0694
vt 11.15461 24.04471
vt 10.74306 16.27441
vt 2.459933 28.76906
vt 2.048385 20.99875
vt 19.5165 -1.01945
vt 9.799751 3.775805
vt 22.61931 6.116345
vt 12.90256 10.9116
vt 4.08466 28.60696
vt 3.382207 20.85753
vt -3.008904 35.55044
vt -3.711356 27.80102
vt -3.937008 -17.95248
vt -3.937008 -7.116906
vt 3.937008 -17.95248
vt 3.937008 -7.116906
vt -22.61931 6.116345
vt -12.90256 10.9116
vt -19.5165 -1.01945
vt -9.799751 3.775805
vt -20.24084 14.9241
vt -20.36732 22.70427
vt -9.546331 16.66686
vt -9.672814 24.44703
vt 20.36732 22.70427
vt 20.24084 14.9241
vt 9.672814 24.44703
vt 9.546331 16.66686
vt 0.7897931 33.37782
vt -0.5417437 43.88633
vt 7.986627 36.3363
vt 6.65509 46.8448
vt -0.7897931 33.37782
vt -7.986627 36.3363
vt 0.5417437 43.88633
vt -6.65509 46.8448
vt -6.286871 44.04725
vt -7.363949 36.34096
vt -11.66737 53.1715
vt -12.74445 45.46521
vt 7.363949 36.34096
vt 6.286871 44.04725
vt 12.74445 45.46521
vt 11.66737 53.1715

usemtl green

f 3/3/1 2/2/1 1/1/1
f 2/2/1 3/3/1 4/4/1
f 4/4/1 3/3/1 5/5/1
f 4/4/1 5/5/1 6/6/1
f 4/4/1 6/6/1 7/7/1
f 4/4/1 7/7/1 8/8/1
f 1/1/2 2/2/2 3/3/2
f 4/4/2 3/3/2 2/2/2
f 5/5/2 3/3/2 4/4/2
f 6/6/2 5/5/2 4/4/2
f 7/7/2 6/6/2 4/4/2
f 8/8/2 7/7/2 4/4/2
f 10/11/4 7/10/3 9/9/3
f 7/10/3 10/11/4 8/12/4
f 9/9/6 7/10/6 10/11/5
f 8/12/5 10/11/5 7/10/6
f 9/15/3 6/14/7 11/13/7
f 6/14/7 9/15/3 7/16/3
f 11/13/8 6/14/8 9/15/6
f 7/16/6 9/15/6 6/14/8
f 12/19/9 5/18/10 3/17/9
f 5/18/10 12/19/9 13/20/10
f 3/17/11 5/18/12 12/19/11
f 13/20/12 12/19/11 5/18/12
f 16/23/10 15/22/7 14/21/10
f 15/22/7 16/23/10 17/24/7
f 14/21/12 15/22/8 16/23/12
f 17/24/8 16/23/12 15/22/8
f 13/27/10 6/26/7 5/25/10
f 6/26/7 13/27/10 11/28/7
f 5/25/12 6/26/8 13/27/12
f 11/28/8 13/27/12 6/26/8
f 18/31/3 15/30/7 17/29/7
f 15/30/7 18/31/3 19/32/3
f 17/29/8 15/30/8 18/31/6
f 19/32/6 18/31/6 15/30/8
f 20/35/9 16/34/10 14/33/10
f 16/34/10 20/35/9 21/36/9
f 14/33/12 16/34/12 20/35/11
f 21/36/11 20/35/11 16/34/12
f 22/39/13 3/38/9 1/37/13
f 3/38/9 22/39/13 12/40/9
f 1/37/14 3/38/11 22/39/14
f 12/40/11 22/39/14 3/38/11
f 24/43/13 20/42/9 23/41/13
f 20/42/9 24/43/13 21/44/9
f 23/41/14 20/42/11 24/43/14
f 21/44/11 24/43/14 20/42/11
f 25/47/4 19/46/3 18/45/3
f 19/46/3 25/47/4 26/48/4
f 18/45/6 19/46/6 25/47/5
f 26/48/5 25/47/5 19/46/6
f 8/51/15 27/50/15 4/49/15
f 27/50/15 8/51/15 28/52/15
f 28/52/15 8/51/15 10/53/15
f 27/50/15 28/52/15 29/54/15
f 30/55/15 27/50/15 29/54/15
f 31/56/15 27/50/15 30/55/15
f 27/50/15 31/56/15 25/8/15
f 25/8/15 31/56/15 26/57/15
f 4/49/16 27/50/16 8/51/16
f 28/52/16 8/51/16 27/50/16
f 10/53/16 8/51/16 28/52/16
f 29/54/16 28/52/16 27/50/16
f 29/54/16 27/50/16 30/55/16
f 30/55/16 27/50/16 31/56/16
f 25/8/16 31/56/16 27/50/16
f 26/57/16 31/56/16 25/8/16
f 27/60/2 24/59/2 32/58/2
f 24/59/2 27/60/2 21/61/2
f 21/61/2 27/60/2 16/62/2
f 16/62/2 27/60/2 17/63/2
f 17/63/2 27/60/2 18/64/2
f 18/64/2 27/60/2 25/51/2
f 32/58/1 24/59/1 27/60/1
f 21/61/1 27/60/1 24/59/1
f 16/62/1 27/60/1 21/61/1
f 17/63/1 27/60/1 16/62/1
f 18/64/1 27/60/1 17/63/1
f 25/51/1 27/60/1 18/64/1
f 33/66/16 24/1/16 23/65/16
f 33/66/16 32/67/16 24/1/16
f 32/67/16 33/66/16 2/68/16
f 2/68/16 33/66/16 34/69/16
f 35/70/16 2/68/16 34/69/16
f 36/71/16 2/68/16 35/70/16
f 2/68/16 36/71/16 1/59/16
f 1/59/16 36/71/16 22/72/16
f 23/65/15 24/1/15 33/66/15
f 24/1/15 32/67/15 33/66/15
f 2/68/15 33/66/15 32/67/15
f 34/69/15 33/66/15 2/68/15
f 34/69/15 2/68/15 35/70/15
f 35/70/15 2/68/15 36/71/15
f 1/59/15 36/71/15 2/68/15
f 22/72/15 36/71/15 1/59/15
f 27/59/17 2/73/17 4/1/17
f 2/73/17 27/59/17 32/74/17
f 4/1/18 2/73/18 27/59/18
f 32/74/18 27/59/18 2/73/18

usemtl yellow

f 30/77/21 38/76/20 37/75/19
f 38/76/20 30/77/21 29/78/22
f 37/75/25 38/76/24 30/77/23
f 29/78/26 30/77/23 38/76/24
f 37/81/19 40/80/28 39/79/27
f 40/80/28 37/81/19 38/82/20
f 39/79/30 40/80/29 37/81/25
f 38/82/24 37/81/25 40/80/29
f 43/85/33 42/84/32 41/83/31
f 42/84/32 43/85/33 44/86/34
f 41/83/37 42/84/36 43/85/35
f 44/86/38 43/85/35 42/84/36
f 42/89/32 46/88/40 45/87/39
f 46/88/40 42/89/32 40/90/28
f 45/87/42 46/88/41 42/89/36
f 40/90/29 42/89/36 46/88/41
f 43/93/33 47/92/43 44/91/34
f 47/92/43 43/93/33 48/94/44
f 44/91/38 47/92/45 43/93/35
f 48/94/46 43/93/35 47/92/45
f 46/97/40 13/96/47 45/95/39
f 13/96/47 46/97/40 11/98/48
f 45/95/42 13/96/49 46/97/41
f 11/98/50 46/97/41 13/96/49
f 44/101/34 40/100/28 42/99/32
f 40/100/28 44/101/34 39/102/27
f 42/99/36 40/100/29 44/101/38
f 39/102/30 44/101/38 40/100/29
f 49/105/51 37/104/19 39/103/27
f 37/104/19 49/105/51 50/106/52
f 39/103/30 37/104/25 49/105/53
f 50/106/54 49/105/53 37/104/25
f 51/109/55 11/108/48 46/107/40
f 11/108/48 51/109/55 9/110/56
f 46/107/41 11/108/50 51/109/57
f 9/110/58 51/109/57 11/108/50
f 45/113/39 12/112/60 52/111/59
f 12/112/60 45/113/39 13/114/47
f 52/111/62 12/112/61 45/113/42
f 13/114/49 45/113/42 12/112/61
f 19/117/64 49/116/51 15/115/63
f 49/116/51 19/117/64 50/118/52
f 15/115/66 49/116/53 19/117/65
f 50/118/54 19/117/65 49/116/53
f 38/121/20 46/120/40 40/119/28
f 46/120/40 38/121/20 51/122/55
f 40/119/29 46/120/41 38/121/24
f 51/122/57 38/121/24 46/120/41
f 41/125/31 45/124/39 52/123/59
f 45/124/39 41/125/31 42/126/32
f 52/123/62 45/124/42 41/125/37
f 42/126/36 41/125/37 45/124/42
f 47/129/43 39/128/27 44/127/34
f 39/128/27 47/129/43 49/130/51
f 44/127/38 39/128/30 47/129/45
f 49/130/53 47/129/45 39/128/30
f 14/133/68 48/132/44 20/131/67
f 48/132/44 14/133/68 47/134/43
f 20/131/70 48/132/46 14/133/69
f 47/134/45 14/133/69 48/132/46
f 33/137/72 43/136/33 34/135/71
f 43/136/33 33/137/72 48/138/44
f 34/135/74 43/136/35 33/137/73
f 48/138/46 33/137/73 43/136/35
f 15/141/63 47/140/43 14/139/68
f 47/140/43 15/141/63 49/142/51
f 14/139/69 47/140/45 15/141/66
f 49/142/53 15/141/66 47/140/45
f 34/145/71 41/144/31 35/143/75
f 41/144/31 34/145/71 43/146/33
f 35/143/76 41/144/37 34/145/74
f 43/146/35 34/145/74 41/144/37
f 35/149/75 52/148/59 36/147/77
f 52/148/59 35/149/75 41/150/31
f 36/147/78 52/148/62 35/149/76
f 41/150/37 35/149/76 52/148/62
f 52/153/59 22/152/79 36/151/77
f 22/152/79 52/153/59 12/154/60
f 36/151/78 22/152/80 52/153/62
f 12/154/61 52/153/62 22/152/80
f 20/157/67 33/156/72 23/155/81
f 33/156/72 20/157/67 48/158/44
f 23/155/82 33/156/73 20/157/70
f 48/158/46 20/157/70 33/156/73
f 50/161/52 30/160/21 37/159/19
f 30/160/21 50/161/52 31/162/83
f 37/159/25 30/160/23 50/161/54
f 31/162/84 50/161/54 30/160/23
f 29/165/22 51/164/55 38/163/20
f 51/164/55 29/165/22 28/166/85
f 38/163/24 51/164/57 29/165/26
f 28/166/86 29/165/26 51/164/57
f 26/169/87 50/168/52 19/167/64
f 50/168/52 26/169/87 31/170/83
f 19/167/65 50/168/54 26/169/88
f 31/170/84 26/169/88 50/168/54
f 28/173/85 9/172/56 51/171/55
f 9/172/56 28/173/85 10/174/89
f 51/171/57 9/172/58 28/173/86
f 10/174/90 28/173/86 9/172/58

