# Created by Kenney (www.kenney.nl)

mtllib rampStart_solid_A.mtl

g rampStart_solid_A

v -0.1 0.276 -0.004
v -0.2875 0.3385 -0.004
v -0.1 0.257 -0.228
v -0.2875 0.3195 -0.228
v -0.1 0.304 0.184
v -0.2875 0.3665 0.184
v 0.2875 0.3195 -0.228
v 0.35 0.507 -0.228
v 0.2875 0.3385 -0.004
v 0.35 0.526 -0.004
v -0.35 0.554 0.184
v -0.35 0.588 0.348
v -0.2875 0.4005 0.348
v 0.2875 0.3665 0.184
v 0.35 0.554 0.184
v 0.1 0.276 -0.004
v 0.1 0.304 0.184
v 0.1 0.338 0.348
v -0.1 0.338 0.348
v 0.2875 0.4005 0.348
v -0.35 0.625 0.5
v -0.2875 0.4375 0.5
v 0.1 0.257 -0.228
v 0.35 0.588 0.348
v -0.1 0.25 -0.5
v -0.2875 0.3125 -0.5
v 0.2875 0.3125 -0.5
v 0.1 0.25 -0.5
v -0.35 0.507 -0.228
v -0.35 0.526 -0.004
v 0.35 0.5 -0.5
v -0.35 0.5 -0.5
v -0.1 0.375 0.5
v 0.2875 0.4375 0.5
v 0.35 0.625 0.5
v 0.1 0.375 0.5
v -0.5 0.588 0.348
v -0.5 0.554 0.184
v 0.5 0.526 -0.004
v 0.5 0.554 0.184
v 0.5 0.588 0.348
v -0.5 0.526 -0.004
v -0.5 0.507 -0.228
v -0.5 0.5 -0.5
v 0.5 0.507 -0.228
v 0.5 0.5 -0.5
v -0.5 2.192792E-15 -0.5
v -0.5 2.192792E-15 0.5
v -0.5 0.625 0.5
v 0.5 0.625 0.5
v 0.5 2.192792E-15 -0.5
v 0.5 0 0.5

vn 0.1586938 0.9807063 -0.1141548
vn 0.7012142 0.7081375 -0.08270402
vn 0.1594882 0.9857062 -0.05428534
vn 0.7026201 0.7104818 -0.03924984
vn -0.1594882 -0.9857062 0.05428534
vn -0.7012142 -0.7081375 0.08270402
vn -0.1586938 -0.9807063 0.1141548
vn -0.7026201 -0.7104818 0.03924984
vn 0.1574717 0.9723279 -0.1725721
vn 0.6998245 0.7032595 -0.125187
vn -0.1574717 -0.9723279 0.1725721
vn -0.6998245 -0.7032595 0.125187
vn -0.7026201 0.7104818 -0.03924984
vn -0.9485332 0.3161778 -0.01778206
vn -0.7012142 0.7081375 -0.08270402
vn -0.9480114 0.3160038 -0.03762801
vn 0.7012142 -0.7081375 0.08270402
vn 0.9485332 -0.3161778 0.01778206
vn 0.7026201 -0.7104818 0.03924984
vn 0.9480114 -0.3160038 0.03762801
vn 0.9471303 0.3157101 -0.057195
vn 0.9462324 0.3154108 -0.07183516
vn 0.6994362 0.6972181 -0.1570859
vn -0.9462324 -0.3154108 0.07183516
vn -0.9471303 -0.3157101 0.057195
vn -0.6994362 -0.6972181 0.1570859
vn -0.6998245 0.7032595 -0.125187
vn -0.9471303 0.3157101 -0.057195
vn 0.6998245 -0.7032595 0.125187
vn 0.9471303 -0.3157101 0.057195
vn -0.1586938 0.9807063 -0.1141548
vn -0.1574717 0.9723279 -0.1725721
vn 0.1586938 -0.9807063 0.1141548
vn 0.1574717 -0.9723279 0.1725721
vn -0.1563124 0.9636354 -0.2167334
vn 0.1563124 0.9636354 -0.2167334
vn -0.1563124 -0.9636354 0.2167334
vn 0.1563124 -0.9636354 0.2167334
vn -0.6994362 0.6972181 -0.1570859
vn 0.6994362 -0.6972181 0.1570859
vn 0.9458851 0.315295 -0.07674944
vn 0.7328136 0.6611243 -0.1609316
vn -0.9458851 -0.315295 0.07674944
vn -0.7328136 -0.6611243 0.1609316
vn -0.1594882 0.9857062 -0.05428534
vn 0.1594882 -0.9857062 0.05428534
vn -0.9462324 0.3154108 -0.07183516
vn 0.9462324 -0.3154108 0.07183516
vn 0.1597175 0.986836 -0.02539651
vn 0.703345 0.7106134 -0.01828784
vn -0.703345 -0.7106134 0.01828784
vn -0.1597175 -0.986836 0.02539651
vn -0.703345 0.7106134 -0.01828784
vn -0.1597175 0.986836 -0.02539651
vn 0.1597175 -0.986836 0.02539651
vn 0.703345 -0.7106134 0.01828784
vn 0.9485332 0.3161778 -0.01778206
vn 0.9480114 0.3160038 -0.03762801
vn -0.9480114 -0.3160038 0.03762801
vn -0.9485332 -0.3161778 0.01778206
vn -0.9486519 0.3162173 -0.008137945
vn 0.9486519 -0.3162173 0.008137945
vn 0.9486519 0.3162173 -0.008137945
vn -0.9486519 -0.3162173 0.008137945
vn 0.1595971 0.9591738 -0.2334831
vn -0.1595971 -0.9591738 0.2334831
vn -0.7328136 0.6611243 -0.1609316
vn -0.9458851 0.315295 -0.07674944
vn 0.7328136 -0.6611243 0.1609316
vn 0.9458851 -0.315295 0.07674944
vn -0.1595971 0.9591738 -0.2334831
vn 0.1595971 -0.9591738 0.2334831
vn 0 0.9755473 -0.21979
vn 0 0.9845282 -0.175226
vn 0 -0.9845282 0.175226
vn 0 -0.9755473 0.21979
vn 0 0.9932525 -0.1159726
vn 0 -0.9932525 0.1159726
vn 0 0.9984784 -0.05514626
vn 0 -0.9984784 0.05514626
vn 0 0.999669 -0.02572677
vn 0 -0.999669 0.02572677
vn -1 0 0
vn 1 0 0
vn 0 0.971628 -0.2365147
vn 0 -0.971628 0.2365147
vn 0 0 -1
vn 0 0 1
vn 0 -1 0
vn 0 1 0

vt 1.123504 7.105493
vt 2.943918 14.67075
vt 9.670038 4.805655
vt 11.49045 12.37091
vt 1.749844 7.042739
vt -5.007858 10.25708
vt 4.761213 14.2176
vt -1.99649 17.43194
vt -9.292693 15.43015
vt -9.362236 23.21104
vt -0.4773179 16.21862
vt -0.5468615 23.9995
vt -6.276881 25.19205
vt -6.446519 17.41271
vt -12.71821 26.60271
vt -12.88785 18.82336
vt -0.7185265 16.21296
vt -0.8405352 23.9932
vt 6.673944 17.37481
vt 6.551935 25.15505
vt -4.761213 14.2176
vt 1.99649 17.43194
vt -1.749844 7.042739
vt 5.007858 10.25708
vt -3.937008 16.11686
vt 3.937008 16.11686
vt -3.937008 9.522874
vt 3.937008 9.522874
vt 5.656241 21.44397
vt 9.554883 14.70991
vt 0.1734768 17.78064
vt 4.072118 11.04658
vt -3.937008 1.444943
vt -3.937008 8.928159
vt 3.937008 1.444943
vt 3.937008 8.928159
vt -12.54149 26.64858
vt -12.7405 18.86993
vt -18.50614 28.18356
vt -18.70515 20.40491
vt -9.554883 14.70991
vt -5.656241 21.44397
vt -4.072118 11.04658
vt -0.1734768 17.78064
vt -3.937008 -8.089098
vt -3.937008 0.761467
vt 3.937008 -8.089098
vt 3.937008 0.761467
vt -2.943918 14.67075
vt -1.123504 7.105493
vt -11.49045 12.37091
vt -9.670038 4.805655
vt 6.446519 17.41271
vt 6.276881 25.19205
vt 12.88785 18.82336
vt 12.71821 26.60271
vt 19.92969 5.406489
vt 9.252802 6.275656
vt 20.49792 13.16691
vt 9.821036 14.03608
vt -20.49792 13.16691
vt -9.821036 14.03608
vt -19.92969 5.406489
vt -9.252802 6.275656
vt 9.362236 23.21104
vt 9.292693 15.43015
vt 0.5468615 23.9995
vt 0.4773179 16.21862
vt -3.937008 -19.42531
vt -3.937008 -8.7131
vt 3.937008 -19.42531
vt 3.937008 -8.7131
vt -19.78141 15.19754
vt -19.80252 22.9787
vt -9.073142 15.48804
vt -9.09425 23.2692
vt 19.80252 22.9787
vt 19.78141 15.19754
vt 9.09425 23.2692
vt 9.073142 15.48804
vt 0.8405352 23.9932
vt 0.7185265 16.21296
vt -6.551935 25.15505
vt -6.673944 17.37481
vt -8.74271 15.48486
vt -13.57551 19.30289
vt -4.389239 21.93423
vt -9.222036 25.75225
vt 12.7405 18.86993
vt 12.54149 26.64858
vt 18.70515 20.40491
vt 18.50614 28.18356
vt -3.937008 16.45939
vt -3.937008 22.61839
vt 3.937008 16.45939
vt 3.937008 22.61839
vt 4.389239 21.93423
vt 9.222036 25.75225
vt 8.74271 15.48486
vt 13.57551 19.30289
vt 13.77953 18.1149
vt 19.68504 18.1149
vt 13.77953 11.52091
vt 19.68504 11.52091
vt -19.68504 2.894858
vt -19.68504 10.37807
vt -13.77953 2.894858
vt -13.77953 10.37807
vt -19.68504 18.1149
vt -13.77953 18.1149
vt -19.68504 11.52091
vt -13.77953 11.52091
vt 13.77953 2.894858
vt 13.77953 10.37807
vt 19.68504 2.894858
vt 19.68504 10.37807
vt 13.77953 1.593336
vt 19.68504 1.593336
vt 13.77953 -7.257229
vt 19.68504 -7.257229
vt 13.77953 -19.17209
vt 13.77953 -8.459885
vt 19.68504 -19.17209
vt 19.68504 -8.459885
vt -19.68504 1.593336
vt -13.77953 1.593336
vt -19.68504 -7.257229
vt -13.77953 -7.257229
vt -19.68504 -19.17209
vt -19.68504 -8.459885
vt -13.77953 -19.17209
vt -13.77953 -8.459885
vt -19.68504 7.689665E-14
vt -19.68504 19.68504
vt 19.68504 7.689665E-14
vt -8.976377 19.96063
vt -0.1574803 20.70866
vt 7.244094 21.81102
vt 13.70079 23.14961
vt 19.68504 24.6063
vt -19.68504 18.78729
vt -19.68504 24.94629
vt -13.77953 18.78729
vt -13.77953 24.94629
vt 13.77953 18.78729
vt 13.77953 24.94629
vt 19.68504 18.78729
vt 19.68504 24.94629
vt 13.77953 19.68504
vt 19.68504 19.68504
vt 11.3189 12.30315
vt 19.68504 8.633041E-14
vt -19.68504 8.633041E-14
vt 3.937008 9.84252
vt -3.937008 9.84252
vt -11.3189 12.30315
vt -13.77953 19.68504
vt 13.77953 24.6063
vt 11.3189 17.22441
vt 19.68504 -1.160937E-29
vt 3.937008 14.76378
vt -3.937008 14.76378
vt -11.3189 17.22441
vt -19.68504 24.6063
vt -13.77953 24.6063
vt 19.68504 1.15972E-13
vt 8.976377 19.96063
vt -19.68504 2.96416E-14
vt 0.1574803 20.70866
vt -7.244094 21.81102
vt -13.70079 23.14961
vt 19.68504 -19.68504
vt -19.68504 -19.68504

usemtl yellow

f 3/3/3 2/2/2 1/1/1
f 2/2/2 3/3/3 4/4/4
f 1/1/7 2/2/6 3/3/5
f 4/4/8 3/3/5 2/2/6
f 2/7/2 5/6/9 1/5/1
f 5/6/9 2/7/2 6/8/10
f 1/5/7 5/6/11 2/7/6
f 6/8/12 2/7/6 5/6/11
f 9/11/15 8/10/14 7/9/13
f 8/10/14 9/11/15 10/12/16
f 7/9/19 8/10/18 9/11/17
f 10/12/20 9/11/17 8/10/18
f 12/15/22 6/14/10 11/13/21
f 6/14/10 12/15/22 13/16/23
f 11/13/25 6/14/12 12/15/24
f 13/16/26 12/15/24 6/14/12
f 14/19/27 10/18/16 9/17/15
f 10/18/16 14/19/27 15/20/28
f 9/17/17 10/18/20 14/19/29
f 15/20/30 14/19/29 10/18/20
f 16/23/31 14/22/27 9/21/15
f 14/22/27 16/23/31 17/24/32
f 9/21/17 14/22/29 16/23/33
f 17/24/34 16/23/33 14/22/29
f 17/27/32 19/26/36 18/25/35
f 19/26/36 17/27/32 5/28/9
f 18/25/38 19/26/37 17/27/34
f 5/28/11 17/27/34 19/26/37
f 14/31/27 18/30/35 20/29/39
f 18/30/35 14/31/27 17/32/32
f 20/29/40 18/30/38 14/31/29
f 17/32/34 14/31/29 18/30/38
f 1/35/1 17/34/32 16/33/31
f 17/34/32 1/35/1 5/36/9
f 16/33/33 17/34/34 1/35/7
f 5/36/11 1/35/7 17/34/34
f 21/39/41 13/38/23 12/37/22
f 13/38/23 21/39/41 22/40/42
f 12/37/24 13/38/26 21/39/43
f 22/40/44 21/39/43 13/38/26
f 5/43/9 13/42/23 19/41/36
f 13/42/23 5/43/9 6/44/10
f 19/41/37 13/42/26 5/43/11
f 6/44/12 5/43/11 13/42/26
f 3/47/3 16/46/31 23/45/45
f 16/46/31 3/47/3 1/48/1
f 23/45/46 16/46/33 3/47/5
f 1/48/7 3/47/5 16/46/33
f 7/51/13 16/50/31 9/49/15
f 16/50/31 7/51/13 23/52/45
f 9/49/17 16/50/33 7/51/19
f 23/52/46 7/51/19 16/50/33
f 20/55/39 15/54/28 14/53/27
f 15/54/28 20/55/39 24/56/47
f 14/53/29 15/54/30 20/55/40
f 24/56/48 20/55/40 15/54/30
f 26/59/50 3/58/3 25/57/49
f 3/58/3 26/59/50 4/60/4
f 25/57/52 3/58/5 26/59/51
f 4/60/8 26/59/51 3/58/5
f 28/63/54 7/62/13 27/61/53
f 7/62/13 28/63/54 23/64/45
f 27/61/56 7/62/19 28/63/55
f 23/64/46 28/63/55 7/62/19
f 30/67/58 4/66/4 29/65/57
f 4/66/4 30/67/58 2/68/2
f 29/65/60 4/66/8 30/67/59
f 2/68/6 30/67/59 4/66/8
f 25/71/49 23/70/45 28/69/54
f 23/70/45 25/71/49 3/72/3
f 28/69/55 23/70/46 25/71/52
f 3/72/5 25/71/52 23/70/46
f 7/75/13 31/74/61 27/73/53
f 31/74/61 7/75/13 8/76/14
f 27/73/56 31/74/62 7/75/19
f 8/76/18 7/75/19 31/74/62
f 29/79/57 26/78/50 32/77/63
f 26/78/50 29/79/57 4/80/4
f 32/77/64 26/78/51 29/79/60
f 4/80/8 29/79/60 26/78/51
f 11/83/21 2/82/2 30/81/58
f 2/82/2 11/83/21 6/84/10
f 30/81/59 2/82/6 11/83/25
f 6/84/12 11/83/25 2/82/6
f 13/87/23 33/86/65 19/85/36
f 33/86/65 13/87/23 22/88/42
f 19/85/37 33/86/66 13/87/26
f 22/88/44 13/87/26 33/86/66
f 34/91/67 24/90/47 20/89/39
f 24/90/47 34/91/67 35/92/68
f 20/89/40 24/90/48 34/91/69
f 35/92/70 34/91/69 24/90/48
f 19/95/36 36/94/71 18/93/35
f 36/94/71 19/95/36 33/96/65
f 18/93/38 36/94/72 19/95/37
f 33/96/66 19/95/37 36/94/72
f 18/99/35 34/98/67 20/97/39
f 34/98/67 18/99/35 36/100/71
f 20/97/40 34/98/69 18/99/38
f 36/100/72 18/99/38 34/98/69

usemtl green

f 11/103/74 37/102/73 12/101/73
f 37/102/73 11/103/74 38/104/74
f 12/101/76 37/102/76 11/103/75
f 38/104/75 11/103/75 37/102/76
f 10/107/77 40/106/74 39/105/77
f 40/106/74 10/107/77 15/108/74
f 39/105/78 40/106/75 10/107/78
f 15/108/75 10/107/78 40/106/75
f 40/111/74 24/110/73 41/109/73
f 24/110/73 40/111/74 15/112/74
f 41/109/76 24/110/76 40/111/75
f 15/112/75 40/111/75 24/110/76
f 42/115/77 11/114/74 30/113/77
f 11/114/74 42/115/77 38/116/74
f 30/113/78 11/114/75 42/115/78
f 38/116/75 42/115/78 11/114/75
f 29/119/79 42/118/77 30/117/77
f 42/118/77 29/119/79 43/120/79
f 30/117/78 42/118/78 29/119/80
f 43/120/80 29/119/80 42/118/78
f 44/123/81 29/122/79 32/121/81
f 29/122/79 44/123/81 43/124/79
f 32/121/82 29/122/80 44/123/82
f 43/124/80 44/123/82 29/122/80
f 45/127/79 10/126/77 39/125/77
f 10/126/77 45/127/79 8/128/79
f 39/125/78 10/126/78 45/127/80
f 8/128/80 45/127/80 10/126/78
f 31/131/81 45/130/79 46/129/81
f 45/130/79 31/131/81 8/132/79
f 46/129/82 45/130/80 31/131/82
f 8/132/80 31/131/82 45/130/80
f 48/135/83 44/134/83 47/133/83
f 44/134/83 48/135/83 43/136/83
f 43/136/83 48/135/83 42/137/83
f 42/137/83 48/135/83 38/138/83
f 38/138/83 48/135/83 37/139/83
f 37/139/83 48/135/83 49/140/83
f 47/133/84 44/134/84 48/135/84
f 43/136/84 48/135/84 44/134/84
f 42/137/84 48/135/84 43/136/84
f 38/138/84 48/135/84 42/137/84
f 37/139/84 48/135/84 38/138/84
f 49/140/84 48/135/84 37/139/84
f 24/143/73 50/142/85 41/141/73
f 50/142/85 24/143/73 35/144/85
f 41/141/76 50/142/86 24/143/76
f 35/144/86 24/143/76 50/142/86
f 37/147/73 21/146/85 12/145/73
f 21/146/85 37/147/73 49/148/85
f 12/145/76 21/146/86 37/147/76
f 49/148/86 37/147/76 21/146/86
f 26/151/87 44/150/87 32/149/87
f 26/151/87 47/152/87 44/150/87
f 47/152/87 26/151/87 51/153/87
f 51/153/87 26/151/87 25/154/87
f 28/155/87 51/153/87 25/154/87
f 27/156/87 51/153/87 28/155/87
f 51/153/87 27/156/87 46/134/87
f 46/134/87 27/156/87 31/157/87
f 32/149/88 44/150/88 26/151/88
f 44/150/88 47/152/88 26/151/88
f 51/153/88 26/151/88 47/152/88
f 25/154/88 26/151/88 51/153/88
f 25/154/88 51/153/88 28/155/88
f 28/155/88 51/153/88 27/156/88
f 46/134/88 27/156/88 51/153/88
f 31/157/88 27/156/88 46/134/88
f 34/159/88 50/140/88 35/158/88
f 34/159/88 52/160/88 50/140/88
f 52/160/88 34/159/88 48/153/88
f 48/153/88 34/159/88 36/161/88
f 48/153/88 36/161/88 33/162/88
f 22/163/88 48/153/88 33/162/88
f 48/153/88 22/163/88 49/164/88
f 49/164/88 22/163/88 21/165/88
f 35/158/87 50/140/87 34/159/87
f 50/140/87 52/160/87 34/159/87
f 48/153/87 34/159/87 52/160/87
f 36/161/87 34/159/87 48/153/87
f 33/162/87 36/161/87 48/153/87
f 33/162/87 48/153/87 22/163/87
f 49/164/87 22/163/87 48/153/87
f 21/165/87 22/163/87 49/164/87
f 45/167/84 51/166/84 46/150/84
f 51/166/84 45/167/84 52/168/84
f 52/168/84 45/167/84 39/169/84
f 52/168/84 39/169/84 40/170/84
f 52/168/84 40/170/84 41/171/84
f 52/168/84 41/171/84 50/164/84
f 46/150/83 51/166/83 45/167/83
f 52/168/83 45/167/83 51/166/83
f 39/169/83 45/167/83 52/168/83
f 40/170/83 39/169/83 52/168/83
f 41/171/83 40/170/83 52/168/83
f 50/164/83 41/171/83 52/168/83
f 52/150/89 47/173/89 51/172/89
f 47/173/89 52/150/89 48/134/89
f 51/172/90 47/173/90 52/150/90
f 48/134/90 52/150/90 47/173/90

